<?xml version="1.0" standalone="no"?>
<!DOCTYPE svg PUBLIC "-//W3C//DTD SVG 1.1//EN" "http://www.w3.org/Graphics/SVG/1.1/DTD/svg11.dtd" >
<svg xmlns="http://www.w3.org/2000/svg" xmlns:xlink="http://www.w3.org/1999/xlink" version="1.1">
<metadata>
Created by FontForge 20170924 at Thu Nov 23 14:50:39 2017
 By www-data
For commercial use, please purchase permission to authorize business:
www.reeji.com QQ:2770851733 Mail:Reejifont@outlook.com
(c) 2017 by Shang hai Rui Xian Creative Design Co., Ltd..All rights reserved.
</metadata>
<defs>
<font id="REEJI-Top-BlackGBV1.0-Regular" horiz-adv-x="1024" >
  <font-face 
    font-family="REEJI-Top-BlackGBV1.0"
    font-weight="400"
    font-stretch="normal"
    units-per-em="1024"
    panose-1="2 0 5 0 0 0 0 0 0 0"
    ascent="819"
    descent="-205"
    x-height="542"
    cap-height="724"
    bbox="-28 -200 1164 922"
    underline-thickness="20"
    underline-position="-158"
    unicode-range="U+0020-FFE5"
  />
<missing-glyph 
 />
    <glyph glyph-name=".notdef" 
 />
    <glyph glyph-name="glyph1" horiz-adv-x="0" 
 />
    <glyph glyph-name="glyph2" horiz-adv-x="512" 
 />
    <glyph glyph-name="space" unicode=" " horiz-adv-x="512" 
 />
    <glyph glyph-name="exclam" unicode="!" horiz-adv-x="398" 
d="M264 182l30 316v270h-196v-272l30 -314h136zM294 -28v144h-196v-144h196z" />
    <glyph glyph-name="quotedbl" unicode="&#x22;" horiz-adv-x="554" 
d="M484 768h-198l30 -272h138zM268 768h-198l30 -272h138z" />
    <glyph glyph-name="numbersign" unicode="#" horiz-adv-x="810" 
d="M532 774l-38 -200h-108l40 200h-178l-34 -200h-118v-78h100l-48 -246h-104v-78h88l-50 -208h176l42 208h120l-42 -208h178l38 208h106v78h-92l44 246h98v78h-84l36 200h-170zM436 250h-118l52 246h112z" />
    <glyph glyph-name="dollar" unicode="$" horiz-adv-x="756" 
d="M458 678h220v78h-220v50h-156v-50h-224v-420h224v-260h-224v-78h224v-46h156v46h222v416h-222v264zM458 336h66v-260h-66v260zM302 414h-68v264h68v-264z" />
    <glyph glyph-name="percent" unicode="%" horiz-adv-x="1050" 
d="M982 -2v412h-354v-412h354zM780 76v256h50v-256h-50zM834 794h-174l-442 -830h168zM420 346v414h-352v-414h352zM220 424v258h48v-258h-48z" />
    <glyph glyph-name="ampersand" unicode="&#x26;" horiz-adv-x="874" 
d="M640 126l180 -124v188l-106 70l90 152h-188l-40 -68l-70 52l146 96v276h-550v-276l126 -86l-172 -104v-304h508zM372 490l-102 82v118h210v-126zM364 312l136 -96l-86 -140h-188v144z" />
    <glyph glyph-name="quotesingle" unicode="'" horiz-adv-x="346" 
d="M268 768h-190l28 -272h134z" />
    <glyph glyph-name="parenleft" unicode="(" horiz-adv-x="472" 
d="M422 -114l-122 248v472l122 250h-168l-112 -208v-560l100 -202h180z" />
    <glyph glyph-name="parenright" unicode=")" horiz-adv-x="374" 
d="M162 134l-130 -248h178l110 202v560l-112 208h-174l128 -254v-468z" />
    <glyph glyph-name="asterisk" unicode="*" horiz-adv-x="620" 
d="M568 386l-164 42l164 44l-92 162l-118 -126l42 176h-180l40 -174l-116 126l-84 -164l158 -36l-164 -50l94 -164l110 132l-38 -174h180l-40 176l112 -132z" />
    <glyph glyph-name="plus" unicode="+" horiz-adv-x="792" 
d="M494 418v266h-194v-266h-228v-98h228v-272h194v272h224v98h-224z" />
    <glyph glyph-name="comma" unicode="," horiz-adv-x="552" 
d="M384 32v110h-212v-144h68l-44 -110h126z" />
    <glyph glyph-name="hyphen" unicode="-" horiz-adv-x="792" 
d="M718 320v98h-646v-98h646z" />
    <glyph glyph-name="period" unicode="." horiz-adv-x="552" 
d="M384 -2v144h-212v-144h212z" />
    <glyph glyph-name="slash" unicode="/" horiz-adv-x="600" 
d="M594 816h-172l-416 -854h170z" />
    <glyph glyph-name="zero" unicode="0" horiz-adv-x="778" 
d="M282 76v584h214v-584h-214zM694 -2v740h-610v-740h610z" />
    <glyph glyph-name="one" unicode="1" horiz-adv-x="524" 
d="M350 -2v740h-280v-78h82v-662h198z" />
    <glyph glyph-name="two" unicode="2" horiz-adv-x="792" 
d="M708 -2v78h-424v256h424v406h-612v-78h416v-250h-424v-412h620z" />
    <glyph glyph-name="three" unicode="3" horiz-adv-x="802" 
d="M708 -2v740h-620v-78h424v-254h-350v-78h350v-252h-424v-78h620z" />
    <glyph glyph-name="four" unicode="4" horiz-adv-x="792" 
d="M698 -2v740h-194v-432h-216v432h-196v-510h412v-230h194z" />
    <glyph glyph-name="five" unicode="5" horiz-adv-x="788" 
d="M506 328v-252h-420v-78h616v408h-420v254h420v78h-616v-410h420z" />
    <glyph glyph-name="six" unicode="6" horiz-adv-x="786" 
d="M506 76h-224v260h224v-260zM282 414v246h420v78h-616v-740h616v416h-420z" />
    <glyph glyph-name="seven" unicode="7" horiz-adv-x="800" 
d="M728 738h-640v-78h396l-314 -662h206z" />
    <glyph glyph-name="eight" unicode="8" horiz-adv-x="802" 
d="M286 408v252h226v-252h-226zM512 330v-254h-226v254h226zM708 -2v740h-618v-740h618z" />
    <glyph glyph-name="nine" unicode="9" horiz-adv-x="792" 
d="M282 378v282h228v-282h-228zM510 300v-224h-424v-78h620v740h-620v-438h424z" />
    <glyph glyph-name="colon" unicode=":" horiz-adv-x="552" 
d="M394 380v144h-232v-144h232zM394 -2v144h-232v-144h232z" />
    <glyph glyph-name="semicolon" unicode=";" horiz-adv-x="552" 
d="M394 380v144h-232v-144h232zM394 32v110h-232v-144h74l-48 -110h138z" />
    <glyph glyph-name="less" unicode="&#x3c;" horiz-adv-x="730" 
d="M686 132l-338 244l338 244l-118 148l-530 -388l526 -398z" />
    <glyph glyph-name="equal" unicode="=" horiz-adv-x="792" 
d="M718 218v98h-646v-98h646zM718 414v98h-646v-98h646z" />
    <glyph glyph-name="greater" unicode="&#x3e;" horiz-adv-x="740" 
d="M386 376l-342 -244l122 -150l526 398l-530 388l-118 -146z" />
    <glyph glyph-name="question" unicode="?" horiz-adv-x="756" 
d="M448 316l214 150v302h-566v-296h192v218h182v-140l-216 -148v-220h194v134zM448 -28v144h-194v-144h194z" />
    <glyph glyph-name="at" unicode="@" horiz-adv-x="954" 
d="M390 244h-8l42 248h134l-38 -240l196 -158h184v696h-840v-824h618v78h-454v668h514v-476l-76 74l56 306h-138l-8 -46h-270l-66 -404h228l38 34v158z" />
    <glyph glyph-name="A" unicode="A" horiz-adv-x="796" 
d="M736 -2l-152 758h-378l-146 -758h190l56 284h180l58 -284h192zM468 360h-146l56 318h32z" />
    <glyph glyph-name="B" unicode="B" horiz-adv-x="814" 
d="M728 -2v430h-100v328h-542v-758h642zM274 678h166v-250h-166v250zM274 350h266v-274h-266v274z" />
    <glyph glyph-name="C" unicode="C" horiz-adv-x="764" 
d="M680 -2v78h-398v602h398v78h-594v-758h594z" />
    <glyph glyph-name="D" unicode="D" horiz-adv-x="814" 
d="M728 -2v584l-146 174h-496v-758h642zM274 678h188l78 -102v-500h-266v602z" />
    <glyph glyph-name="E" unicode="E" horiz-adv-x="764" 
d="M680 -2v78h-398v266h344v78h-344v258h398v78h-594v-758h594z" />
    <glyph glyph-name="F" unicode="F" horiz-adv-x="764" 
d="M86 -2h196v328h328v78h-328v274h398v78h-594v-758z" />
    <glyph glyph-name="G" unicode="G" horiz-adv-x="796" 
d="M710 -2v426h-368v-78h172v-270h-232v602h420v78h-616v-758h624z" />
    <glyph glyph-name="H" unicode="H" horiz-adv-x="766" 
d="M682 -2v758h-196v-314h-206v314h-194v-758h194v366h206v-366h196z" />
    <glyph glyph-name="I" unicode="I" horiz-adv-x="498" 
d="M350 -2v758h-198v-758h198z" />
    <glyph glyph-name="J" unicode="J" horiz-adv-x="534" 
d="M500 -2v758h-196v-680h-270v-78h466z" />
    <glyph glyph-name="K" unicode="K" horiz-adv-x="790" 
d="M730 -2l-230 358l208 400h-204l-172 -332h-58v332h-198v-758h198v348h24l220 -348h212z" />
    <glyph glyph-name="L" unicode="L" horiz-adv-x="782" 
d="M698 -2v78h-414v680h-198v-758h612z" />
    <glyph glyph-name="M" unicode="M" horiz-adv-x="950" 
d="M866 -2v758h-150l-238 -382l-242 382h-150v-758h188v476l206 -344l198 342v-474h188z" />
    <glyph glyph-name="N" unicode="N" horiz-adv-x="814" 
d="M728 -2v758h-190v-474l-300 474h-152v-758h190v482l300 -482h152z" />
    <glyph glyph-name="O" unicode="O" horiz-adv-x="806" 
d="M722 -2v758h-636v-758h636zM528 76h-248v602h248v-602z" />
    <glyph glyph-name="P" unicode="P" horiz-adv-x="790" 
d="M282 306h422v450h-618v-758h196v308zM282 384v294h226v-294h-226z" />
    <glyph glyph-name="Q" unicode="Q" horiz-adv-x="806" 
d="M86 -2h276l30 -92h202l-28 92h156v758h-636v-758zM528 76h-248v602h248v-602z" />
    <glyph glyph-name="R" unicode="R" horiz-adv-x="798" 
d="M762 -2l-196 296h148v462h-628v-758h196v296h50l202 -296h228zM282 372v306h236v-306h-236z" />
    <glyph glyph-name="S" unicode="S" horiz-adv-x="794" 
d="M710 -2v426h-428v254h424v78h-620v-410h428v-270h-428v-78h624z" />
    <glyph glyph-name="T" unicode="T" horiz-adv-x="738" 
d="M684 678v78h-636v-78h218v-680h196v680h222z" />
    <glyph glyph-name="U" unicode="U" horiz-adv-x="812" 
d="M728 -2v758h-196v-680h-250v680h-196v-758h642z" />
    <glyph glyph-name="V" unicode="V" horiz-adv-x="796" 
d="M744 756h-196l-160 -444l-150 444h-196l264 -758h164z" />
    <glyph glyph-name="W" unicode="W" horiz-adv-x="876" 
d="M802 -2v758h-188v-680h-80v680h-190v-680h-80v680h-188v-758h726z" />
    <glyph glyph-name="X" unicode="X" horiz-adv-x="768" 
d="M732 756h-214l-134 -210l-136 210h-220l254 -378l-254 -380h210l144 208l134 -208h220l-252 382z" />
    <glyph glyph-name="Y" unicode="Y" horiz-adv-x="792" 
d="M494 284l260 472h-214l-146 -254l-144 254h-214l258 -478v-280h200v286z" />
    <glyph glyph-name="Z" unicode="Z" horiz-adv-x="740" 
d="M700 -2v78h-392l404 680h-642v-78h362l-404 -680h672z" />
    <glyph glyph-name="bracketleft" unicode="[" horiz-adv-x="490" 
d="M148 856v-970h258v78h-80v814h80v78h-258z" />
    <glyph glyph-name="backslash" unicode="\" horiz-adv-x="620" 
d="M16 806l392 -854h196l-394 854h-194z" />
    <glyph glyph-name="bracketright" unicode="]" horiz-adv-x="430" 
d="M346 852h-258v-78h80v-814h-80v-78h258v970z" />
    <glyph glyph-name="asciicircum" unicode="^" horiz-adv-x="672" 
d="M284 556l48 54l46 -54h208l-190 214h-128l-194 -214h210z" />
    <glyph glyph-name="underscore" unicode="_" horiz-adv-x="592" 
d="M578 -78v98h-584v-98h584z" />
    <glyph glyph-name="grave" unicode="`" horiz-adv-x="450" 
d="M26 770l240 -220h160l-148 220h-252z" />
    <glyph glyph-name="a" unicode="a" horiz-adv-x="652" 
d="M588 -2v556h-450v-78h254v-124h-324v-354h520zM262 274h130v-198h-130v198z" />
    <glyph glyph-name="b" unicode="b" horiz-adv-x="682" 
d="M598 -2v534h-316v136h-196v-670h512zM282 454h120v-378h-120v378z" />
    <glyph glyph-name="c" unicode="c" horiz-adv-x="692" 
d="M608 -2v78h-332v400h332v78h-522v-556h522z" />
    <glyph glyph-name="d" unicode="d" horiz-adv-x="692" 
d="M608 -2v662h-194v-128h-328v-534h522zM414 454v-378h-132v378h132z" />
    <glyph glyph-name="e" unicode="e" horiz-adv-x="710" 
d="M626 -2v78h-344v146h344v332h-540v-556h540zM282 300v176h150v-176h-150z" />
    <glyph glyph-name="f" unicode="f" horiz-adv-x="512" 
d="M332 588h136v78h-334v-240h-94v-78h94v-350h198v350h136v78h-136v162z" />
    <glyph glyph-name="g" unicode="g" horiz-adv-x="710" 
d="M626 -94v644h-540v-398h346v-168h-346v-78h540zM432 230h-150v242h150v-242z" />
    <glyph glyph-name="h" unicode="h" horiz-adv-x="690" 
d="M606 -2v516h-328v152h-192v-668h192v438h134v-438h194z" />
    <glyph glyph-name="i" unicode="i" horiz-adv-x="452" 
d="M68 554v-78h44v-478h196v556h-240zM308 644v144h-196v-144h196z" />
    <glyph glyph-name="j" unicode="j" horiz-adv-x="456" 
d="M312 18v536h-196v-496l-106 -204h218zM312 644v142h-196v-142h196z" />
    <glyph glyph-name="k" unicode="k" horiz-adv-x="704" 
d="M660 -2l-174 296l156 260h-214l-132 -210h-24v316h-196v-662h196v268h2l156 -268h230z" />
    <glyph glyph-name="l" unicode="l" horiz-adv-x="346" 
d="M278 -2v686h-196v-686h196z" />
    <glyph glyph-name="m" unicode="m" horiz-adv-x="870" 
d="M796 -2v556h-720v-556h190v478h74v-478h192v478h74v-478h190z" />
    <glyph glyph-name="n" unicode="n" horiz-adv-x="682" 
d="M598 -2v556h-512v-556h190v478h132v-478h190z" />
    <glyph glyph-name="o" unicode="o" horiz-adv-x="692" 
d="M608 -2v556h-522v-556h522zM280 76v400h134v-400h-134z" />
    <glyph glyph-name="p" unicode="p" horiz-adv-x="710" 
d="M626 30v524h-540v-660h196v136h344zM282 108v368h150v-368h-150z" />
    <glyph glyph-name="q" unicode="q" horiz-adv-x="710" 
d="M626 -106v660h-540v-524h346v-136h194zM432 108h-150v368h150v-368z" />
    <glyph glyph-name="r" unicode="r" horiz-adv-x="558" 
d="M474 476v78h-388v-556h196v478h192z" />
    <glyph glyph-name="s" unicode="s" horiz-adv-x="708" 
d="M624 -2v318h-342v160h338v78h-534v-316h342v-162h-342v-78h538z" />
    <glyph glyph-name="t" unicode="t" horiz-adv-x="494" 
d="M290 534v134h-194v-134h-74v-78h74v-458h362v78h-168v380h172v78h-172z" />
    <glyph glyph-name="u" unicode="u" horiz-adv-x="696" 
d="M612 -2v556h-196v-478h-134v478h-196v-556h526z" />
    <glyph glyph-name="v" unicode="v" horiz-adv-x="672" 
d="M630 554h-202l-94 -240l-88 240h-204l218 -556h150z" />
    <glyph glyph-name="w" unicode="w" horiz-adv-x="832" 
d="M758 -2v556h-190v-478h-56v478h-192v-478h-56v478h-190v-556h684z" />
    <glyph glyph-name="x" unicode="x" horiz-adv-x="714" 
d="M678 -2l-200 286l196 270h-222l-88 -132l-98 132h-228l210 -276l-212 -280h230l94 130l88 -130h230z" />
    <glyph glyph-name="y" unicode="y" horiz-adv-x="716" 
d="M630 -96v638h-196v-288h-152v288h-196v-366h348v-194h-348v-78h544z" />
    <glyph glyph-name="z" unicode="z" horiz-adv-x="654" 
d="M620 -2v78h-308l336 478h-562v-78h274l-342 -478h602z" />
    <glyph glyph-name="braceleft" unicode="{" horiz-adv-x="456" 
d="M418 -114l-118 186v274l-38 34l38 42v242l116 192h-202l-102 -156v-240l-68 -90l68 -66v-268l96 -150h210z" />
    <glyph glyph-name="bar" unicode="|" horiz-adv-x="404" 
d="M296 -84v912h-180v-912h180z" />
    <glyph glyph-name="braceright" unicode="}" horiz-adv-x="410" 
d="M144 72l-128 -186h198l108 150v268l66 66l-66 90v240l-100 156h-204l126 -192v-242l36 -42l-36 -34v-274z" />
    <glyph glyph-name="asciitilde" unicode="~" horiz-adv-x="660" 
d="M606 324v148l-148 -94l-256 112l-144 -94v-152l144 102l256 -114z" />
    <glyph glyph-name="currency" unicode="&#xa4;" 
d="M670 264q-2 -75 -46 -116.5t-110 -41.5q-68 1 -110.5 44t-43.5 114q1 74 45 118t109 46q72 -3 113.5 -50.5t42.5 -113.5zM718 588l-60 -68q-108 50 -146 40q-99 -10 -146 -40l-60 70l-114 -112l68 -60q-34 -47 -40 -154q6 -103 40 -148l-68 -60l114 -116l56 70
q71 -40 152 -38q98 6 148 42l62 -74l106 116l-64 60q24 49 31 90t5 58q-9 102 -38 150l72 64z" />
    <glyph glyph-name="section" unicode="&#xa7;" 
d="M626 238v-162h-424v-78h622v314h-38v210h-344v156h350v78h-542v-234h-48v-284h424zM394 312v136h196v-136h-196z" />
    <glyph glyph-name="dieresis" unicode="&#xa8;" 
d="M738 768h-206v-136h206v136zM494 768h-204v-136h204v136z" />
    <glyph glyph-name="degree" unicode="&#xb0;" 
d="M38 532h328v282h-328v-282zM174 610v126h56v-126h-56z" />
    <glyph glyph-name="plusminus" unicode="&#xb1;" 
d="M834 422v78h-224v202h-196v-202h-226v-78h226v-208h196v208h224zM828 68v78h-646v-78h646z" />
    <glyph glyph-name="periodcentered" unicode="&#xb7;" 
d="M634 444h-248v-174h248v174z" />
    <glyph glyph-name="multiply" unicode="&#xd7;" 
d="M698 56l124 72l-232 238l232 240l-116 74l-200 -208l-200 204l-114 -74l228 -236l-226 -234l116 -76l194 202z" />
    <glyph glyph-name="agrave" unicode="&#xe0;" horiz-adv-x="694" 
d="M366 772h-200l160 -190h146zM412 50v-52h236v78h-42v500h-194v-32h-326v-536h282zM332 86h-52v380h132v-304z" />
    <glyph glyph-name="aacute" unicode="&#xe1;" horiz-adv-x="694" 
d="M404 582l106 190h-146l-160 -190h200zM412 50v-52h236v78h-42v500h-194v-32h-326v-536h282zM332 86h-52v380h132v-304z" />
    <glyph glyph-name="egrave" unicode="&#xe8;" horiz-adv-x="712" 
d="M378 772h-200l160 -190h146zM282 300v176h150v-176h-150zM626 -2v78h-344v146h344v332h-540v-556h540z" />
    <glyph glyph-name="eacute" unicode="&#xe9;" horiz-adv-x="712" 
d="M416 582l106 190h-146l-160 -190h200zM282 300v176h150v-176h-150zM626 -2v78h-344v146h344v332h-540v-556h540z" />
    <glyph glyph-name="ecircumflex" unicode="&#xea;" horiz-adv-x="712" 
d="M354 660l56 -78h176l-156 190h-150l-152 -190h170zM282 300v176h150v-176h-150zM626 -2v78h-344v146h344v332h-540v-556h540z" />
    <glyph glyph-name="igrave" unicode="&#xec;" horiz-adv-x="408" 
d="M232 772h-200l160 -190h146zM68 554v-78h44v-478h196v556h-240z" />
    <glyph glyph-name="iacute" unicode="&#xed;" horiz-adv-x="424" 
d="M268 582l106 190h-146l-160 -190h200zM68 554v-78h44v-478h196v556h-240z" />
    <glyph glyph-name="ograve" unicode="&#xf2;" horiz-adv-x="694" 
d="M366 772h-200l160 -190h146zM608 -2v556h-522v-556h522zM280 76v400h134v-400h-134z" />
    <glyph glyph-name="oacute" unicode="&#xf3;" horiz-adv-x="694" 
d="M404 582l106 190h-146l-160 -190h200zM608 -2v556h-522v-556h522zM280 76v400h134v-400h-134z" />
    <glyph glyph-name="divide" unicode="&#xf7;" 
d="M616 210h-210v-136h210v136zM616 648h-210v-138h210v138zM836 322v78h-646v-78h646z" />
    <glyph glyph-name="ugrave" unicode="&#xf9;" horiz-adv-x="698" 
d="M366 772h-200l160 -190h146zM612 -2v556h-196v-478h-134v478h-196v-556h526z" />
    <glyph glyph-name="uacute" unicode="&#xfa;" horiz-adv-x="698" 
d="M404 582l106 190h-146l-160 -190h200zM612 -2v556h-196v-478h-134v478h-196v-556h526z" />
    <glyph glyph-name="udieresis" unicode="&#xfc;" horiz-adv-x="698" 
d="M410 582h154v124h-154v-124zM138 582h154v124h-154v-124zM612 -2v556h-196v-478h-134v478h-196v-556h526z" />
    <glyph glyph-name="amacron" unicode="&#x101;" horiz-adv-x="694" 
d="M332 86h-52v380h132v-304zM412 50v-52h236v78h-42v500h-194v-32h-326v-536h282zM550 722h-406v-86h406v86z" />
    <glyph glyph-name="emacron" unicode="&#x113;" horiz-adv-x="712" 
d="M558 722h-406v-86h406v86zM626 -2v78h-344v146h344v332h-540v-556h540zM282 300v176h150v-176h-150z" />
    <glyph glyph-name="ecaron" unicode="&#x11b;" horiz-adv-x="712" 
d="M356 696l-62 76h-174l156 -190h152l152 190h-170zM282 300v176h150v-176h-150zM626 -2v78h-344v146h344v332h-540v-556h540z" />
    <glyph glyph-name="imacron" unicode="&#x12b;" horiz-adv-x="412" 
d="M412 722h-406v-86h406v86zM68 554v-78h44v-478h196v556h-240z" />
    <glyph glyph-name="nacute" unicode="&#x144;" horiz-adv-x="684" 
d="M404 582l106 190h-146l-160 -190h200zM598 -2v556h-512v-556h190v478h132v-478h190z" />
    <glyph glyph-name="ncaron" unicode="&#x148;" horiz-adv-x="684" 
d="M348 696l-62 76h-174l156 -190h152l152 190h-170zM598 -2v556h-512v-556h190v478h132v-478h190z" />
    <glyph glyph-name="omacron" unicode="&#x14d;" horiz-adv-x="694" 
d="M550 722h-406v-86h406v86zM608 -2v556h-522v-556h522zM280 76v400h134v-400h-134z" />
    <glyph glyph-name="umacron" unicode="&#x16b;" horiz-adv-x="698" 
d="M550 722h-406v-86h406v86zM612 -2v556h-196v-478h-134v478h-196v-556h526z" />
    <glyph glyph-name="uni01CE" unicode="&#x1ce;" horiz-adv-x="694" 
d="M354 696l-62 76h-174l156 -190h152l152 190h-170zM412 50v-52h236v78h-42v500h-194v-32h-326v-536h282zM332 86h-52v380h132v-304z" />
    <glyph glyph-name="uni01D0" unicode="&#x1d0;" horiz-adv-x="420" 
d="M208 696l-62 76h-174l156 -190h152l152 190h-170zM68 554v-78h44v-478h196v556h-240z" />
    <glyph glyph-name="uni01D2" unicode="&#x1d2;" horiz-adv-x="694" 
d="M348 696l-62 76h-174l156 -190h152l152 190h-170zM608 -2v556h-522v-556h522zM280 76v400h134v-400h-134z" />
    <glyph glyph-name="uni01D4" unicode="&#x1d4;" horiz-adv-x="698" 
d="M354 696l-62 76h-174l156 -190h152l152 190h-170zM612 -2v556h-196v-478h-134v478h-196v-556h526z" />
    <glyph glyph-name="uni01D6" unicode="&#x1d6;" horiz-adv-x="698" 
d="M554 828h-406v-86h406v86zM612 -2v556h-196v-478h-134v478h-196v-556h526zM138 582h154v124h-154v-124zM410 582h154v124h-154v-124z" />
    <glyph glyph-name="uni01D8" unicode="&#x1d8;" horiz-adv-x="698" 
d="M428 732l106 190h-146l-160 -190h200zM410 582h154v124h-154v-124zM138 582h154v124h-154v-124zM612 -2v556h-196v-478h-134v478h-196v-556h526z" />
    <glyph glyph-name="uni01DA" unicode="&#x1da;" horiz-adv-x="698" 
d="M354 846l-62 76h-174l156 -190h152l152 190h-170zM410 582h154v124h-154v-124zM138 582h154v124h-154v-124zM612 -2v556h-196v-478h-134v478h-196v-556h526z" />
    <glyph glyph-name="uni01DC" unicode="&#x1dc;" horiz-adv-x="698" 
d="M372 922h-200l160 -190h146zM410 582h154v124h-154v-124zM138 582h154v124h-154v-124zM612 -2v556h-196v-478h-134v478h-196v-556h526z" />
    <glyph glyph-name="uni0251" unicode="&#x251;" horiz-adv-x="694" 
d="M412 50v-52h236v78h-42v500h-194v-32h-326v-536h282zM332 86h-52v380h132v-304z" />
    <glyph glyph-name="uni0261" unicode="&#x261;" horiz-adv-x="712" 
d="M626 -94v644h-540v-398h346v-168h-346v-78h540zM432 230h-150v242h150v-242z" />
    <glyph glyph-name="caron" unicode="&#x2c7;" 
d="M508 710l-58 80h-198l194 -214h128l190 214h-192z" />
    <glyph glyph-name="uni02C9" unicode="&#x2c9;" 
d="M696 760h-372v-124h372v124z" />
    <glyph glyph-name="Alpha" unicode="&#x391;" 
d="M512 446l60 -186h-124zM358 -2l68 184h174l64 -184h184l-278 726h-108l-284 -726h180z" />
    <glyph glyph-name="Beta" unicode="&#x392;" 
d="M270 -2l42 6h244q80 0 155 52.5t81 153.5q1 119 -142 172q102 61 100 156q4 53 -38.5 113.5t-185.5 66.5l-256 6v-726zM442 408v238l54 6q56 -4 74.5 -44t17.5 -76q-12 -128 -92 -130zM442 76v254l82 6q36 1 68.5 -24.5t35.5 -95.5q-11 -144 -124 -146z" />
    <glyph glyph-name="Gamma" unicode="&#x393;" 
d="M278 -2h170v648h322v78h-492v-726z" />
    <glyph glyph-name="uni0394" unicode="&#x394;" 
d="M170 -2h714l-372 744zM390 76l126 324l140 -324h-266z" />
    <glyph glyph-name="Epsilon" unicode="&#x395;" 
d="M272 -2h492v78h-322v258h260v78h-260v234h298v78h-468v-726z" />
    <glyph glyph-name="Zeta" unicode="&#x396;" 
d="M568 646l-372 -648h602v78h-356l376 648h-560v-78h310z" />
    <glyph glyph-name="Eta" unicode="&#x397;" 
d="M256 -2h170v342h176v-342h170v726h-170v-306h-176v306h-170v-726z" />
    <glyph glyph-name="Theta" unicode="&#x398;" 
d="M386 322h266v78h-266v-78zM192 364q1 -143 86.5 -253t231.5 -115q162 6 248.5 115.5t87.5 250.5q-2 139 -90 250t-242 118q-151 -7 -236 -117.5t-86 -248.5zM512 62q-88 2 -124 85t-34 217q0 294 160 300q93 -3 132 -87.5t38 -214.5q2 -135 -34.5 -216.5t-137.5 -83.5z
" />
    <glyph glyph-name="Iota" unicode="&#x399;" 
d="M432 -2h170v726h-170v-726z" />
    <glyph glyph-name="Kappa" unicode="&#x39a;" 
d="M262 -2h140l24 42v274q62 -61 131.5 -143.5t120.5 -166.5h128q-83 143 -167 236t-139 138q142 114 294 340h-118q-122 -160 -250 -278l6 284h-170v-726z" />
    <glyph glyph-name="Lambda" unicode="&#x39b;" 
d="M158 -2h174l182 480l182 -480h178l-304 726h-116z" />
    <glyph glyph-name="Mu" unicode="&#x39c;" 
d="M190 -2h166v420l120 -280h66l122 280v-420h166v726h-128l-190 -404l-196 404h-126v-726z" />
    <glyph glyph-name="Nu" unicode="&#x39d;" 
d="M242 -2h166v434l288 -434h78v726h-166v-400l-272 400h-94v-726z" />
    <glyph glyph-name="Xi" unicode="&#x39e;" 
d="M236 -2h550v78h-550v-78zM780 724h-540v-78h540v78zM294 322h434v78h-434v-78z" />
    <glyph glyph-name="Omicron" unicode="&#x39f;" 
d="M192 364q1 -143 86.5 -253t231.5 -115q162 6 248.5 115.5t87.5 250.5q-2 139 -90 250t-242 118q-151 -7 -236 -117.5t-86 -248.5zM512 62q-88 2 -124 86t-34 216q0 294 160 300q93 -3 132 -87.5t38 -214.5q2 -135 -34.5 -216.5t-137.5 -83.5z" />
    <glyph glyph-name="Pi" unicode="&#x3a0;" 
d="M248 -2h170v648h192v-648h172v726h-534v-726z" />
    <glyph glyph-name="Rho" unicode="&#x3a1;" 
d="M278 -2h170v284l60 6q106 -2 176.5 49.5t73.5 170.5q-3 101 -73.5 155t-174.5 55l-232 6v-726zM448 360v286l48 6q40 -1 72 -38t34 -110q4 -156 -114 -150z" />
    <glyph glyph-name="Sigma" unicode="&#x3a3;" 
d="M238 -2h552v78h-350l302 282l-302 288h342v78h-532v-110l260 -254l-272 -254v-108z" />
    <glyph glyph-name="Tau" unicode="&#x3a4;" 
d="M428 646v-648h172v648h234v78h-626v-78h220z" />
    <glyph glyph-name="Upsilon" unicode="&#x3a5;" 
d="M420 282v-284h180v284l252 442h-172l-168 -286l-166 286h-180z" />
    <glyph glyph-name="Phi" unicode="&#x3a6;" 
d="M434 76l-6 -78h180l-6 78q104 17 175.5 93.5t74.5 184.5q-4 124 -78.5 204.5t-171.5 99.5l6 66h-180l6 -68q-99 -19 -168 -95.5t-72 -198.5q2 -112 70 -190t170 -96zM324 362q2 88 35.5 148t74.5 80v-444q-41 18 -74.5 73t-35.5 143zM602 142v450q50 -20 85 -86.5
t37 -157.5q-2 -81 -38.5 -136.5t-83.5 -69.5z" />
    <glyph glyph-name="Chi" unicode="&#x3a7;" 
d="M430 360l-242 -362h184l140 216l140 -216h192l-246 364l236 362h-184l-138 -218l-138 218h-182z" />
    <glyph glyph-name="Psi" unicode="&#x3a8;" 
d="M428 302l-6 -304h182l-6 42v262q107 23 174 128t70 228q-2 30 -6 60h-88h-40q6 -29 6 -58q-2 -78 -34.5 -172t-81.5 -120l6 356h-182l6 -40v-310q-49 28 -77.5 119t-28.5 167q-1 29 4 58h-94h-32q-8 -34 -6 -68q1 -122 64 -223t170 -125z" />
    <glyph glyph-name="uni03A9" unicode="&#x3a9;" 
d="M226 -2h272l-6 116q-69 72 -103 150.5t-33 145.5q-1 101 38 170t120 72q90 -2 131 -68t41 -178q3 -137 -146 -292l-6 -116h280v78l-130 -6q149 178 148 336q-4 137 -93.5 223t-224.5 89q-128 -3 -214.5 -90t-89.5 -222q4 -162 132 -336l-116 6v-78z" />
    <glyph glyph-name="alpha" unicode="&#x3b1;" 
d="M226 270q1 -113 59 -187.5t161 -76.5q52 -2 101 19.5t79 84.5q42 -92 162 -118v66q-62 17 -82 61t-18 143q0 118 26.5 161t73.5 53v68q-105 -11 -156 -106q-78 112 -182 104q-102 -3 -162.5 -77.5t-61.5 -194.5zM454 72q-98 5 -100 212q0 84 25.5 137t74.5 55
q107 -1 112 -200q-7 -210 -112 -204z" />
    <glyph glyph-name="beta" unicode="&#x3b2;" 
d="M254 512v-706h160v196q43 -16 96 -18q114 0 185.5 58.5t74.5 175.5q-7 141 -178 186q63 37 88.5 84.5t25.5 85.5q-2 77 -61 122.5t-151 47.5q-109 -4 -174 -73.5t-66 -158.5zM508 50q-58 -2 -94 26v504q-4 94 70 98q64 2 72 -92q-2 -106 -25.5 -139.5t-48.5 -30.5h-20
v-66h38q121 2 120 -140q-10 -157 -112 -160z" />
    <glyph glyph-name="gamma" unicode="&#x3b3;" 
d="M454 198q-55 -106 -88 -187.5t-60 -158.5h176q93 316 360 602l-130 100q-117 -132 -198 -234q-23 78 -88.5 136.5t-189.5 75.5l-48 -86h30q95 -5 155.5 -79.5t80.5 -168.5z" />
    <glyph glyph-name="delta" unicode="&#x3b4;" 
d="M244 242q0 -92 68.5 -167.5t195.5 -80.5q124 3 199 76.5t77 187.5q-2 78 -38.5 130t-90 87.5t-108 65t-91.5 63.5q-30 33 -24 82.5t60 55.5q114 -7 258 -94l30 62q-160 89 -328 98q-73 -1 -122 -37t-50 -99q1 -57 51.5 -102t132.5 -78q-218 -64 -220 -250zM512 60
q-62 2 -91.5 55.5t-28.5 132.5q-1 80 29 136.5t93 59.5q43 -1 82 -48.5t42 -137.5q1 -71 -26 -132.5t-100 -65.5z" />
    <glyph glyph-name="epsilon" unicode="&#x3b5;" 
d="M280 164q-2 -62 46 -115t158 -57q63 1 124.5 14.5t99.5 31.5l-24 68q-106 -48 -178 -48q-32 -2 -51 20t-19 86q6 74 90 74l142 -6v78l-120 -6q-99 -6 -104 90q-5 107 90 106q41 2 142 -40l24 62q-126 50 -192 44q-93 -2 -152.5 -49.5t-61.5 -124.5q-3 -56 40 -108
q-54 -50 -54 -120z" />
    <glyph glyph-name="zeta" unicode="&#x3b6;" 
d="M482 -110l124 -56q102 90 102 152q1 80 -60 106q-57 21 -108 27.5t-96 42.5q-12 7 -26.5 30.5t-15.5 75.5q3 103 84.5 220.5t205.5 201.5l6 110h-410v-82l258 10q-115 -92 -201.5 -210.5t-90.5 -249.5q-5 -110 62 -192q64 -63 140 -72q65 -6 98 -22q13 -14 -12.5 -43.5
t-59.5 -48.5z" />
    <glyph glyph-name="eta" unicode="&#x3b7;" 
d="M598 360v-508h156v470q0 90 -53.5 156t-160.5 70q-80 2 -136 -46q-29 46 -64 38q-20 1 -56 -14.5t-94 -71.5l42 -60q22 28 51.5 46.5t32.5 -2.5v-398h36h54h66v314q-2 128 60 124q70 4 66 -118z" />
    <glyph glyph-name="theta" unicode="&#x3b8;" 
d="M266 382q-4 -130 49.5 -255.5t202.5 -134.5q111 -2 178.5 88t69.5 300q2 151 -55 268t-197 124q-145 -9 -198 -132t-50 -258zM420 416q3 295 96 290q58 -6 77 -96.5t19 -193.5h-192zM518 58q-47 2 -71.5 84t-26.5 208h190q3 -287 -92 -292z" />
    <glyph glyph-name="iota" unicode="&#x3b9;" 
d="M430 102q0 -41 30 -71.5t90 -32.5q41 -2 98 8l-12 64q-29 -9 -41 4.5t-11 67.5v422h-154v-462z" />
    <glyph glyph-name="kappa" unicode="&#x3ba;" 
d="M280 -2h166v226q111 -104 232 -234l76 88q-68 52 -131.5 104.5t-142.5 111.5q125 101 274 200l-86 74q-63 -68 -123 -119.5t-99 -84.5v200h-166v-566z" />
    <glyph glyph-name="lambda" unicode="&#x3bb;" 
d="M534 276q17 -53 50 -130t106 -172l116 100q-99 139 -146.5 307.5t-99.5 308.5q-28 60 -73.5 76t-96.5 14q-22 1 -63 -10t-83 -46l14 -64q64 53 108 52q42 -5 62 -68.5t34 -129.5l-226 -516h178z" />
    <glyph glyph-name="uni03BC" unicode="&#x3bc;" 
d="M268 -138h156v206q37 -46 84 -40q61 1 114 44q32 -40 86 -40q48 0 84 24l-12 62q-54 -38 -50 36v410h-158v-350q4 -113 -64 -118q-81 10 -84 104v364h-156v-702z" />
    <glyph glyph-name="nu" unicode="&#x3bd;" 
d="M250 502q46 -129 66.5 -253t35.5 -245h166q110 61 178 208.5t84 345.5h-152q-9 -120 -39.5 -225.5t-104.5 -200.5q-10 110 -32 209.5t-64 234.5z" />
    <glyph glyph-name="xi" unicode="&#x3be;" 
d="M508 -136q94 1 160.5 41t69.5 115q-9 98 -94.5 129.5t-147.5 56.5q-46 23 -40 100q1 39 37.5 69.5t96.5 32.5h120v66h-132q-33 -1 -66.5 31.5t-35.5 100.5q3 80 42 104t76 22h160v72h-522v-72l76.5 4.5t111.5 5.5q-61 -36 -83.5 -79.5t-20.5 -82.5q-4 -96 124 -138
q-82 -33 -113 -77.5t-29 -88.5q2 -99 62.5 -148.5t155.5 -71.5q50 -6 58 -62q0 -75 -62 -66q-42 0 -98 20l-18 -62q54 -23 112 -22z" />
    <glyph glyph-name="omicron" unicode="&#x3bf;" 
d="M772 264q-3 149 -74 228t-182 80q-111 -1 -183.5 -79t-74.5 -227q0 -116 65.5 -193t192.5 -81q136 7 196.5 92.5t59.5 179.5zM514 58q-105 -7 -108 226q-2 76 21 146.5t85 75.5q66 -5 90.5 -79t23.5 -161q1 -73 -22.5 -138.5t-89.5 -69.5z" />
    <glyph glyph-name="pi" unicode="&#x3c0;" 
d="M308 490v-492h160v486h66v-358q1 -61 41.5 -92.5t102.5 -31.5q33 1 66 8l-8 58q-49 -22 -46 76v340h164v78l-42 -6h-510q-73 -1 -128 -14v-70q80 18 134 18z" />
    <glyph glyph-name="rho" unicode="&#x3c1;" 
d="M258 234v-416h162v232q54 -64 108 -56q154 4 215 88t59 190q-2 147 -73.5 222t-192.5 76q-119 -3 -197.5 -96t-80.5 -240zM530 64q-51 2 -80.5 59t-29.5 137q0 107 29.5 173.5t80.5 68.5q105 -10 112 -220q1 -85 -23.5 -150t-88.5 -68z" />
    <glyph glyph-name="sigma" unicode="&#x3c3;" 
d="M232 278q0 -117 68 -198.5t202 -85.5q134 5 197 86t63 182q1 51 -21.5 116t-86.5 116h184v66h-320q-136 -5 -210.5 -90.5t-75.5 -191.5zM492 486q55 -4 83 -62.5t29 -133.5q0 -101 -24.5 -164t-79.5 -64q-72 6 -92.5 73.5t-17.5 122.5q0 96 25.5 160.5t76.5 67.5z" />
    <glyph glyph-name="tau" unicode="&#x3c4;" 
d="M592 -10q34 1 68 8l-8 62q-51 -13 -44 26v400h162v72h-378q-61 0 -116 -18v-68q56 20 116 20h62v-392q-8 -116 138 -110z" />
    <glyph glyph-name="upsilon" unicode="&#x3c5;" 
d="M284 332q-3 -109 44 -221.5t180 -122.5q140 10 190.5 123.5t47.5 220.5v234h-154v-222q2 -74 -11 -177t-69 -113q-29 1 -43.5 37.5t-20.5 88t-6.5 97.5t0.5 67v222h-158v-234z" />
    <glyph glyph-name="phi" unicode="&#x3c6;" 
d="M332 268q0 75 23.5 134t70.5 72v-412q-47 20 -70.5 78t-23.5 128zM696 270q-4 -176 -100 -208v412q48 -16 73.5 -79t26.5 -125zM426 736v-190q-103 -24 -168.5 -96.5t-67.5 -181.5q2 -110 67.5 -182.5t168.5 -89.5v-196h170v194q107 23 175 92.5t71 173.5q-3 111 -71 187
t-175 99v190h-170z" />
    <glyph glyph-name="chi" unicode="&#x3c7;" 
d="M496 84q27 -60 75 -133.5t131 -80.5q59 -2 112 16l-18 56q-36 -2 -60 -2q-34 2 -58 39.5t-44 92.5l-56 136l218 354h-178l-102 -170q-23 50 -66 104.5t-122 59.5q-48 2 -96 -8l18 -62q39 8 54 8q50 -11 81.5 -101.5t50.5 -134.5l-252 -380h182z" />
    <glyph glyph-name="psi" unicode="&#x3c8;" 
d="M426 12v-188h166v188q107 21 175 114.5t71 231.5v180h-162v-172q1 -80 -16 -171.5t-68 -116.5v622h-166v-622q-62 36 -73 138t-7 158v164h-162v-180q2 -128 69 -223.5t173 -122.5z" />
    <glyph glyph-name="omega" unicode="&#x3c9;" 
d="M132 278q0 -112 58.5 -193.5t171.5 -84.5q82 -7 146 102q62 -112 148 -102q116 5 173 91t57 187q-3 117 -75 192t-181 78l-40 6l6 -72q65 -3 95.5 -58.5t30.5 -185.5q0 -74 -15 -122.5t-47 -49.5q-45 0 -56.5 62.5t-9.5 179.5q-1 39 2 78h-174q2 -33 2 -66
q2 -91 -4.5 -170t-51.5 -84q-47 5 -60.5 72t-11.5 130q-1 221 128 214l6 72l-44 -6q-102 -2 -176.5 -74t-77.5 -196z" />
    <glyph glyph-name="uni0401" unicode="&#x401;" 
d="M544 776h136v134h-136v-134zM362 776h138v134h-138v-134zM804 -2v78h-368v266h326v78h-326v226h350v78h-522v-726h540z" />
    <glyph glyph-name="uni0410" unicode="&#x410;" 
d="M358 -2l68 184h174l64 -184h184l-278 726h-116l-280 -726h184zM512 446l60 -186h-124z" />
    <glyph glyph-name="uni0411" unicode="&#x411;" 
d="M498 346q55 -1 92.5 -36.5t39.5 -93.5q-4 -148 -118 -146l-78 6v264zM262 -2l294 6q111 1 173 56t63 144q-2 94 -70.5 150t-183.5 58l-104 6v228h334v78h-506v-726z" />
    <glyph glyph-name="uni0412" unicode="&#x412;" 
d="M524 338q119 -1 128 -130q-8 -140 -118 -138l-104 6v256zM502 652q106 -6 114 -126q-2 -55 -31 -88.5t-67 -33.5l-88 6v236zM258 -2l314 6q123 1 181.5 54.5t58.5 139.5q-10 127 -136 176q105 57 100 156q-3 185 -224 188l-294 6v-726z" />
    <glyph glyph-name="uni0413" unicode="&#x413;" 
d="M474 -2v648h330v78h-500v-726h170z" />
    <glyph glyph-name="uni0414" unicode="&#x414;" 
d="M608 76l-220 -6q100 232 98 462v114h122v-570zM328 520q1 -97 -22 -205.5t-88 -244.5h-64l8 -216h154v144h382v-144h158l8 222h-86v648h-450v-204z" />
    <glyph glyph-name="uni0415" unicode="&#x415;" 
d="M804 -2v78h-368v266h326v78h-326v226h350v78h-522v-726h540z" />
    <glyph glyph-name="uni0416" unicode="&#x416;" 
d="M376 382l-360 -384h150l256 274v-274h176v270l252 -270h150l-360 384l356 342h-156l-242 -234v234h-176v-232l-234 232h-156z" />
    <glyph glyph-name="uni0417" unicode="&#x417;" 
d="M368 468l4 36q9 83 38 118t94 34q96 -3 102 -126q-3 -118 -80 -116l-124 6v-78l120 6q115 -4 116 -140q0 -133 -134 -142q-69 4 -102 60t-48 116l-10 32h-144l12 -52q28 -119 109 -171t183 -51q125 1 202 58.5t80 151.5q-1 122 -152 172q124 51 122 162
q-3 82 -72.5 129.5t-177.5 48.5q-153 -7 -212 -77.5t-66 -128.5l-8 -48h148z" />
    <glyph glyph-name="uni0418" unicode="&#x418;" 
d="M240 -2h102l278 416v-416h166v726h-90l-288 -428v428h-168v-726z" />
    <glyph glyph-name="uni0419" unicode="&#x419;" 
d="M450 912h-136l16 -46q22 -97 182 -104q174 6 198 112l14 38h-142l2 -30q-8 -49 -66 -52q-64 2 -70 52zM240 -2h102l278 416v-416h166v726h-90l-288 -428v428h-168v-726z" />
    <glyph glyph-name="uni041A" unicode="&#x41a;" 
d="M268 -2h168v268l260 -268h164l-370 388l352 338h-174l-232 -224v224h-168v-726z" />
    <glyph glyph-name="uni041B" unicode="&#x41b;" 
d="M324 724v-214q0 -199 -25.5 -318t-84.5 -122h-48v-66h48q268 5 270 508v134h138v-648h168v726h-466z" />
    <glyph glyph-name="uni041C" unicode="&#x41c;" 
d="M168 -2h166v366l144 -366h70l144 366v-366h166v726h-132l-214 -516l-222 516h-122v-726z" />
    <glyph glyph-name="uni041D" unicode="&#x41d;" 
d="M412 344h200v-346h172v726h-172v-302h-200v302h-172v-726h172v346z" />
    <glyph glyph-name="uni041E" unicode="&#x41e;" 
d="M852 360q-5 159 -103 258.5t-241 103.5q-149 -3 -240.5 -103t-93.5 -263q2 -160 92 -256t244 -98q159 3 249.5 101.5t92.5 256.5zM514 656q78 -4 123.5 -90.5t46.5 -207.5q-2 -294 -172 -290q-172 -1 -170 286q-1 118 41 207.5t131 94.5z" />
    <glyph glyph-name="uni041F" unicode="&#x41f;" 
d="M224 -2h170v648h228v-648h170v726h-568v-726z" />
    <glyph glyph-name="uni0420" unicode="&#x420;" 
d="M490 652q52 -2 87 -39t37 -95q-3 -52 -37 -91t-75 -41l-84 6v254zM248 -2h170v316l116 6q130 3 187.5 60.5t56.5 127.5q0 86 -62.5 146.5t-193.5 63.5l-274 6v-726z" />
    <glyph glyph-name="uni0421" unicode="&#x421;" 
d="M666 282l-6 -40q-14 -84 -44.5 -129t-101.5 -45q-67 2 -107 83t-41 217q6 280 144 288q70 -3 102 -54t40 -120l4 -34h164l-10 50q-38 212 -300 224q-145 -2 -229 -96.5t-85 -259.5q4 -355 314 -364q157 5 232 79t82 155l4 46h-162z" />
    <glyph glyph-name="uni0422" unicode="&#x422;" 
d="M424 646v-648h172v648h206v78h-576v-78h198z" />
    <glyph glyph-name="uni0423" unicode="&#x423;" 
d="M434 188q-9 -35 -27.5 -75t-36.5 -43q-18 0 -50 12l-48 16v-74l34 -10q45 -11 76 -10q133 -4 192 140l234 580h-166l-130 -332l-164 332h-176z" />
    <glyph glyph-name="uni0424" unicode="&#x424;" 
d="M596 576q57 -17 98.5 -69t43.5 -133q-8 -202 -142 -218v420zM428 156q-63 10 -99.5 65.5t-36.5 138.5q2 87 44 145.5t92 70.5v-420zM428 724v-82q-148 -19 -223 -100.5t-75 -189.5q2 -108 84.5 -179.5t213.5 -82.5v-92h168v92q155 19 230.5 101.5t75.5 168.5
q-4 121 -92 195.5t-214 86.5v82h-168z" />
    <glyph glyph-name="uni0425" unicode="&#x425;" 
d="M656 -2h188l-238 376l220 350h-178l-132 -206l-130 206h-188l224 -354l-240 -372h188l144 226z" />
    <glyph glyph-name="uni0426" unicode="&#x426;" 
d="M206 -2h480v-126h158l6 204h-100v648h-170v-648h-204v648h-170v-726z" />
    <glyph glyph-name="uni0427" unicode="&#x427;" 
d="M264 504q2 -112 72 -153.5t182 -38.5q47 -1 76 4v-318h162v726h-162v-328q-21 -10 -74 -8q-102 -12 -102 114v222h-154v-220z" />
    <glyph glyph-name="uni0428" unicode="&#x428;" 
d="M920 -2v726h-166v-648h-154v648h-170v-648h-150v648h-168v-726h808z" />
    <glyph glyph-name="uni0429" unicode="&#x429;" 
d="M812 -2v-126h156l10 204h-102v648h-168v-648h-158v648h-170v-648h-158v648h-166v-726h756z" />
    <glyph glyph-name="uni042A" unicode="&#x42a;" 
d="M488 434v290h-330v-78h158v-648l290 6q115 2 185.5 61.5t72.5 146.5q-3 102 -77 158.5t-193 57.5zM488 76v280l80 6q56 -1 94 -39.5t40 -106.5q-11 -148 -126 -146z" />
    <glyph glyph-name="uni042B" unicode="&#x42b;" 
d="M316 76v272l70 6q51 -1 86.5 -42.5t37.5 -113.5q-2 -52 -34.5 -89.5t-79.5 -38.5zM154 -2l266 6q117 2 181 58.5t65 137.5q-4 109 -76.5 164t-177.5 56l-96 6v298h-162v-726zM714 724v-726h158v726h-158z" />
    <glyph glyph-name="uni042C" unicode="&#x42c;" 
d="M424 76v272l90 6q51 -1 86.5 -42.5t37.5 -113.5q-2 -52 -34.5 -89.5t-79.5 -38.5zM252 -2l286 6q132 2 198.5 58.5t67.5 137.5q-3 109 -79 164t-195 56l-106 6v298h-172v-726z" />
    <glyph glyph-name="uni042D" unicode="&#x42d;" 
d="M354 474l8 30q21 156 148 156q127 9 134 -254l-284 6v-78l284 6q-3 -278 -132 -274q-67 1 -103.5 50.5t-54.5 123.5l-10 36h-166l14 -54q17 -80 94 -149t226 -73q135 0 217 97t85 285q-5 177 -97 260.5t-211 83.5q-253 -8 -310 -196l-18 -56h176z" />
    <glyph glyph-name="uni042E" unicode="&#x42e;" 
d="M256 348h32q21 -184 109 -267.5t221 -82.5q159 4 238.5 111.5t79.5 266.5q-5 155 -102 252t-232 100q-132 -4 -213 -94.5t-99 -219.5h-34v310h-160v-726h160v350zM604 662q80 -3 127 -84.5t49 -205.5q0 -313 -164 -308q-177 5 -180 296q-1 125 40 211.5t128 90.5z" />
    <glyph glyph-name="uni042F" unicode="&#x42f;" 
d="M594 646v-276l-88 -6q-59 1 -85 39.5t-25 90.5q4 151 114 158zM388 -2l150 294h56v-294h170v726l-282 -6q-117 -3 -182 -66t-66 -158q3 -73 48.5 -120.5t85.5 -59.5l-164 -316h184z" />
    <glyph glyph-name="uni0430" unicode="&#x430;" 
d="M470 324q-97 -2 -151.5 -47t-54.5 -115q1 -76 55 -119.5t137 -44.5q115 4 156 62q29 -61 134 -56h28v66h-26q-40 0 -40 54q1 123 2 240q-2 107 -59 148t-147 40q-118 -5 -174.5 -61t-59.5 -105l-2 -28h152l2 20q12 115 88 108q57 7 60 -88q0 -47 -22 -61.5t-78 -12.5z
M570 150q-2 -31 -31.5 -58t-68.5 -28q-56 8 -60 92t76 102q49 8 84 14v-122z" />
    <glyph glyph-name="uni0431" unicode="&#x431;" 
d="M412 250q3 193 100 194q104 -2 100 -192q-2 -97 -31 -142t-67 -44q-93 2 -102 184zM618 744q-28 -28 -97 -37.5t-123 -36.5q-130 -67 -134 -368q1 -141 69 -221t181 -81q128 3 186 81t58 193q-4 237 -236 244q-57 -1 -104 -34q20 76 56 86q50 22 100 27t106 31
q59 28 64 116h-126z" />
    <glyph glyph-name="uni0432" unicode="&#x432;" 
d="M492 246q84 -3 90 -86q4 -87 -94 -90l-38 6v164zM496 476q69 -1 72 -80q2 -86 -76 -84l-42 6v152zM290 -2l252 6q89 1 139 41.5t51 96.5q-7 108 -116 138q107 49 100 134q-2 59 -51 93t-127 35l-248 6v-550z" />
    <glyph glyph-name="uni0433" unicode="&#x433;" 
d="M484 470h242v78h-400v-550h158v472z" />
    <glyph glyph-name="uni0434" unicode="&#x434;" 
d="M432 70q33 90 46.5 171t13.5 133v96h94v-394zM346 376q1 -132 -66 -306h-66l8 -184h146v112h302v-112h144l8 190h-74v472h-402v-172z" />
    <glyph glyph-name="uni0435" unicode="&#x435;" 
d="M414 246h338q-5 171 -77 239.5t-163 66.5q-104 -2 -175.5 -77.5t-74.5 -202.5q1 -123 68 -197.5t184 -76.5q114 2 170 44t62 96l6 46h-152l-4 -32q-3 -27 -20.5 -56.5t-61.5 -31.5q-46 2 -73 53.5t-27 128.5zM414 312q3 169 96 174q84 6 82 -174h-178z" />
    <glyph glyph-name="uni0436" unicode="&#x436;" 
d="M378 286l-268 -288h148l176 190v-190h158v192l180 -192h144l-268 290l258 260h-144l-170 -170v170h-158v-168l-170 168h-154z" />
    <glyph glyph-name="uni0437" unicode="&#x437;" 
d="M430 366l2 20q24 103 70 96q46 0 54 -80q-2 -85 -54 -86h-66v-66h66q66 -2 72 -88q-3 -86 -62 -96q-28 0 -54 28.5t-32 73.5l-2 24h-150l4 -34q30 -160 234 -158q112 1 166 44t54 110q0 93 -120 130q93 41 94 124q0 57 -49.5 97.5t-148.5 42.5q-186 -2 -222 -148l-8 -34
h152z" />
    <glyph glyph-name="uni0438" unicode="&#x438;" 
d="M378 -2l198 294v-294h162v550h-96l-204 -296v296h-160v-550h100z" />
    <glyph glyph-name="uni0439" unicode="&#x439;" 
d="M444 782h-124l10 -46q22 -97 182 -104q174 6 198 112l8 38h-130l-4 -30q-8 -49 -66 -52q-64 2 -70 52zM378 -2l198 294v-294h162v550h-96l-204 -296v296h-160v-550h100z" />
    <glyph glyph-name="uni043A" unicode="&#x43a;" 
d="M308 -2h160v180l178 -180h156l-286 284l260 266h-156l-152 -162v162h-160v-550z" />
    <glyph glyph-name="uni043B" unicode="&#x43b;" 
d="M344 410q-1 -177 -20.5 -257t-55.5 -81l-38 -2v-66h42q213 -1 220 406v60h84v-472h158v550h-390v-138z" />
    <glyph glyph-name="uni043C" unicode="&#x43c;" 
d="M378 -2v238l102 -238h62l94 224v-224h156v550h-108l-172 -376l-178 376h-114v-550h158z" />
    <glyph glyph-name="uni043D" unicode="&#x43d;" 
d="M288 -2h160v250h132v-250h158v550h-158v-222h-132v222h-160v-550z" />
    <glyph glyph-name="uni043E" unicode="&#x43e;" 
d="M764 276q-2 123 -71 195.5t-181 74.5q-114 -3 -178.5 -77.5t-65.5 -196.5q0 -126 63.5 -197.5t178.5 -72.5q126 1 189.5 75.5t64.5 198.5zM518 478q88 6 92 -204q-5 -213 -96 -206q-88 -11 -92 204q3 208 96 206z" />
    <glyph glyph-name="uni043F" unicode="&#x43f;" 
d="M286 -2h162v472h126v-472h162v550h-450v-550z" />
    <glyph glyph-name="uni0440" unicode="&#x440;" 
d="M618 268q-7 -208 -88 -202q-89 -10 -94 200q6 208 94 216q83 4 88 -214zM430 478v70h-154v-700h152v196q17 -29 47 -37t57 -7q119 2 176.5 80t57.5 202q-3 133 -64 199.5t-154 66.5q-110 -5 -118 -70z" />
    <glyph glyph-name="uni0441" unicode="&#x441;" 
d="M600 220l-4 -32q-13 -75 -35.5 -99.5t-52.5 -22.5q-77 -3 -88 204q-5 220 90 216q64 5 80 -112l2 -28h150l-6 50q-14 76 -78 115.5t-142 40.5q-107 -2 -178.5 -74t-73.5 -202q1 -124 67.5 -199t176.5 -77q80 -1 150 37.5t86 130.5l6 52h-150z" />
    <glyph glyph-name="uni0442" unicode="&#x442;" 
d="M274 470h154v-472h162v472h156v78h-472v-78z" />
    <glyph glyph-name="uni0443" unicode="&#x443;" 
d="M438 32q-9 -27 -26 -66t-32 -44q-19 -1 -40 4l-32 12v-70l32 -8q39 -7 78 -6q28 -2 62 14q30 20 52 51.5t32 56.5l196 516l22 56h-156l-118 -318l-142 318h-158z" />
    <glyph glyph-name="uni0444" unicode="&#x444;" 
d="M584 470q5 17 46 16q67 -3 72 -204q1 -94 -15 -155t-67 -63q-20 -4 -36 14v392zM438 544q-11 8 -42 8q-107 -3 -167 -81.5t-61 -204.5q2 -133 67.5 -200t160.5 -68q19 -1 42 6v-154h146v154q15 -7 46 -6q109 4 166 87t58 187q-3 134 -66 206.5t-158 73.5q-34 0 -46 -8
v180h-146v-180zM438 78q-6 -15 -42 -14q-76 -2 -76 198q1 130 24 178t52 46q27 3 42 -18v-390z" />
    <glyph glyph-name="uni0445" unicode="&#x445;" 
d="M398 -2l114 162l114 -162h160l-198 274l194 276h-156l-112 -166l-110 166h-156l190 -278l-204 -272h164z" />
    <glyph glyph-name="uni0446" unicode="&#x446;" 
d="M250 -2h390v-110h148l10 188h-78v472h-160v-472h-150v472h-160v-550z" />
    <glyph glyph-name="uni0447" unicode="&#x447;" 
d="M284 404q0 -97 59.5 -136.5t168.5 -37.5h30v-232h160v550h-160v-252h-32q-80 -7 -78 82v170h-148v-144z" />
    <glyph glyph-name="uni0448" unicode="&#x448;" 
d="M170 -2h678v550h-154v-472h-108v472h-154v-472h-108v472h-154v-550z" />
    <glyph glyph-name="uni0449" unicode="&#x449;" 
d="M746 -2v-100h148l8 178h-84v472h-156v-472h-108v472h-156v-472h-110v472h-154v-550h612z" />
    <glyph glyph-name="uni044A" unicode="&#x44a;" 
d="M540 284q101 3 106 -108q1 -101 -94 -106h-52v214h40zM338 470v-466h266q82 1 135 46.5t55 123.5q-3 84 -60 129.5t-134 46.5h-100v198h-272v-78h110z" />
    <glyph glyph-name="uni044B" unicode="&#x44b;" 
d="M836 -2v550h-148v-550h148zM408 274q84 -4 84 -104q4 -97 -88 -100h-46v204h50zM200 4h232q90 1 148.5 47t61.5 117q-5 164 -204 172h-80v208h-158v-544z" />
    <glyph glyph-name="uni044C" unicode="&#x44c;" 
d="M304 4h222q90 1 148.5 47t61.5 117q-5 164 -204 172h-70v208h-158v-544zM512 274q71 -4 74 -104q1 -97 -78 -100h-46v204h50z" />
    <glyph glyph-name="uni044D" unicode="&#x44d;" 
d="M414 352l6 22q19 102 86 106q85 1 84 -168h-162v-66h162q-1 -191 -82 -180q-46 1 -67.5 34t-24.5 80l-2 24h-144l2 -30q4 -68 56.5 -120t177.5 -54q118 2 178.5 79.5t61.5 200.5q-4 140 -75 203.5t-167 62.5q-90 -1 -155 -44t-79 -118l-4 -32h148z" />
    <glyph glyph-name="uni044E" unicode="&#x44e;" 
d="M328 256h32q10 -120 75.5 -188t168.5 -70q129 2 197 78t69 196q-4 143 -81.5 210.5t-182.5 67.5q-212 -8 -244 -228h-34v226h-158v-550h158v258zM600 484q53 1 86 -47.5t34 -160.5q-4 -216 -110 -212q-98 -3 -108 220q-4 200 98 200z" />
    <glyph glyph-name="uni044F" unicode="&#x44f;" 
d="M564 476v-198h-50q-75 1 -80 98q4 93 80 100h50zM464 542q-89 -2 -134.5 -50.5t-45.5 -119.5q1 -53 28.5 -92t61.5 -52l-134 -230h184l110 208h30v-208h158v544h-258z" />
    <glyph glyph-name="uni0451" unicode="&#x451;" 
d="M474 754h-122v-120h122v120zM666 754h-124v-120h124v120zM414 246h338q-5 171 -77 239.5t-163 66.5q-104 -2 -175.5 -77.5t-74.5 -202.5q1 -123 68 -197.5t184 -76.5q114 2 170 44t62 96l6 46h-152l-4 -32q-3 -27 -20.5 -56.5t-61.5 -31.5q-46 2 -73 53.5t-27 128.5z
M414 312q3 169 96 174q84 6 82 -174h-178z" />
    <glyph glyph-name="emdash" unicode="&#x2014;" 
d="M996 396h-962v-78h962v78z" />
    <glyph glyph-name="uni2016" unicode="&#x2016;" 
d="M472 -110v940h-176v-940h176zM722 -110v940h-176v-940h176z" />
    <glyph glyph-name="quoteleft" unicode="&#x2018;" 
d="M716 672v-124h186v136h-34l50 110h-140z" />
    <glyph glyph-name="quoteright" unicode="&#x2019;" 
d="M314 672v122h-184v-134h34l-50 -110h138z" />
    <glyph glyph-name="quotedblleft" unicode="&#x201c;" 
d="M756 672v-124h186v136h-34l50 110h-140zM532 672v-124h186v136h-34l50 110h-140z" />
    <glyph glyph-name="quotedblright" unicode="&#x201d;" 
d="M250 672v122h-182v-134h34l-50 -110h136zM472 672v122h-184v-134h34l-50 -110h138z" />
    <glyph glyph-name="ellipsis" unicode="&#x2026;" 
d="M600 450h-192v-150h192v150zM940 450h-192v-150h192v150zM274 450h-194v-150h194v150z" />
    <glyph glyph-name="perthousand" unicode="&#x2030;" 
d="M668 792h-138l-484 -830h136zM290 366v394h-274v-394h274zM136 444v238h34v-238h-34zM700 -4v394h-274v-394h274zM546 74v238h34v-238h-34zM1008 -4v394h-274v-394h274zM854 74v238h34v-238h-34z" />
    <glyph glyph-name="minute" unicode="&#x2032;" 
d="M180 474l14 26l110 236l30 66h-190l-8 -36l-62 -292h106z" />
    <glyph glyph-name="second" unicode="&#x2033;" 
d="M398 474l14 26l110 236l30 66h-190l-8 -36l-62 -292h106zM180 474l14 26l110 236l30 66h-190l-8 -36l-62 -292h106z" />
    <glyph glyph-name="uni203B" unicode="&#x203b;" 
d="M780 448q-73 -5 -76 -76q6 -68 72 -76q69 5 76 76q-6 69 -72 76zM164 48q-1 -26 14 -26t18 2l320 312l320 -312q22 -1 21.5 14t-1.5 18l-304 316l300 312q11 20 4 28q-19 16 -20 8l-320 -312l-312 300q-13 10 -22.5 5.5t-9.5 -5.5q-2 -23 8 -28l296 -308zM248 448
q-73 -5 -76 -76q6 -68 72 -76q69 5 76 76q-6 69 -72 76zM516 172q-73 -5 -76 -76q6 -68 72 -76q69 5 76 76q-6 69 -72 76zM516 724q-73 -5 -76 -76q6 -68 72 -76q69 5 76 76q-6 69 -72 76z" />
    <glyph glyph-name="Euro" unicode="&#x20ac;" 
d="M364 236h274l38 78h-312v120h274l38 78h-312v166h398v78h-594v-244h-74l-38 -78h112v-120h-74l-38 -78h112v-238h594v78h-398v160z" />
    <glyph glyph-name="uni2103" unicode="&#x2103;" 
d="M990 -2v78h-398v602h398v78h-594v-758h594zM170 618v126h56v-126h-56zM56 540h284v282h-284v-282z" />
    <glyph glyph-name="uni2116" unicode="&#x2116;" 
d="M970 76h-340v-78h340v78zM966 146v414h-330v-414h330zM788 224v258h28v-258h-28zM598 -2v758h-176v-406l-220 406h-140v-758h176v468l254 -468h106z" />
    <glyph glyph-name="uni2160" unicode="&#x2160;" 
d="M408 756v-758h196v758h-196z" />
    <glyph glyph-name="uni2161" unicode="&#x2161;" 
d="M312 756v-758h176v758h-176zM538 756v-758h176v758h-176z" />
    <glyph glyph-name="uni2162" unicode="&#x2162;" 
d="M196 756v-758h176v758h-176zM422 756v-758h176v758h-176zM648 756v-758h176v758h-176z" />
    <glyph glyph-name="uni2163" unicode="&#x2163;" 
d="M126 756v-758h176v758h-176zM912 756h-176l-112 -408l-116 408h-176l222 -758h142z" />
    <glyph glyph-name="uni2164" unicode="&#x2164;" 
d="M844 756h-182l-154 -438l-150 438h-184l262 -758h142z" />
    <glyph glyph-name="uni2165" unicode="&#x2165;" 
d="M692 756h-168l-118 -442l-124 442h-170l222 -758h142zM726 756v-758h176v758h-176z" />
    <glyph glyph-name="uni2166" unicode="&#x2166;" 
d="M604 756h-148l-138 -484l-144 484h-150l222 -758h142zM622 756v-758h156v758h-156zM820 756v-758h156v758h-156z" />
    <glyph glyph-name="uni2167" unicode="&#x2167;" 
d="M478 756h-144l-94 -474l-96 474h-146l174 -758h136zM854 756v-758h148v758h-148zM672 756v-758h148v758h-148zM486 756v-758h148v758h-148z" />
    <glyph glyph-name="uni2168" unicode="&#x2168;" 
d="M124 756v-758h176v758h-176zM356 756l186 -384l-186 -374h176l98 196l96 -196h178l-184 376l192 382h-178l-102 -202l-98 202h-178z" />
    <glyph glyph-name="uni2169" unicode="&#x2169;" 
d="M386 756h-202l224 -356l-256 -402h202l154 242l152 -242h202l-252 402l226 356h-202l-124 -196z" />
    <glyph glyph-name="uni216A" unicode="&#x216a;" 
d="M718 756v-758h176v758h-176zM124 756l186 -384l-186 -374h176l98 196l96 -196h178l-184 376l192 382h-178l-102 -202l-98 202h-178z" />
    <glyph glyph-name="uni216B" unicode="&#x216b;" 
d="M22 756l198 -382l-198 -376h156l118 226l116 -226h158l-194 376l202 382h-158l-120 -232l-120 232h-158zM600 756v-758h156v758h-156zM814 756v-758h156v758h-156z" />
    <glyph glyph-name="uni2170" unicode="&#x2170;" 
d="M590 644v124h-164v-124h164zM590 554v-556h-164v556h164z" />
    <glyph glyph-name="uni2171" unicode="&#x2171;" 
d="M714 644v124h-166v-124h166zM474 644v124h-166v-124h166zM308 554v-556h166v556h-166zM548 554v-556h166v556h-166z" />
    <glyph glyph-name="uni2172" unicode="&#x2172;" 
d="M428 554v-556h166v556h-166zM594 644v124h-166v-124h166zM370 644v124h-166v-124h166zM204 554v-556h166v556h-166zM818 644v124h-166v-124h166zM652 554v-556h166v556h-166z" />
    <glyph glyph-name="uni2173" unicode="&#x2173;" 
d="M732 26l208 528h-172l-122 -336l-120 336h-176l208 -528l12 -28h150zM158 554v-556h166v556h-166zM324 644v124h-166v-124h166z" />
    <glyph glyph-name="uni2174" unicode="&#x2174;" 
d="M806 554h-182l-114 -296l-108 296h-186l220 -556h150z" />
    <glyph glyph-name="uni2175" unicode="&#x2175;" 
d="M674 554h-172l-122 -322l-120 322h-176l220 -556h150zM702 554v-556h166v556h-166zM868 644v124h-166v-124h166z" />
    <glyph glyph-name="uni2176" unicode="&#x2176;" 
d="M572 554h-166l-108 -302l-106 302h-168l198 -556h152zM600 554v-556h156v556h-156zM820 554v-556h156v556h-156zM976 644v124h-156v-124h156zM756 644v124h-156v-124h156z" />
    <glyph glyph-name="uni2177" unicode="&#x2177;" 
d="M464 554v-556h144v556h-144zM608 644v124h-144v-124h144zM806 644v124h-144v-124h144zM662 554v-556h144v556h-144zM860 554v-556h142v556h-142zM1002 644v124h-142v-124h142zM454 554h-150l-76 -332l-76 332h-152l156 -556h144z" />
    <glyph glyph-name="uni2178" unicode="&#x2178;" 
d="M206 554v-556h166v556h-166zM372 644v124h-166v-124h166zM904 -2l-164 278l168 278h-176l-78 -130l-76 130h-176l162 -278l-170 -278h178l78 130l76 -130h178z" />
    <glyph glyph-name="uni2179" unicode="&#x2179;" 
d="M820 554h-200l-106 -142l-104 142h-204l206 -280l-204 -276h204l102 140l104 -140h200l-204 276z" />
    <glyph glyph-name="arrowleft" unicode="&#x2190;" 
d="M1026 374l-842 -6q52 64 66.5 122t13.5 62q-90 -105 -174 -153t-90 -47q116 -49 188.5 -119t75.5 -77q-8 66 -42 121t-38 59l842 -6v44z" />
    <glyph glyph-name="arrowup" unicode="&#x2191;" 
d="M534 -144l-6 836q58 -55 116.5 -69t63.5 -11q-107 87 -152.5 172t-43.5 92q-55 -125 -124.5 -194t-75.5 -70q69 5 123 40t57 40l-6 -836h48z" />
    <glyph glyph-name="arrowright" unicode="&#x2192;" 
d="M-6 374v-44l846 6q-63 -77 -73.5 -128t-6.5 -52q82 101 169 148.5t95 47.5q-119 51 -191 122t-73 78q7 -88 41 -136t39 -48z" />
    <glyph glyph-name="arrowdown" unicode="&#x2193;" 
d="M534 880h-48l6 -846q-75 57 -126.5 67.5t-53.5 8.5q101 -76 150.5 -159.5t49.5 -90.5q43 109 115.5 178t80.5 72q-83 -8 -131 -40t-49 -36z" />
    <glyph glyph-name="element" unicode="&#x2208;" 
d="M844 50h-304q-92 4 -127 87.5t-33 192.5h464v76h-464q-1 122 41.5 199.5t134.5 80.5h288v66h-310q-170 -3 -258 -100t-88 -264v-44q-1 -153 82.5 -254.5t253.5 -105.5h320v66z" />
    <glyph glyph-name="product" unicode="&#x220f;" 
d="M180 704v-752h194v752h262v-752h192v752h78v78h-804v-78h78z" />
    <glyph glyph-name="summation" unicode="&#x2211;" 
d="M842 774h-682l286 -408l-314 -390h740v78h-456l254 310l-234 332h406v78z" />
    <glyph glyph-name="radical" unicode="&#x221a;" 
d="M490 164l-244 456l-260 -132l22 -78l108 62l316 -590h72l526 896v96h-120z" />
    <glyph glyph-name="proportional" unicode="&#x221d;" 
d="M536 242q57 -73 180 -70q74 -1 146 20v32v36q-80 -26 -130 -22q-56 4 -75 50.5t-17 77.5q0 49 26.5 85.5t71.5 38.5q57 1 124 -30v72q-73 25 -148 24q-137 -3 -178 -66q-80 73 -178 66q-98 -2 -153.5 -55.5t-56.5 -138.5q4 -109 69.5 -150.5t144.5 -39.5q127 6 174 70z
M394 238q-98 6 -94 132q2 111 92 120q31 1 63 -24t35 -92v-12q-3 -73 -33.5 -99.5t-62.5 -24.5z" />
    <glyph glyph-name="infinity" unicode="&#x221e;" 
d="M708 170q66 -2 125 40.5t63 149.5q-1 88 -54 140t-146 54q-116 -8 -172 -72q-61 71 -170 74q-106 -2 -159 -57t-53 -139q1 -98 59.5 -144.5t150.5 -45.5q119 4 172 78q90 -87 184 -78zM350 238q-77 7 -78 128q-1 48 21.5 85t70.5 39q70 -8 86 -124q-14 -87 -43 -109.5
t-57 -18.5zM690 238q-29 -4 -58 18.5t-42 109.5q16 116 86 124q47 -2 67.5 -39t20.5 -85q0 -121 -74 -128z" />
    <glyph glyph-name="angle" unicode="&#x2220;" 
d="M66 -2h840v78h-542l456 568l-138 112z" />
    <glyph glyph-name="uni2225" unicode="&#x2225;" 
d="M278 -86l328 922h-180l-328 -922h180zM568 -86l328 922h-180l-328 -922h180z" />
    <glyph glyph-name="logicaland" unicode="&#x2227;" 
d="M898 -22l-314 800h-136l-328 -800h196l198 506l190 -506h194z" />
    <glyph glyph-name="logicalor" unicode="&#x2228;" 
d="M898 778h-194l-190 -506l-198 506h-196l328 -800h136z" />
    <glyph glyph-name="intersection" unicode="&#x2229;" 
d="M514 696q137 8 134 -178v-552h180v490q-8 179 -111 244t-213 62q-110 3 -212.5 -62.5t-109.5 -235.5v-498h182v566q-4 77 22 120t128 44z" />
    <glyph glyph-name="union" unicode="&#x222a;" 
d="M514 32q-102 0 -128 43t-22 121v566h-182v-498q7 -171 109.5 -236t212.5 -62q110 -3 213 61.5t111 244.5v490h-180v-552q3 -187 -134 -178z" />
    <glyph glyph-name="integral" unicode="&#x222b;" 
d="M418 242q-5 -283 -34 -236q-20 34 -42 32q-56 -5 -52 -58q5 -59 70 -62q78 0 118 24q62 49 78 141t16 153q1 158 -6 310q-2 48 6.5 119t25.5 37q20 -43 40 -38q60 3 58 52q-2 41 -28 55.5t-54 14.5q-129 -7 -169 -84.5t-33 -149.5q6 -155 6 -310z" />
    <glyph glyph-name="uni222E" unicode="&#x222e;" 
d="M418 260q-58 26 -64 104q6 79 60 108q3 -105 4 -212zM414 562q-137 -42 -142 -200q5 -150 146 -192q-10 -206 -34 -164q-20 34 -42 32q-56 -5 -52 -58q9 -58 82 -62q69 -2 106 20q47 36 66.5 100.5t23.5 127.5q70 16 112 70.5t44 125.5q-1 76 -43.5 132.5t-114.5 73.5
q1 54 9 110t23 24q20 -43 40 -38q60 1 58 62q-2 33 -33 46.5t-73 13.5q-107 -6 -143.5 -78.5t-32.5 -145.5zM570 474q57 -30 64 -110q-7 -72 -62 -102q2 107 -2 212z" />
    <glyph glyph-name="therefore" unicode="&#x2234;" 
d="M418 452h194v152h-194v-152zM226 130h192v150h-192v-150zM610 130h192v150h-192v-150z" />
    <glyph glyph-name="uni2235" unicode="&#x2235;" 
d="M224 452h192v152h-192v-152zM608 452h192v152h-192v-152zM416 130h194v150h-194v-150z" />
    <glyph glyph-name="uni2236" unicode="&#x2236;" 
d="M600 224h-178v-132h178v132zM600 648h-178v-130h178v130z" />
    <glyph glyph-name="uni2237" unicode="&#x2237;" 
d="M608 478h192v150h-192v-150zM224 478h192v150h-192v-150zM224 110h192v152h-192v-152zM608 110h192v152h-192v-152z" />
    <glyph glyph-name="uni223D" unicode="&#x223d;" 
d="M904 202q-20 218 -94 275t-132 49q-54 -2 -100.5 -36.5t-88 -80t-81 -80t-80.5 -35.5q-94 -9 -118 216h-110q18 -189 82 -254t150 -60q64 1 114.5 35t91 78.5t76.5 78.5t74 36q54 -4 77.5 -71.5t28.5 -150.5h110z" />
    <glyph glyph-name="approxequal" unicode="&#x2248;" 
d="M836 580q-93 -81 -168 -74q-85 5 -163.5 40.5t-162.5 41.5q-58 -3 -100.5 -26.5t-67.5 -43.5v-112q31 27 74 50.5t98 25.5q71 -6 154.5 -41.5t171.5 -40.5q53 1 97 22t67 44v114zM836 360q-93 -81 -168 -74q-85 5 -163.5 40.5t-162.5 41.5q-58 -3 -100.5 -26.5
t-67.5 -43.5v-112q31 27 74 50.5t98 25.5q71 -6 154.5 -41.5t171.5 -40.5q53 1 97 22t67 44v114z" />
    <glyph glyph-name="uni224C" unicode="&#x224c;" 
d="M928 386q-20 218 -94 275t-132 49q-54 -2 -100.5 -36.5t-88 -80t-81 -80t-80.5 -35.5q-94 -9 -118 216h-110q18 -189 82 -254t150 -60q64 1 114.5 35t91 78.5t76.5 78.5t74 36q54 -4 77.5 -71.5t28.5 -150.5h110zM938 222v94h-816v-94h816zM938 70v94h-816v-94h816z" />
    <glyph glyph-name="notequal" unicode="&#x2260;" 
d="M858 450v78h-140l142 192h-206l-142 -192h-348v-78h292l-98 -130h-194v-78h138l-164 -222h206l164 222h350v78h-294l98 130h196z" />
    <glyph glyph-name="equivalence" unicode="&#x2261;" 
d="M838 498v94h-688v-94h688zM838 316v94h-688v-94h688zM838 132v94h-688v-94h688z" />
    <glyph glyph-name="lessequal" unicode="&#x2264;" 
d="M852 324l-534 148l534 150v126l-704 -196v-162l704 -194v128zM852 116l-704 194v-126l704 -186v118z" />
    <glyph glyph-name="greaterequal" unicode="&#x2265;" 
d="M148 324v-128l704 194v162l-704 196v-126l534 -150zM148 116v-118l704 186v126z" />
    <glyph glyph-name="uni226E" unicode="&#x226e;" 
d="M844 156l-276 116l100 234l176 88v132l-104 -48l40 92h-188l-70 -170l-370 -152v-146l204 -88l-94 -218h186l70 162l326 -136v134zM458 448l-50 -118l-106 50z" />
    <glyph glyph-name="uni226F" unicode="&#x226f;" 
d="M164 156v-134l326 136l70 -162h186l-94 218l204 88v146l-370 152l-70 170h-188l40 -92l-104 48v-132l176 -88l100 -234zM550 448l156 -68l-106 -50z" />
    <glyph glyph-name="uni2299" unicode="&#x2299;" 
d="M432 370q4 -74 86 -78q72 7 78 78q-4 76 -80 84q-81 -5 -84 -84zM878 370q-3 150 -101 254.5t-263 109.5q-169 -5 -267.5 -110.5t-100.5 -253.5q1 -160 96.5 -259.5t271.5 -102.5q159 2 259.5 98.5t104.5 263.5zM276 370q2 106 68 170t172 66q101 -3 166 -68.5t68 -167.5
q-4 -118 -73.5 -178t-162.5 -60q-105 1 -170.5 65t-67.5 173z" />
    <glyph glyph-name="perpendicular" unicode="&#x22a5;" 
d="M420 54h-224v-78h642v78h-222v722h-196v-722z" />
    <glyph glyph-name="uni2312" unicode="&#x2312;" 
d="M182 172q47 140 124.5 223t203.5 85q101 -2 186 -84.5t138 -223.5h118q-86 224 -208.5 301.5t-243.5 72.5q-126 3 -238 -81t-202 -293h122z" />
    <glyph glyph-name="uni2460" unicode="&#x2460;" 
d="M590 14v704h-238v-78h76v-626h162zM512 800q195 -4 314.5 -125t123.5 -313q-4 -186 -125 -305.5t-313 -124.5q-179 1 -305 111.5t-131 318.5q5 205 130.5 320.5t305.5 117.5zM512 862q-200 -2 -345.5 -132t-152.5 -368q6 -240 148.5 -365.5t349.5 -126.5q213 4 353.5 136
t146.5 356q-4 212 -140 353t-360 147z" />
    <glyph glyph-name="uni2461" unicode="&#x2461;" 
d="M750 14v78h-312v238h312v384h-478v-78h306v-228h-312v-394h484zM512 800q195 -4 314.5 -125t123.5 -313q-4 -186 -125 -305.5t-313 -124.5q-179 1 -305 111.5t-131 318.5q5 205 130.5 320.5t305.5 117.5zM512 862q-200 -2 -345.5 -132t-152.5 -368q6 -240 148.5 -365.5
t349.5 -126.5q213 4 353.5 136t146.5 356q-4 212 -140 353t-360 147z" />
    <glyph glyph-name="uni2462" unicode="&#x2462;" 
d="M750 14v700h-484v-78h312v-228h-272v-78h272v-238h-312v-78h484zM512 800q195 -4 314.5 -125t123.5 -313q-4 -186 -125 -305.5t-313 -124.5q-179 1 -305 111.5t-131 318.5q5 205 130.5 320.5t305.5 117.5zM512 862q-200 -2 -345.5 -132t-152.5 -368q6 -240 148.5 -365.5
t349.5 -126.5q213 4 353.5 136t146.5 356q-4 212 -140 353t-360 147z" />
    <glyph glyph-name="uni2463" unicode="&#x2463;" 
d="M750 14v704h-174v-408h-138v408h-172v-486h310v-218h174zM512 800q195 -4 314.5 -125t123.5 -313q-4 -186 -125 -305.5t-313 -124.5q-179 1 -305 111.5t-131 318.5q5 205 130.5 320.5t305.5 117.5zM512 862q-200 -2 -345.5 -132t-152.5 -368q6 -240 148.5 -365.5
t349.5 -126.5q213 4 353.5 136t146.5 356q-4 212 -140 353t-360 147z" />
    <glyph glyph-name="uni2464" unicode="&#x2464;" 
d="M578 328v-236h-312v-78h484v392h-312v230h312v78h-484v-386h312zM512 800q195 -4 314.5 -125t123.5 -313q-4 -186 -125 -305.5t-313 -124.5q-179 1 -305 111.5t-131 318.5q5 205 130.5 320.5t305.5 117.5zM512 862q-200 -2 -345.5 -132t-152.5 -368q6 -240 148.5 -365.5
t349.5 -126.5q213 4 353.5 136t146.5 356q-4 212 -140 353t-360 147z" />
    <glyph glyph-name="uni2465" unicode="&#x2465;" 
d="M426 80h164v272h-164v-272zM426 406h312v-380h-460v676h460v-54h-312v-242zM512 800q195 -4 314.5 -125t123.5 -313q-4 -186 -125 -305.5t-313 -124.5q-179 1 -305 111.5t-131 318.5q5 205 130.5 320.5t305.5 117.5zM512 862q-200 -2 -345.5 -132t-152.5 -368
q6 -240 148.5 -365.5t349.5 -126.5q213 4 353.5 136t146.5 356q-4 212 -140 353t-360 147z" />
    <glyph glyph-name="uni2466" unicode="&#x2466;" 
d="M778 714h-512v-78h294l-274 -622h188zM512 800q195 -4 314.5 -125t123.5 -313q-4 -186 -125 -305.5t-313 -124.5q-179 1 -305 111.5t-131 318.5q5 205 130.5 320.5t305.5 117.5zM512 862q-200 -2 -345.5 -132t-152.5 -368q6 -240 148.5 -365.5t349.5 -126.5
q213 4 353.5 136t146.5 356q-4 212 -140 353t-360 147z" />
    <glyph glyph-name="uni2467" unicode="&#x2467;" 
d="M438 92v240h140v-240h-140zM578 410h-140v230h140v-230zM752 14v704h-490v-704h490zM512 800q195 -4 314.5 -125t123.5 -313q-4 -186 -125 -305.5t-313 -124.5q-179 1 -305 111.5t-131 318.5q5 205 130.5 320.5t305.5 117.5zM512 862q-200 -2 -345.5 -132t-152.5 -368
q6 -240 148.5 -365.5t349.5 -126.5q213 4 353.5 136t146.5 356q-4 212 -140 353t-360 147z" />
    <glyph glyph-name="uni2468" unicode="&#x2468;" 
d="M750 14v700h-488v-418h316v-204h-316v-78h488zM578 374h-142v262h142v-262zM512 800q195 -4 314.5 -125t123.5 -313q-4 -186 -125 -305.5t-313 -124.5q-179 1 -305 111.5t-131 318.5q5 205 130.5 320.5t305.5 117.5zM512 862q-200 -2 -345.5 -132t-152.5 -368
q6 -240 148.5 -365.5t349.5 -126.5q213 4 353.5 136t146.5 356q-4 212 -140 353t-360 147z" />
    <glyph glyph-name="uni2469" unicode="&#x2469;" 
d="M800 718h-354v-704h354v704zM402 14v704h-180v-78h40v-626h140zM594 92v548h58v-548h-58zM512 800q195 -4 314.5 -125t123.5 -313q-4 -186 -125 -305.5t-313 -124.5q-179 1 -305 111.5t-131 318.5q5 205 130.5 320.5t305.5 117.5zM512 860q-198 -2 -343.5 -131.5
t-152.5 -366.5q6 -238 148 -363.5t348 -126.5q212 4 352 135.5t146 354.5q-4 210 -140 351t-358 147z" />
    <glyph glyph-name="uni2474" unicode="&#x2474;" 
d="M260 -116l-108 222v524l106 224h-134l-96 -192v-586l94 -192h138zM598 -2v720h-258v-78h84v-642h174zM764 -116h138l94 192v586l-96 192h-134l106 -224v-524z" />
    <glyph glyph-name="uni2475" unicode="&#x2475;" 
d="M758 -2v78h-326v246h326v396h-498v-78h320v-240h-326v-402h504zM260 -116l-108 222v524l106 224h-134l-96 -192v-586l94 -192h138zM764 -116h138l94 192v586l-96 192h-134l106 -224v-524z" />
    <glyph glyph-name="uni2476" unicode="&#x2476;" 
d="M760 -2v720h-504v-78h326v-238h-284v-78h284v-248h-326v-78h504zM260 -116l-108 222v524l106 224h-134l-96 -192v-586l94 -192h138zM764 -116h138l94 192v586l-96 192h-134l106 -224v-524z" />
    <glyph glyph-name="uni2477" unicode="&#x2477;" 
d="M760 -2v720h-180v-422h-146v422h-178v-500h324v-220h180zM260 -116l-108 222v524l106 224h-134l-96 -192v-586l94 -192h138zM764 -116h138l94 192v586l-96 192h-134l106 -224v-524z" />
    <glyph glyph-name="uni2478" unicode="&#x2478;" 
d="M582 324v-248h-326v-78h504v404h-326v238h326v78h-504v-394h326zM260 -116l-108 222v524l106 224h-134l-96 -192v-586l94 -192h138zM764 -116h138l94 192v586l-96 192h-134l106 -224v-524z" />
    <glyph glyph-name="uni2479" unicode="&#x2479;" 
d="M582 76h-148v256h148v-256zM434 410v230h326v78h-504v-720h504v412h-326zM260 -116l-108 222v524l106 224h-134l-96 -192v-586l94 -192h138zM764 -116h138l94 192v586l-96 192h-134l106 -224v-524z" />
    <glyph glyph-name="uni247A" unicode="&#x247a;" 
d="M778 718h-528v-78h310l-246 -642h190zM260 -116l-108 222v524l106 224h-134l-96 -192v-586l94 -192h138zM764 -116h138l94 192v586l-96 192h-134l106 -224v-524z" />
    <glyph glyph-name="uni247B" unicode="&#x247b;" 
d="M434 404v236h148v-236h-148zM582 326v-250h-148v250h148zM760 -2v720h-506v-720h506zM260 -116l-108 222v524l106 224h-134l-96 -192v-586l94 -192h138zM764 -116h138l94 192v586l-96 192h-134l106 -224v-524z" />
    <glyph glyph-name="uni247C" unicode="&#x247c;" 
d="M442 380v260h150v-260h-150zM592 302v-226h-330v-78h508v720h-508v-416h330zM260 -116l-108 222v524l106 224h-134l-96 -192v-586l94 -192h138zM764 -116h138l94 192v586l-96 192h-134l106 -224v-524z" />
    <glyph glyph-name="uni247D" unicode="&#x247d;" 
d="M606 76v564h62v-564h-62zM836 718h-396v-720h396v720zM396 -2v720h-224v-78h54v-642h170zM260 -116l-108 222v524l106 224h-134l-96 -192v-586l94 -192h138zM764 -116h138l94 192v586l-96 192h-134l106 -224v-524z" />
    <glyph glyph-name="uni247E" unicode="&#x247e;" 
d="M798 -2v720h-262v-78h82v-642h180zM448 -2v720h-262v-78h82v-642h180zM260 -116l-108 222v524l106 224h-134l-96 -192v-586l94 -192h138zM764 -116h138l94 192v586l-96 192h-134l106 -224v-524z" />
    <glyph glyph-name="uni247F" unicode="&#x247f;" 
d="M388 -2v720h-206v-78h34v-642h172zM826 -2v78h-230v248h230v394h-394v-78h224v-238h-228v-404h398zM260 -116l-108 222v524l106 224h-134l-96 -192v-586l94 -192h138zM764 -116h138l94 192v586l-96 192h-134l106 -224v-524z" />
    <glyph glyph-name="uni2480" unicode="&#x2480;" 
d="M834 -2v720h-404v-78h232v-238h-204v-78h204v-248h-232v-78h404zM396 -2v720h-212v-78h40v-642h172zM260 -116l-108 222v524l106 224h-134l-96 -192v-586l94 -192h138zM764 -116h138l94 192v586l-96 192h-134l106 -224v-524z" />
    <glyph glyph-name="uni2481" unicode="&#x2481;" 
d="M394 -2v720h-212v-78h50v-642h162zM832 -2v720h-162v-424h-76v424h-160v-502h236v-218h162zM260 -116l-108 222v524l106 224h-134l-96 -192v-586l94 -192h138zM764 -116h138l94 192v586l-96 192h-134l106 -224v-524z" />
    <glyph glyph-name="uni2482" unicode="&#x2482;" 
d="M394 -2v720h-212v-78h40v-642h172zM660 324v-248h-228v-78h400v404h-230v238h230v78h-400v-394h228zM260 -116l-108 222v524l106 224h-134l-96 -192v-586l94 -192h138zM764 -116h138l94 192v586l-96 192h-134l106 -224v-524z" />
    <glyph glyph-name="uni2483" unicode="&#x2483;" 
d="M394 -2v720h-212v-78h50v-642h162zM832 -2v444h-240v198h240v78h-400v-720h400zM592 364h78v-288h-78v288zM260 -116l-108 222v524l106 224h-134l-96 -192v-586l94 -192h138zM764 -116h138l94 192v586l-96 192h-134l106 -224v-524z" />
    <glyph glyph-name="uni2484" unicode="&#x2484;" 
d="M848 718h-416v-78h216l-164 -644h172zM392 -2v720h-212v-78h40v-642h172zM260 -116l-108 222v524l106 224h-134l-96 -192v-586l94 -192h138zM764 -116h138l94 192v586l-96 192h-134l106 -224v-524z" />
    <glyph glyph-name="uni2485" unicode="&#x2485;" 
d="M592 76v248h80v-248h-80zM672 402h-80v238h80v-238zM834 -2v720h-402v-720h402zM394 -2v720h-212v-78h50v-642h162zM260 -116l-108 222v524l106 224h-134l-96 -192v-586l94 -192h138zM764 -116h138l94 192v586l-96 192h-134l106 -224v-524z" />
    <glyph glyph-name="uni2486" unicode="&#x2486;" 
d="M674 288v-212h-240v-78h402v720h-402v-430h240zM674 366h-82v274h82v-274zM398 -2v720h-212v-78h50v-642h162zM260 -116l-108 222v524l106 224h-134l-96 -192v-586l94 -192h138zM764 -116h138l94 192v586l-96 192h-134l106 -224v-524z" />
    <glyph glyph-name="uni2487" unicode="&#x2487;" 
d="M492 -2v78h-156v246h156v396h-304v-78h154v-240h-156v-402h306zM668 76v564h30v-564h-30zM838 -2v720h-308v-720h308zM260 -116l-108 222v524l106 224h-134l-96 -192v-586l94 -192h138zM764 -116h138l94 192v586l-96 192h-134l106 -224v-524z" />
    <glyph glyph-name="uni2488" unicode="&#x2488;" 
d="M844 122h-162v-124h162v124zM490 -2v740h-278v-78h82v-662h196z" />
    <glyph glyph-name="uni2489" unicode="&#x2489;" 
d="M938 122h-164v-124h164v124zM714 -2v78h-424v258h424v404h-612v-78h416v-248h-424v-414h620z" />
    <glyph glyph-name="uni248A" unicode="&#x248a;" 
d="M930 122h-164v-124h164v124zM706 -2v740h-620v-78h424v-248h-350v-78h350v-258h-424v-78h620z" />
    <glyph glyph-name="uni248B" unicode="&#x248b;" 
d="M930 122h-164v-124h164v124zM696 -2v740h-194v-418h-216v418h-196v-496h412v-244h194z" />
    <glyph glyph-name="uni248C" unicode="&#x248c;" 
d="M930 122h-164v-124h164v124zM700 -2v412h-420v250h420v78h-616v-406h420v-256h-420v-78h616z" />
    <glyph glyph-name="uni248D" unicode="&#x248d;" 
d="M930 122h-164v-124h164v124zM504 76h-224v264h224v-264zM280 418v242h420v78h-616v-740h616v420h-420z" />
    <glyph glyph-name="uni248E" unicode="&#x248e;" 
d="M746 122h-162v-124h162v124zM726 738h-640v-78h410l-298 -662h200z" />
    <glyph glyph-name="uni248F" unicode="&#x248f;" 
d="M930 122h-164v-124h164v124zM284 76v258h226v-258h-226zM510 412h-226v248h226v-248zM706 -2v740h-618v-740h618z" />
    <glyph glyph-name="uni2490" unicode="&#x2490;" 
d="M930 122h-164v-124h164v124zM704 -2v740h-620v-424h424v-238h-424v-78h620zM508 392h-228v268h228v-268z" />
    <glyph glyph-name="uni2491" unicode="&#x2491;" 
d="M1014 122h-162v-124h162v124zM818 -2v740h-478v-740h478zM530 76v584h98v-584h-98zM282 -2v740h-260v-78h64v-662h196z" />
    <glyph glyph-name="uni2492" unicode="&#x2492;" 
d="M958 122h-162v-124h162v124zM738 -2v740h-260v-78h64v-662h196zM346 -2v740h-260v-78h64v-662h196z" />
    <glyph glyph-name="uni2493" unicode="&#x2493;" 
d="M1020 122h-162v-124h162v124zM268 -2v740h-260v-78h64v-662h196zM818 -2v78h-316v254h316v408h-504v-78h308v-252h-316v-410h512z" />
    <glyph glyph-name="uni2494" unicode="&#x2494;" 
d="M1026 122h-162v-124h162v124zM276 -2v740h-260v-78h64v-662h196zM822 -2v740h-508v-78h312v-248h-276v-78h276v-258h-312v-78h508z" />
    <glyph glyph-name="uni2495" unicode="&#x2495;" 
d="M1014 122h-162v-124h162v124zM816 -2v740h-196v-434h-114v434h-196v-512h310v-228h196zM272 -2v740h-260v-78h64v-662h196z" />
    <glyph glyph-name="uni2496" unicode="&#x2496;" 
d="M1020 122h-162v-124h162v124zM270 -2v740h-260v-78h64v-662h196zM816 -2v412h-312v250h312v78h-508v-406h312v-256h-312v-78h508z" />
    <glyph glyph-name="uni2497" unicode="&#x2497;" 
d="M504 76v282h116v-282h-116zM504 436v224h312v78h-508v-740h508v438h-312zM270 -2v740h-260v-78h64v-662h196zM1018 122h-162v-124h162v124z" />
    <glyph glyph-name="uni2498" unicode="&#x2498;" 
d="M876 738h-534v-78h296l-250 -662h210zM284 -2v740h-260v-78h64v-662h196zM902 122h-162v-124h162v124z" />
    <glyph glyph-name="uni2499" unicode="&#x2499;" 
d="M504 412v248h114v-248h-114zM618 334v-258h-114v258h114zM814 -2v740h-506v-740h506zM270 -2v740h-260v-78h64v-662h196zM1012 122h-162v-124h162v124z" />
    <glyph glyph-name="uni249A" unicode="&#x249a;" 
d="M504 392v268h114v-268h-114zM618 314v-238h-310v-78h506v740h-506v-424h310zM270 -2v740h-260v-78h64v-662h196zM1012 122h-162v-124h162v124z" />
    <glyph glyph-name="uni249B" unicode="&#x249b;" 
d="M414 -2v78h-224v254h224v408h-408v-78h224v-252h-224v-410h408zM616 76v584h54v-584h-54zM844 -2v740h-402v-740h402zM1022 122h-158v-124h158v124z" />
    <glyph glyph-name="SF100000" unicode="&#x2500;" 
d="M34 396v-64h1036v64h-1036z" />
    <glyph glyph-name="uni2501" unicode="&#x2501;" 
d="M34 428v-128h1036v128h-1036z" />
    <glyph glyph-name="SF110000" unicode="&#x2502;" 
d="M520 886v-1036h64v1036h-64z" />
    <glyph glyph-name="uni2503" unicode="&#x2503;" 
d="M488 886v-1036h128v1036h-128z" />
    <glyph glyph-name="uni2504" unicode="&#x2504;" 
d="M90 396v-64h236v64h-236zM434 396v-64h236v64h-236zM778 396v-64h236v64h-236z" />
    <glyph glyph-name="uni2505" unicode="&#x2505;" 
d="M90 428v-128h236v128h-236zM434 428v-128h236v128h-236zM778 428v-128h236v128h-236z" />
    <glyph glyph-name="uni2506" unicode="&#x2506;" 
d="M520 828v-238h64v238h-64zM584 482h-64v-238h64v238zM584 136h-64v-238h64v238z" />
    <glyph glyph-name="uni2507" unicode="&#x2507;" 
d="M616 828h-128v-238h128v238zM616 482h-128v-238h128v238zM616 136h-128v-238h128v238z" />
    <glyph glyph-name="uni2508" unicode="&#x2508;" 
d="M82 396v-64h172v64h-172zM338 396v-64h172v64h-172zM594 396v-64h172v64h-172zM850 396v-64h172v64h-172z" />
    <glyph glyph-name="uni2509" unicode="&#x2509;" 
d="M82 428v-128h172v128h-172zM338 428v-128h172v128h-172zM594 428v-128h172v128h-172zM850 428v-128h172v128h-172z" />
    <glyph glyph-name="uni250A" unicode="&#x250a;" 
d="M584 828h-64v-172h64v172zM584 572h-64v-172h64v172zM584 316h-64v-172h64v172zM584 60h-64v-172h64v172z" />
    <glyph glyph-name="uni250B" unicode="&#x250b;" 
d="M616 828h-128v-172h128v172zM616 572h-128v-172h128v172zM616 316h-128v-172h128v172zM616 60h-128v-172h128v172z" />
    <glyph glyph-name="SF010000" unicode="&#x250c;" 
d="M1070 396h-550v-546h64v482h486v64z" />
    <glyph glyph-name="uni250D" unicode="&#x250d;" 
d="M1070 428h-550v-578h64v450h486v128z" />
    <glyph glyph-name="uni250E" unicode="&#x250e;" 
d="M1070 396h-582v-546h128v482h454v64z" />
    <glyph glyph-name="uni250F" unicode="&#x250f;" 
d="M1070 428h-582v-578h128v450h454v128z" />
    <glyph glyph-name="SF030000" unicode="&#x2510;" 
d="M34 332h486v-482h64v546h-550v-64z" />
    <glyph glyph-name="uni2511" unicode="&#x2511;" 
d="M34 428v-128h486v-450h64v578h-550z" />
    <glyph glyph-name="uni2512" unicode="&#x2512;" 
d="M34 396v-64h454v-482h128v546h-582z" />
    <glyph glyph-name="uni2513" unicode="&#x2513;" 
d="M34 428v-128h454v-450h128v578h-582z" />
    <glyph glyph-name="SF020000" unicode="&#x2514;" 
d="M584 886h-64v-554h550v64h-486v490z" />
    <glyph glyph-name="uni2515" unicode="&#x2515;" 
d="M584 886h-64v-586h550v128h-486v458z" />
    <glyph glyph-name="uni2516" unicode="&#x2516;" 
d="M616 886h-128v-554h582v64h-454v490z" />
    <glyph glyph-name="uni2517" unicode="&#x2517;" 
d="M616 886h-128v-586h582v128h-454v458z" />
    <glyph glyph-name="SF040000" unicode="&#x2518;" 
d="M34 396v-64h550v554h-64v-490h-486z" />
    <glyph glyph-name="uni2519" unicode="&#x2519;" 
d="M34 428v-128h550v586h-64v-458h-486z" />
    <glyph glyph-name="uni251A" unicode="&#x251a;" 
d="M34 396v-64h582v554h-128v-490h-454z" />
    <glyph glyph-name="uni251B" unicode="&#x251b;" 
d="M34 428v-128h582v586h-128v-458h-454z" />
    <glyph glyph-name="SF080000" unicode="&#x251c;" 
d="M584 886h-64v-1036h64v482h486v64h-486v490z" />
    <glyph glyph-name="uni251D" unicode="&#x251d;" 
d="M584 886h-64v-1036h64v450h486v128h-486v458z" />
    <glyph glyph-name="uni251E" unicode="&#x251e;" 
d="M616 886h-128v-522h32v-514h64v482h486v64h-454v490z" />
    <glyph glyph-name="uni251F" unicode="&#x251f;" 
d="M584 886h-64v-522h-32v-514h128v482h454v64h-486v490z" />
    <glyph glyph-name="uni2520" unicode="&#x2520;" 
d="M616 886h-128v-1036h128v482h454v64h-454v490z" />
    <glyph glyph-name="uni2521" unicode="&#x2521;" 
d="M616 886h-128v-586h32v-450h64v450h486v128h-454v458z" />
    <glyph glyph-name="uni2522" unicode="&#x2522;" 
d="M584 886h-64v-458h-32v-578h128v450h454v128h-486v458z" />
    <glyph glyph-name="uni2523" unicode="&#x2523;" 
d="M616 886h-128v-1036h128v450h454v128h-454v458z" />
    <glyph glyph-name="SF090000" unicode="&#x2524;" 
d="M584 886h-64v-490h-486v-64h486v-482h64v1036z" />
    <glyph glyph-name="uni2525" unicode="&#x2525;" 
d="M584 886h-64v-458h-486v-128h486v-450h64v1036z" />
    <glyph glyph-name="uni2526" unicode="&#x2526;" 
d="M616 886h-128v-490h-454v-64h486v-482h64v514h32v522z" />
    <glyph glyph-name="uni2527" unicode="&#x2527;" 
d="M584 886h-64v-490h-486v-64h454v-482h128v514h-32v522z" />
    <glyph glyph-name="uni2528" unicode="&#x2528;" 
d="M616 886h-128v-490h-454v-64h454v-482h128v1036z" />
    <glyph glyph-name="uni2529" unicode="&#x2529;" 
d="M616 886h-128v-458h-454v-128h486v-450h64v450h32v586z" />
    <glyph glyph-name="uni252A" unicode="&#x252a;" 
d="M584 886h-64v-458h-486v-128h454v-450h128v578h-32v458z" />
    <glyph glyph-name="uni252B" unicode="&#x252b;" 
d="M616 886h-128v-458h-454v-128h454v-450h128v1036z" />
    <glyph glyph-name="SF060000" unicode="&#x252c;" 
d="M34 396v-64h486v-482h64v482h486v64h-1036z" />
    <glyph glyph-name="uni252D" unicode="&#x252d;" 
d="M34 428v-128h486v-450h64v482h486v64h-486v32h-550z" />
    <glyph glyph-name="uni252E" unicode="&#x252e;" 
d="M34 396v-64h486v-482h64v450h486v128h-550v-32h-486z" />
    <glyph glyph-name="uni252F" unicode="&#x252f;" 
d="M34 428v-128h486v-450h64v450h486v128h-1036z" />
    <glyph glyph-name="uni2530" unicode="&#x2530;" 
d="M34 396v-64h454v-482h128v482h454v64h-1036z" />
    <glyph glyph-name="uni2531" unicode="&#x2531;" 
d="M34 428v-128h454v-450h128v482h454v64h-454v32h-582z" />
    <glyph glyph-name="uni2532" unicode="&#x2532;" 
d="M34 396v-64h454v-482h128v450h454v128h-582v-32h-454z" />
    <glyph glyph-name="uni2533" unicode="&#x2533;" 
d="M34 428v-128h454v-450h128v450h454v128h-1036z" />
    <glyph glyph-name="SF070000" unicode="&#x2534;" 
d="M34 396v-64h1036v64h-486v490h-64v-490h-486z" />
    <glyph glyph-name="uni2535" unicode="&#x2535;" 
d="M584 886h-64v-458h-486v-128h550v32h486v64h-486v490z" />
    <glyph glyph-name="uni2536" unicode="&#x2536;" 
d="M584 886h-64v-490h-486v-64h486v-32h550v128h-486v458z" />
    <glyph glyph-name="uni2537" unicode="&#x2537;" 
d="M584 886h-64v-458h-486v-128h1036v128h-486v458z" />
    <glyph glyph-name="uni2538" unicode="&#x2538;" 
d="M616 886h-128v-490h-454v-64h1036v64h-454v490z" />
    <glyph glyph-name="uni2539" unicode="&#x2539;" 
d="M616 886h-128v-458h-454v-128h582v32h454v64h-454v490z" />
    <glyph glyph-name="uni253A" unicode="&#x253a;" 
d="M616 886h-128v-490h-454v-64h454v-32h582v128h-454v458z" />
    <glyph glyph-name="uni253B" unicode="&#x253b;" 
d="M616 886h-128v-458h-454v-128h1036v128h-454v458z" />
    <glyph glyph-name="SF050000" unicode="&#x253c;" 
d="M584 886h-64v-490h-486v-64h486v-482h64v482h486v64h-486v490z" />
    <glyph glyph-name="uni253D" unicode="&#x253d;" 
d="M584 886h-64v-458h-486v-128h486v-450h64v482h486v64h-486v490z" />
    <glyph glyph-name="uni253E" unicode="&#x253e;" 
d="M584 886h-64v-490h-486v-64h486v-482h64v450h486v128h-486v458z" />
    <glyph glyph-name="uni253F" unicode="&#x253f;" 
d="M584 886h-64v-458h-486v-128h486v-450h64v450h486v128h-486v458z" />
    <glyph glyph-name="uni2540" unicode="&#x2540;" 
d="M616 886h-128v-490h-454v-64h486v-482h64v482h486v64h-454v490z" />
    <glyph glyph-name="uni2541" unicode="&#x2541;" 
d="M584 886h-64v-490h-486v-64h454v-482h128v482h454v64h-486v490z" />
    <glyph glyph-name="uni2542" unicode="&#x2542;" 
d="M616 886h-128v-490h-454v-64h454v-482h128v482h454v64h-454v490z" />
    <glyph glyph-name="uni2543" unicode="&#x2543;" 
d="M616 886h-128v-458h-454v-128h486v-450h64v482h486v64h-454v490z" />
    <glyph glyph-name="uni2544" unicode="&#x2544;" 
d="M616 886h-128v-490h-454v-64h486v-482h64v450h486v128h-454v458z" />
    <glyph glyph-name="uni2545" unicode="&#x2545;" 
d="M584 886h-64v-458h-486v-128h454v-450h128v482h454v64h-486v490z" />
    <glyph glyph-name="uni2546" unicode="&#x2546;" 
d="M584 886h-64v-490h-486v-64h454v-482h128v450h454v128h-486v458z" />
    <glyph glyph-name="uni2547" unicode="&#x2547;" 
d="M616 886h-128v-458h-454v-128h486v-450h64v450h486v128h-454v458z" />
    <glyph glyph-name="uni2548" unicode="&#x2548;" 
d="M584 886h-64v-458h-486v-128h454v-450h128v450h454v128h-486v458z" />
    <glyph glyph-name="uni2549" unicode="&#x2549;" 
d="M616 886h-128v-458h-454v-128h454v-450h128v482h454v64h-454v490z" />
    <glyph glyph-name="uni254A" unicode="&#x254a;" 
d="M616 886h-128v-490h-454v-64h454v-482h128v450h454v128h-454v458z" />
    <glyph glyph-name="uni254B" unicode="&#x254b;" 
d="M616 886h-128v-458h-454v-128h454v-450h128v450h454v128h-454v458z" />
    <glyph glyph-name="filledbox" unicode="&#x25a0;" 
d="M926 -62v820h-832v-820h832z" />
    <glyph glyph-name="H22073" unicode="&#x25a1;" 
d="M154 702h716v-708h-716v708zM926 -62v820h-832v-820h832z" />
    <glyph glyph-name="triagup" unicode="&#x25b2;" 
d="M894 -6l-382 772l-382 -772h764z" />
    <glyph glyph-name="uni25B3" unicode="&#x25b3;" 
d="M894 -6l-382 772l-382 -772h764zM512 642l290 -592h-584z" />
    <glyph glyph-name="uni25C6" unicode="&#x25c6;" 
d="M512 -8l392 384l-392 392l-392 -392z" />
    <glyph glyph-name="uni25C7" unicode="&#x25c7;" 
d="M512 -8l392 384l-392 392l-392 -392zM512 60l-316 316l316 316l316 -316z" />
    <glyph glyph-name="circle" unicode="&#x25cb;" 
d="M512 736q-162 -5 -265.5 -111.5t-106.5 -260.5q2 -152 103 -256t269 -108q174 4 272 107t100 257q-5 168 -111.5 268.5t-260.5 103.5zM512 36q-144 3 -235 96t-93 232q2 138 91.5 231t236.5 97q137 -3 230.5 -92.5t97.5 -235.5q-2 -140 -89.5 -232.5t-238.5 -95.5z" />
    <glyph glyph-name="uni25CE" unicode="&#x25ce;" 
d="M512 592q95 -3 160 -68t68 -160q-2 -93 -65 -159t-163 -69q-92 2 -160.5 66.5t-71.5 161.5q2 95 67.5 160t164.5 68zM512 620q-110 -3 -184 -74.5t-76 -181.5q3 -111 78.5 -182.5t181.5 -73.5q113 2 185 75t75 181q-4 109 -78 181t-182 75zM512 736
q-162 -5 -265.5 -111.5t-106.5 -260.5q2 -152 103 -256t269 -108q174 4 272 107t100 257q-5 168 -111.5 268.5t-260.5 103.5zM512 24q-150 4 -244 102t-96 238q3 142 97.5 239t242.5 101q140 -3 237.5 -95.5t102.5 -244.5q-2 -144 -92.5 -240.5t-247.5 -99.5z" />
    <glyph glyph-name="H18533" unicode="&#x25cf;" 
d="M512 736q-162 -5 -265.5 -111.5t-106.5 -260.5q2 -152 103 -256t269 -108q174 4 272 107t100 257q-5 168 -111.5 268.5t-260.5 103.5z" />
    <glyph glyph-name="uni2605" unicode="&#x2605;" 
d="M512 730l-100 -288h-298l240 -184l-84 -280l242 162l242 -162l-88 280l244 184h-302z" />
    <glyph glyph-name="uni2606" unicode="&#x2606;" 
d="M508 730l-96 -288h-298l240 -184l-84 -280l238 166l246 -166l-88 280l244 184h-302zM340 64l62 210l-172 128h214l68 216h-4l68 -216h214l-174 -128l72 -216h6l-186 134z" />
    <glyph glyph-name="female" unicode="&#x2640;" 
d="M760 504q-2 96 -68.5 163.5t-177.5 70.5q-114 -4 -180.5 -73t-67.5 -163q0 -79 50 -140t138 -82l-6 -100h-150v-78h150v-144h136v144h150v78h-150l-6 102q86 17 133.5 78.5t48.5 143.5zM366 502q5 130 146 140q61 -2 103.5 -40t44.5 -100q-2 -63 -45.5 -97.5
t-104.5 -34.5q-59 0 -101 35.5t-43 96.5z" />
    <glyph glyph-name="male" unicode="&#x2642;" 
d="M364 182q1 61 42 98.5t106 39.5q56 -2 99.5 -39.5t46.5 -98.5q-3 -80 -47 -107t-101 -25q-61 0 -103 34.5t-43 97.5zM310 458q95 39 140 70v-124q-83 -21 -133 -79t-51 -147q1 -96 68 -158.5t176 -65.5q109 2 176.5 61t69.5 163q0 170 -182 226v126q35 -30 140 -68l28 90
q-70 46 -116.5 86t-81.5 98h-66q-43 -64 -91.5 -107.5t-114.5 -90.5z" />
    <glyph glyph-name="uni3000" unicode="&#x3000;" 
 />
    <glyph glyph-name="uni3001" unicode="&#x3001;" 
d="M142 14l212 -116v180l-212 122v-186z" />
    <glyph glyph-name="uni3002" unicode="&#x3002;" 
d="M424 140q-2 66 -47.5 113.5t-118.5 50.5q-74 -3 -119.5 -50.5t-46.5 -113.5q1 -69 45.5 -116t120.5 -50q72 2 118 46.5t48 119.5zM346 140q1 -32 -16 -52q-10 -18 -26 -26q-19 -11 -46 -10q-85 5 -88 88q-2 21 8 36q11 23 26 32q15 16 54 18q52 -4 70.5 -34.5t17.5 -51.5
z" />
    <glyph glyph-name="uni3003" unicode="&#x3003;" 
d="M564 622h-196l-152 -428h120zM796 622h-196l-152 -428h120z" />
    <glyph glyph-name="uni3005" unicode="&#x3005;" 
d="M118 316h180l132 198h184l-146 -256l-150 54v-164l392 -150v164l-92 36l222 394h-360l86 156h-180z" />
    <glyph glyph-name="uni3008" unicode="&#x3008;" 
d="M788 874l-288 -514l282 -498l156 38l-256 460l254 466z" />
    <glyph glyph-name="uni3009" unicode="&#x3009;" 
d="M218 874l-148 -48l256 -466l-258 -460l152 -38l286 498z" />
    <glyph glyph-name="uni300A" unicode="&#x300a;" 
d="M664 874l-288 -514l282 -500l134 40l-254 460l254 466zM876 874l-288 -514l282 -500l134 40l-254 460l254 466z" />
    <glyph glyph-name="uni300B" unicode="&#x300b;" 
d="M132 858l280 -498l-274 -484l-114 32l250 452l-250 458zM344 858l280 -498l-274 -484l-114 32l250 452l-250 458z" />
    <glyph glyph-name="uni300C" unicode="&#x300c;" 
d="M964 766v78h-412v-962h154v884h258z" />
    <glyph glyph-name="uni300D" unicode="&#x300d;" 
d="M60 -40v-78h414v962h-154v-884h-260z" />
    <glyph glyph-name="uni300E" unicode="&#x300e;" 
d="M902 844h-390v-954h220v738h170v216zM812 754v-36h-170v-738h-40v774h210z" />
    <glyph glyph-name="uni300F" unicode="&#x300f;" 
d="M102 -108h388v952h-218v-736h-170v-216zM192 -18v36h168v736h40v-772h-208z" />
    <glyph glyph-name="uni3010" unicode="&#x3010;" 
d="M558 -140l342 6q-113 170 -139 319t-21 159v32q22 206 79 342t65 142l-326 6v-1006z" />
    <glyph glyph-name="uni3011" unicode="&#x3011;" 
d="M454 -128l-330 -6q112 170 138 319t22 159v32q-23 206 -80 342t-64 142l314 -6v-982z" />
    <glyph glyph-name="uni3013" unicode="&#x3013;" 
d="M168 688v-266h686v266h-686zM168 360v-266h686v266h-686z" />
    <glyph glyph-name="uni3014" unicode="&#x3014;" 
d="M854 882l-284 -132v-766l296 -130l72 120l-214 96v596l216 100z" />
    <glyph glyph-name="uni3015" unicode="&#x3015;" 
d="M178 866l268 -124v-750l-280 -122l-60 100l210 92v612l-208 96z" />
    <glyph glyph-name="uni3016" unicode="&#x3016;" 
d="M554 -140l364 6q-68 103 -113.5 225t-46.5 277q2 133 45.5 262t94.5 230l-344 6v-1006zM646 774l130 6q-90 -188 -98 -412q1 -144 33 -252.5t73 -169.5l-138 6v822z" />
    <glyph glyph-name="uni3017" unicode="&#x3017;" 
d="M390 784l-140 -6q88 -188 96 -412q-2 -143 -33 -251t-71 -169l148 -6v844zM458 -128l-352 -6q67 103 112.5 225t47.5 277q-3 133 -46.5 262t-93.5 230l332 -6v-982z" />
    <glyph glyph-name="uni3041" unicode="&#x3041;" 
d="M510 234q-4 100 -2 150q33 14 78 16q-35 -110 -76 -166zM384 336q-2 -71 1 -114t5 -94q-14 -13 -37 -22.5t-39 -3.5q-47 28 -19 108.5t89 125.5zM916 260q-3 74 -56.5 123t-131.5 67l14 54l-132 26q-4 -46 -10 -68q-36 0 -86 -12q-3 52 4 104q135 7 244 36v70
q-56 -18 -121 -28.5t-117 -13.5q8 60 22 102l-132 8q-12 -50 -18 -112q-73 0 -164 12l2 -70q81 -6 154 -6q-5 -68 -4 -142q-82 -43 -134.5 -116t-53.5 -158q3 -96 68 -129.5t154 11.5q6 -18 18 -42l126 52q-15 38 -20 68q96 86 166 298q37 -2 73 -40t29 -110
q-16 -85 -79 -144t-153 -100l88 -92q167 92 211.5 195t38.5 157z" />
    <glyph glyph-name="uni3042" unicode="&#x3042;" 
d="M488 270q-2 20 -3 54t-1 110q35 18 104 22q-55 -141 -100 -186zM254 212q16 118 102 176q5 -159 16 -218q-45 -33 -86 -34.5t-32 76.5zM942 272q-9 183 -200 228q7 22 12 44l-130 28q-3 -14 -18 -54q-55 2 -122 -16q-1 33 10 114q155 6 302 42v64q-143 -38 -288 -42
q10 82 20 104l-130 12q-14 -40 -28 -116q-99 -2 -200 14v-72q97 -10 188 -8q-7 -108 -8 -156q-208 -118 -214 -308q2 -115 76 -135.5t190 29.5q7 -26 20 -54l124 42q-20 49 -28 86q114 87 202 322q50 -10 81 -65.5t17 -116.5q-16 -98 -104 -158t-130 -70l82 -106
q121 48 197.5 136.5t78.5 211.5z" />
    <glyph glyph-name="uni3043" unicode="&#x3043;" 
d="M342 598l-130 16q-28 -177 -22 -342q0 -24 5 -67.5t22 -90t53.5 -79t101.5 -33.5q56 -2 107 46.5t83 171.5l-104 82q-9 -47 -20 -104t-46 -112q-38 -42 -56 8t-16 154q-4 196 22 350zM684 580l-120 -52q139 -171 188 -410l120 44q-39 246 -188 418z" />
    <glyph glyph-name="uni3044" unicode="&#x3044;" 
d="M332 708l-132 26q-49 -260 -16 -514q17 -112 71 -158t117 -44q135 -10 220 242l-110 78q-13 -65 -38.5 -141.5t-61.5 -106.5q-25 -17 -50.5 41t-27.5 233q-1 173 28 344zM718 690l-118 -62q157 -198 206 -470l130 48q-43 279 -218 484z" />
    <glyph glyph-name="uni3045" unicode="&#x3045;" 
d="M556 434q130 0 122 -132q-14 -96 -111.5 -146t-236.5 -58l66 -126q394 56 402 328q-3 91 -65 145.5t-157 56.5q-74 0 -155 -17t-193 -59l32 -60q91 35 160.5 51.5t135.5 16.5zM348 694l-18 -66q194 -41 394 -46l16 68q-199 4 -392 44z" />
    <glyph glyph-name="uni3046" unicode="&#x3046;" 
d="M546 482q54 4 103 -27.5t49 -128.5q-6 -115 -112.5 -170.5t-295.5 -85.5l68 -122q450 80 460 364q-10 221 -262 232q-182 -2 -390 -84l36 -60q83 33 173.5 56t170.5 26zM300 758l-14 -68q219 -53 454 -64l14 70q-235 7 -454 62z" />
    <glyph glyph-name="uni3047" unicode="&#x3047;" 
d="M338 696l-16 -66q197 -49 380 -56l16 66q-195 7 -380 56zM564 258q52 65 140 136l30 18l-70 76q-209 -35 -424 -34l10 -68q61 -2 124 3t146 15q-105 -110 -188.5 -193t-157.5 -157l106 -82q111 126 184 178q26 14 34 -2q11 -66 42 -116.5t128 -45.5q101 8 190 24l4 70
q-90 -18 -164 -24q-48 0 -64.5 46.5t-23.5 85.5q-16 60 -46 70z" />
    <glyph glyph-name="uni3048" unicode="&#x3048;" 
d="M306 778l-18 -66q219 -57 432 -60l12 68q-222 5 -426 58zM560 312q96 93 198 184l-70 74q-250 -46 -502 -44l8 -70q74 -1 158 5t200 21q-137 -135 -241.5 -239.5t-194.5 -198.5l98 -86q118 120 234 234q40 40 60 -10q10 -42 32 -108q26 -102 166 -96q112 10 206 40v74
q-111 -36 -192 -36q-40 7 -54.5 66.5t-29.5 105.5q-14 70 -76 84z" />
    <glyph glyph-name="uni3049" unicode="&#x3049;" 
d="M358 76q-7 -34 -41.5 -5t-16.5 133q21 44 58 58v-186zM874 228q-7 80 -70 124.5t-160 45.5q-113 -3 -166 -20v118q76 7 158 32v70q-77 -26 -154 -34q-2 84 0 132h-128q1 -33 0 -62.5t-2 -79.5q-85 -2 -154 14v-70q75 -14 154 -10v-152q-155 -73 -166 -188
q2 -65 59.5 -108.5t134.5 -45.5q92 3 100 92q-1 6 2 22q-1 34 -1.5 79.5t-0.5 120.5q29 9 65 17.5t99 6.5q71 -11 87.5 -50t8.5 -70q-8 -41 -70 -76t-160 -42l46 -128q198 29 262 113t56 149zM748 618l-58 -96q115 -54 182 -122l66 98q-50 46 -93 71t-97 49z" />
    <glyph glyph-name="uni304A" unicode="&#x304a;" 
d="M328 66q-4 -24 -32.5 -11.5t-41.5 49.5q-31 81 -2 124.5t76 63.5v-121v-105zM882 244q-4 90 -77 137t-179 51q-92 1 -172 -24v138q104 14 188 46v70q-93 -37 -188 -50q2 54 3 85t1 71h-132q1 -39 2 -72.5t0 -89.5q-97 -3 -190 12l6 -72q94 -9 182 -6v-170
q-50 -22 -119 -77t-71 -139q1 -82 68 -128.5t144 -47.5q54 -1 81.5 29t28.5 113q0 34 -0.5 84t-1.5 134q79 32 162 28q42 0 91 -25.5t41 -106.5q-13 -66 -85 -98t-177 -34l40 -128q145 8 247 73.5t107 196.5zM754 664l-60 -106q99 -45 204 -134l62 106q-105 91 -206 134z
" />
    <glyph glyph-name="uni304B" unicode="&#x304b;" 
d="M768 708l-120 -56q65 -81 102.5 -154t69.5 -168l120 56q-73 224 -172 322zM464 584q17 101 28 182l-132 18q-8 -100 -28 -212q-119 -15 -228 -36l16 -70q96 21 192 36q-70 -292 -212 -472l116 -70q157 210 228 550q51 7 91.5 -3t44.5 -55q0 -90 -8 -169t-12 -105
q-12 -93 -67 -101t-153 23l4 -74q131 -33 222.5 -11.5t113.5 129.5q23 118 28 270q2 85 -41.5 122t-112.5 44q-51 6 -90 4z" />
    <glyph glyph-name="uni304C" unicode="&#x304c;" 
d="M686 676l-100 -52q59 -77 92.5 -149t67.5 -169l100 44q-35 111 -79.5 197t-80.5 129zM804 552l94 46q-55 109 -98 158l-96 -48q63 -83 100 -156zM930 618l92 46q-53 113 -100 160l-94 -48q64 -84 102 -158zM400 584q17 101 28 182l-132 18q-8 -100 -28 -212
q-119 -15 -228 -36l16 -70q96 21 192 36q-70 -292 -212 -472l116 -70q157 210 228 550q51 7 91.5 -3t44.5 -55q0 -90 -8 -169t-12 -105q-12 -93 -67 -101t-153 23l4 -74q131 -33 222.5 -11.5t113.5 129.5q23 118 28 270q2 85 -41.5 122t-112.5 44q-51 6 -90 4z" />
    <glyph glyph-name="uni304D" unicode="&#x304d;" 
d="M504 46q-76 10 -117.5 41.5t-42.5 62.5q0 54 48.5 80t103.5 24q63 0 129 -17.5t141 -70.5l56 70q-44 93 -94 196q31 6 71 17.5t71 24.5l-20 66q-98 -34 -154 -46l-54 120q101 18 158 48l-20 64q-87 -34 -164 -46q-42 89 -68 136l-126 -32q23 -41 62 -118
q-75 -7 -133 -6.5t-145 12.5l8 -70q170 -15 298 0l56 -128q-184 -21 -362 -2l6 -72q211 -11 386 8l50 -110q-71 18 -136 16h-52q-91 0 -162.5 -41t-75.5 -127q-6 -56 48.5 -102t231.5 -70q122 -5 236 2l6 70q-117 -18 -240 0z" />
    <glyph glyph-name="uni304E" unicode="&#x304e;" 
d="M786 588l94 46q-52 111 -100 162l-94 -48q62 -82 100 -160zM914 658l94 46q-57 116 -102 160l-96 -48q62 -81 104 -158zM396 46q-76 10 -117.5 41.5t-42.5 62.5q0 54 48.5 80t103.5 24q63 0 129 -17.5t141 -70.5l56 70q-44 93 -94 196q31 6 71 17.5t71 24.5l-20 66
q-98 -34 -154 -46l-54 120q101 18 158 48l-20 64q-87 -34 -164 -46q-42 89 -68 136l-126 -32q23 -41 62 -118q-75 -7 -133 -6.5t-145 12.5l8 -70q170 -15 298 0l56 -128q-184 -21 -362 -2l6 -72q211 -11 386 8l50 -110q-71 18 -136 16h-52q-91 0 -162.5 -41t-75.5 -127
q-6 -56 48.5 -102t231.5 -70q122 -5 236 2l6 70q-117 -18 -240 0z" />
    <glyph glyph-name="uni304F" unicode="&#x304f;" 
d="M744 718l-98 86q-177 -156 -342 -290q-147 -114 -8 -228q183 -148 370 -340l96 98q-172 173 -364 326q-38 31 -6 56q74 62 166.5 137.5t185.5 154.5z" />
    <glyph glyph-name="uni3050" unicode="&#x3050;" 
d="M716 718l-98 86q-177 -156 -342 -290q-147 -114 -8 -228q183 -148 370 -340l96 98q-172 173 -364 326q-38 31 -6 56q74 62 166.5 137.5t185.5 154.5zM830 448l94 46q-26 53 -48 85.5t-56 74.5l-96 -48q33 -40 55 -73.5t51 -84.5zM698 378l94 46q-26 53 -46 85.5t-54 74.5
l-96 -48q33 -41 54.5 -76.5t47.5 -81.5z" />
    <glyph glyph-name="uni3051" unicode="&#x3051;" 
d="M794 392v100q78 4 150 20v72q-76 -19 -152 -26q1 121 -10 200h-94h-42q14 -85 16 -206h-20q-124 -2 -244 14v-72q96 -10 192 -8h76v-88q0 -149 -52 -227t-166 -125l98 -100q146 70 198.5 173t49.5 273zM364 738l-128 18q-119 -385 -34 -778l126 12q-90 378 36 748z" />
    <glyph glyph-name="uni3052" unicode="&#x3052;" 
d="M928 686l88 48q-23 51 -53.5 91.5t-44.5 50.5l-86 -50q29 -34 48 -62t48 -78zM804 614l92 48q-48 101 -96 148l-88 -48q62 -79 92 -148zM270 738l-128 18q-119 -385 -34 -778l126 12q-90 378 36 748zM700 392v100q78 4 150 20v72q-76 -19 -152 -26q1 121 -10 200h-94h-42
q14 -85 16 -206h-20q-124 -2 -244 14v-72q96 -10 192 -8h76v-88q0 -149 -52 -227t-166 -125l98 -100q146 70 198.5 173t49.5 273z" />
    <glyph glyph-name="uni3053" unicode="&#x3053;" 
d="M244 682v-68q274 -16 548 4v66q-421 -22 -548 -2zM326 212q1 48 8 96l-128 16q-11 -54 -12 -120q5 -116 101 -153t215 -33q174 1 342 38v76q-166 -51 -344 -48q-187 -10 -182 128z" />
    <glyph glyph-name="uni3054" unicode="&#x3054;" 
d="M802 342l90 46q-53 112 -94 158l-88 -52q62 -84 92 -152zM930 424l90 50q-53 110 -94 154l-88 -52q62 -81 92 -152zM266 212q1 48 8 96l-128 16q-11 -54 -12 -120q5 -116 101 -153t215 -33q174 1 342 38v76q-166 -51 -344 -48q-187 -10 -182 128zM184 682v-68
q274 -16 548 4v66q-421 -22 -548 -2z" />
    <glyph glyph-name="uni3055" unicode="&#x3055;" 
d="M488 46q-137 7 -162 116q-15 123 166 136q133 9 260 -90l70 70q-56 102 -132 270q110 23 170 62l-28 60q-89 -45 -166 -60q-45 101 -84 178l-128 -32q37 -68 80 -166q-182 -13 -348 16l8 -70q196 -28 368 -10l88 -182q-88 25 -166 20q-122 -2 -202 -56.5t-82 -143.5
q-5 -63 52 -122t234 -64q108 -1 256 22l8 74q-130 -29 -262 -28z" />
    <glyph glyph-name="uni3056" unicode="&#x3056;" 
d="M936 674l86 54q-59 104 -108 148l-84 -56q65 -69 106 -146zM824 598l86 54q-59 104 -108 148l-84 -56q65 -69 106 -146zM400 46q-137 7 -162 116q-15 123 166 136q133 9 260 -90l70 70q-56 102 -132 270q110 23 170 62l-28 60q-89 -45 -166 -60q-45 101 -84 178l-128 -32
q37 -71 80 -166q-182 -13 -348 16l8 -70q196 -28 368 -10q41 -78 88 -182q-87 25 -170 20q-119 -2 -198 -56.5t-82 -143.5q-5 -63 52 -122t234 -64q108 -1 256 22l8 74q-130 -29 -262 -28z" />
    <glyph glyph-name="uni3057" unicode="&#x3057;" 
d="M404 778h-136q-8 -146 -12 -276.5t-6 -263.5q5 -150 74.5 -204.5t171.5 -51.5q69 -6 182.5 35t231.5 203l-96 102q-68 -107 -154 -191t-168 -85q-64 2 -87 43.5t-23 132.5q0 284 22 556z" />
    <glyph glyph-name="uni3058" unicode="&#x3058;" 
d="M738 544l92 44q-39 98 -102 166l-94 -46q33 -41 55.5 -76t48.5 -88zM606 474l94 46q-23 53 -44.5 88.5t-55.5 77.5l-96 -48q33 -41 54.5 -76t47.5 -88zM384 778h-136q-8 -146 -12 -276.5t-6 -263.5q5 -150 74.5 -204.5t171.5 -51.5q69 -6 182.5 35t231.5 203l-96 102
q-68 -107 -154 -191t-168 -85q-64 2 -87 43.5t-23 132.5q0 284 22 556z" />
    <glyph glyph-name="uni3059" unicode="&#x3059;" 
d="M464 198q-38 18 -42 102q1 68 23 95.5t51 26.5q43 -2 50 -60q-5 -184 -82 -164zM648 640q-1 77 -4 128h-130q5 -55 4 -130q-207 -1 -398 -14l4 -72q193 22 396 20v-94q-97 4 -155 -46t-59 -138q1 -83 51 -121t129 -33q-86 -82 -204 -100l72 -116q154 44 238 127.5
t86 230.5q1 62 -28 116v176q85 0 144.5 -1.5t127.5 -6.5v68q-137 9 -274 6z" />
    <glyph glyph-name="uni305A" unicode="&#x305a;" 
d="M776 638q-89 4 -180 2q-1 77 -4 128h-130q5 -55 4 -130q-207 -1 -398 -14l4 -72q193 22 396 20v-94q-97 4 -155 -46t-59 -138q1 -83 51 -121t129 -33q-86 -79 -204 -100l68 -112q317 88 328 354q1 62 -28 116v176q85 0 144.5 -1.5t127.5 -6.5v68q-28 3 -52 4l52 38
q-66 98 -110 134l-78 -54q30 -32 50.5 -58t43.5 -60zM412 198q-38 18 -42 102q1 68 23 95.5t51 26.5q43 -2 50 -60q-5 -184 -82 -164zM910 684l80 60q-66 96 -110 130l-78 -54q34 -36 56.5 -65.5t51.5 -70.5z" />
    <glyph glyph-name="uni305B" unicode="&#x305b;" 
d="M758 552v220h-128v-230q-113 -7 -226 -20v224h-128v-238q-105 -10 -206 -26l10 -66q98 16 196 26v-174q-8 -149 34 -212t220 -62q153 -2 304 20v70q-148 -33 -332 -24q-64 0 -82.5 22t-15.5 74v302q109 11 224 20v-172q2 -27 -28 -29.5t-116 17.5l-8 -64
q83 -26 168.5 -18t107.5 82q10 36 6 192l174 12v68z" />
    <glyph glyph-name="uni305C" unicode="&#x305c;" 
d="M824 586l84 50q-70 106 -106 138l-82 -52q34 -36 54.5 -64t49.5 -72zM936 656l84 52q-70 106 -106 138l-82 -52q34 -36 54.5 -64.5t49.5 -73.5zM710 552v220h-128v-230q-113 -7 -226 -20v224h-128v-238q-105 -10 -206 -26l10 -66q98 16 196 26v-174q-8 -149 34 -212
t220 -62q153 -2 304 20v70q-148 -33 -332 -24q-64 0 -82.5 22t-15.5 74v302q109 11 224 20v-172q2 -27 -28 -29.5t-116 17.5l-8 -64q83 -26 168.5 -18t107.5 82q10 36 6 192l174 12v68z" />
    <glyph glyph-name="uni305D" unicode="&#x305d;" 
d="M278 740l4 -70q119 3 268 6q-118 -117 -232 -240q-94 -11 -214 -24l14 -70q144 25 282 32q-39 -102 -38 -162q1 -135 106 -182.5t290 -39.5l18 72q-45 -3 -102 -2q-68 -4 -123.5 26.5t-58.5 131.5q2 92 63.5 137t154.5 49q109 5 200 4v68q-190 -4 -404 -20
q84 90 152 144.5t128 99.5l-56 68q-223 -41 -452 -28z" />
    <glyph glyph-name="uni305E" unicode="&#x305e;" 
d="M838 514l84 50q-73 110 -112 146l-82 -52q34 -37 57.5 -71t52.5 -73zM938 604l84 50q-72 108 -110 142l-82 -52q34 -39 56.5 -69t51.5 -71zM228 740l4 -70q118 2 272 10q-123 -122 -236 -244q-94 -11 -214 -24l14 -70q144 25 282 32q-39 -102 -38 -162q1 -135 106 -182.5
t290 -39.5l18 72q-45 -3 -102 -2q-68 -4 -123.5 26.5t-58.5 131.5q2 92 63.5 137t154.5 49q109 5 200 4v68q-190 -4 -404 -20q84 90 152 144.5t128 99.5l-56 68q-223 -38 -452 -28z" />
    <glyph glyph-name="uni305F" unicode="&#x305f;" 
d="M508 470v-68q193 21 386 0l8 66q-197 25 -394 2zM454 588q95 9 190 40v68q-84 -30 -176 -42q14 90 22 154l-132 16q-10 -76 -28 -182q-99 -8 -210 8l6 -68q85 -10 192 -4q-67 -332 -190 -568l122 -48q138 241 204 626zM700 74q-70 0 -95 37.5t7 144.5l-136 12
q-10 -33 -15 -55.5t-5 -52.5q2 -99 72 -127.5t174 -24.5q107 -2 206 14l6 72q-101 -21 -214 -20z" />
    <glyph glyph-name="uni3060" unicode="&#x3060;" 
d="M782 544l90 58q-61 104 -104 148l-90 -58q73 -83 104 -148zM910 624l88 56q-63 103 -108 146l-88 -58q64 -69 108 -144zM414 588q95 9 190 40v68q-84 -30 -176 -42q14 90 22 154l-132 16q-10 -76 -28 -182q-99 -8 -210 8l6 -68q85 -10 192 -4q-67 -332 -190 -568l122 -48
q138 241 204 626zM468 470v-68q193 21 386 0l8 66q-197 25 -394 2zM660 74q-70 0 -95 37.5t7 144.5l-136 12q-10 -33 -15 -55.5t-5 -52.5q2 -99 72 -127.5t174 -24.5q107 -2 206 14l6 70q-101 -20 -214 -18z" />
    <glyph glyph-name="uni3061" unicode="&#x3061;" 
d="M430 546q189 6 346 48v72q-84 -22 -163 -34.5t-171 -15.5q22 95 32 152l-130 14q-9 -67 -30 -166q-92 7 -184 20l6 -74q77 -11 164 -16q-43 -205 -110 -346l116 -44q45 99 109.5 160.5t176.5 65.5q156 1 136 -150q-13 -85 -87.5 -134t-182.5 -50q-85 1 -154 14l16 -72
q79 -8 158 -8q140 6 254.5 68.5t121.5 207.5q-4 102 -78 144.5t-180 41.5q-108 0 -198 -38q10 34 32 140z" />
    <glyph glyph-name="uni3062" unicode="&#x3062;" 
d="M918 664l96 48q-57 112 -104 156l-96 -48q68 -86 104 -156zM790 590l98 46q-52 113 -98 160l-96 -48q70 -94 96 -158zM382 546q189 6 346 48v72q-84 -22 -163 -34.5t-171 -15.5q22 95 32 152l-130 14q-9 -67 -30 -166q-92 7 -184 20l6 -74q77 -11 164 -16
q-43 -205 -110 -346l116 -44q45 99 109.5 160.5t176.5 65.5q156 1 136 -150q-13 -85 -87.5 -134t-182.5 -50q-85 1 -154 14l16 -72q79 -8 158 -8q140 6 254.5 68.5t121.5 207.5q-4 102 -78 144.5t-180 41.5q-108 0 -198 -38q10 34 32 140z" />
    <glyph glyph-name="uni3063" unicode="&#x3063;" 
d="M604 528q-111 -3 -222 -41t-208 -85l42 -64q82 45 181.5 80t200.5 36q49 1 90.5 -28t41.5 -100q-5 -96 -107.5 -143.5t-278.5 -58.5l60 -122q208 19 335 96t125 248q-5 79 -71 129.5t-189 52.5z" />
    <glyph glyph-name="uni3064" unicode="&#x3064;" 
d="M608 630q-98 -3 -235 -46t-277 -100l32 -60q160 66 281.5 99.5t186.5 32.5q85 -4 128.5 -55t45.5 -119q-2 -109 -126.5 -171t-329.5 -83l46 -124q228 28 381 115.5t159 270.5q-3 109 -83.5 173.5t-208.5 66.5z" />
    <glyph glyph-name="uni3065" unicode="&#x3065;" 
d="M790 590l94 46q-50 109 -94 152l-96 -48q61 -84 96 -150zM916 666l92 46q-50 107 -94 148l-94 -48q33 -41 54 -74t42 -72zM580 626q-98 -3 -235 -46t-277 -100l32 -60q160 66 281.5 99.5t186.5 32.5q85 -4 128.5 -55t45.5 -119q-2 -109 -126.5 -171t-329.5 -83l46 -124
q228 28 381 115.5t159 270.5q-3 109 -83.5 173.5t-208.5 66.5z" />
    <glyph glyph-name="uni3066" unicode="&#x3066;" 
d="M104 628l12 -68q180 22 376 38q-117 -155 -110 -288q2 -149 111 -234.5t299 -97.5l44 128q-218 17 -276 82t-50 134q2 112 64 190t148 104q34 10 82.5 13t91.5 3v68q-396 -30 -792 -72z" />
    <glyph glyph-name="uni3067" unicode="&#x3067;" 
d="M764 314l94 46q-50 110 -94 154l-96 -48q67 -90 96 -152zM902 374l94 46q-50 108 -94 150l-96 -48q61 -76 96 -148zM88 628l12 -68q180 22 376 38q-117 -155 -110 -288q2 -149 111 -234.5t299 -97.5l44 128q-218 17 -276 82t-50 134q2 112 64 190t148 104q34 10 82.5 13
t91.5 3v68q-396 -30 -792 -72z" />
    <glyph glyph-name="uni3068" unicode="&#x3068;" 
d="M454 348q77 48 159.5 96t194.5 108l-70 110q-169 -92 -310 -180q-11 138 -4 276h-130q-3 -181 12 -362q-100 -89 -100 -204q-6 -72 56 -135.5t262 -68.5q135 -4 324 40v76q-103 -30 -181.5 -40.5t-150.5 -9.5q-68 -3 -122.5 25t-57.5 117q-3 19 19 60t99 92z" />
    <glyph glyph-name="uni3069" unicode="&#x3069;" 
d="M784 574l94 46q-54 120 -96 168l-96 -48q59 -85 98 -166zM916 642l94 46q-56 118 -100 164l-96 -48q55 -77 102 -162zM386 348q77 48 159.5 96t194.5 108l-70 110q-169 -92 -310 -180q-11 138 -4 276h-130q-3 -181 12 -362q-100 -89 -100 -204q-6 -72 56 -135.5
t262 -68.5q135 -4 324 40v76q-103 -30 -181.5 -40.5t-150.5 -9.5q-68 -3 -122.5 25t-57.5 117q-3 19 19 60t99 92z" />
    <glyph glyph-name="uni306A" unicode="&#x306a;" 
d="M460 576q66 11 154 40v74q-56 -27 -136 -42q22 96 26 142l-130 18q-2 -67 -34 -176q-109 -4 -224 10l8 -70q84 -6 196 -6q-83 -236 -210 -370l114 -68q72 80 128.5 186t107.5 262zM596 198q4 -88 -16 -125t-58 -41q-23 -4 -49.5 8.5t-38.5 51.5q-16 73 16.5 103.5
t59.5 32.5q61 -2 86 -30zM720 250q-2 132 -10 264h-94h-38q12 -112 12 -230q-115 18 -188.5 -30t-75.5 -134q-3 -45 38 -94t162 -54q169 6 198 134q63 -47 120 -102q33 53 66 112q-88 86 -190 134zM762 678l-66 -104q55 -26 101.5 -59.5t98.5 -86.5l68 104q-107 95 -202 146
z" />
    <glyph glyph-name="uni306B" unicode="&#x306b;" 
d="M454 662v-66q220 -29 440 2v66q-220 -28 -440 -2zM644 90q-87 3 -100.5 65t20.5 141l-134 14q-20 -50 -18 -126q2 -98 72 -130.5t174 -29.5q39 -1 97.5 4t164.5 22v74q-84 -18 -157.5 -26.5t-118.5 -7.5zM362 738l-128 18q-119 -385 -34 -778l126 12q-90 378 36 748z" />
    <glyph glyph-name="uni306C" unicode="&#x306c;" 
d="M610 142q6 86 60 86.5t96 -60.5q-13 -35 -35.5 -67.5t-50.5 -42.5q-61 -21 -70 84zM388 322q-27 42 -68 154q64 59 138 76q-19 -87 -35 -139.5t-35 -90.5zM236 124q-39 -21 -54 52q-5 90 9 137t35 75q32 -82 51 -123.5t35 -68.5q-15 -24 -37 -46t-39 -26zM596 644l4 114
l-134 8q3 -66 0 -138q-92 -24 -174 -84q-30 85 -48 158l-118 -58q27 -86 66 -186q-105 -109 -104 -274q-1 -74 34 -121.5t112 -48.5q83 2 152 70l24 -36l96 88q-28 41 -38 58q94 158 116 376q115 1 169 -90.5t43 -217.5q-58 27 -104 28q-76 -2 -125.5 -43t-50.5 -109
q-4 -142 164 -144q28 -1 76.5 14.5t97.5 69.5q41 -40 74 -82l80 94q-48 63 -98 106q20 77 14 152q-14 128 -100 210.5t-228 85.5z" />
    <glyph glyph-name="uni306D" unicode="&#x306d;" 
d="M604 60q-49 11 -51.5 73t29.5 97q23 21 64 14t76 -62q-21 -78 -52 -104t-66 -18zM406 528q7 65 86 118l-44 66l-28 -14q3 47 18 128h-98h-34q-8 -59 -10 -148q-97 -17 -196 -10l10 -72q88 -2 174 14v-172q-108 -137 -216 -280l90 -102q56 96 118 172q-5 -130 -4 -260h134
q-4 204 -2 402q60 85 128 149.5t120 66.5q54 -7 77 -75.5t23 -136.5q1 -47 -4 -82q-50 20 -106 16q-81 0 -131.5 -42.5t-52.5 -109.5q-6 -53 29.5 -105t158.5 -57q134 13 182 98q38 -37 74 -86l78 114q-51 56 -108 104q14 70 14 170q-5 116 -64.5 183t-157.5 69
q-82 -4 -156.5 -43t-101.5 -75z" />
    <glyph glyph-name="uni306E" unicode="&#x306e;" 
d="M350 182q-46 -66 -74.5 -17t-31.5 173q9 276 226 294q-19 -135 -47.5 -240.5t-72.5 -209.5zM804 368q-2 -119 -84.5 -179.5t-227.5 -86.5l62 -112q172 34 274.5 124.5t105.5 253.5q-3 139 -109.5 235.5t-286.5 98.5q-180 -4 -298 -113t-122 -279q-1 -89 45 -159.5
t145 -74.5q86 4 143 86t91 194q30 103 48 278q107 -11 164 -91.5t50 -174.5z" />
    <glyph glyph-name="uni306F" unicode="&#x306f;" 
d="M638 208q0 -55 -16.5 -99.5t-51.5 -54.5q-71 -20 -94 78q-3 61 22.5 87.5t55.5 22.5q37 -7 52 -14t32 -20zM760 132q80 -63 130 -116l74 110q-82 86 -194 140q-2 47 -3 104t-5 148q81 4 162 20v74q-88 -23 -166 -28q2 93 -2 172h-130q6 -82 6 -178q-126 -9 -248 12
l10 -72q116 -16 238 -8q3 -140 4 -210q-22 6 -46 6q-94 3 -156 -40.5t-62 -139.5q-3 -42 40 -92.5t158 -47.5q78 5 121.5 38.5t68.5 107.5zM348 738l-128 18q-119 -385 -34 -778l126 12q-90 378 36 748z" />
    <glyph glyph-name="uni3070" unicode="&#x3070;" 
d="M824 630l86 50q-71 104 -108 134l-84 -52q34 -36 55.5 -63.5t50.5 -68.5zM938 698l84 50q-70 102 -106 130l-82 -52q34 -36 54.5 -61.5t49.5 -66.5zM296 738l-128 18q-119 -385 -34 -778l126 12q-90 378 36 748zM700 132q80 -63 130 -116l74 110q-82 86 -194 140
q-2 47 -3 104t-5 148q81 4 162 20v74q-88 -23 -166 -28q2 93 -2 172h-130q6 -82 6 -178q-126 -9 -248 12l10 -72q116 -16 238 -8q3 -140 4 -210q-22 6 -46 6q-94 3 -156 -40.5t-62 -139.5q-3 -42 40 -92.5t158 -47.5q78 5 121.5 38.5t68.5 107.5zM578 208q0 -55 -16.5 -99.5
t-51.5 -54.5q-71 -20 -94 78q-3 61 22.5 87.5t55.5 22.5q37 -7 52 -14t32 -20z" />
    <glyph glyph-name="uni3071" unicode="&#x3071;" 
d="M888 706q-48 4 -50 42q-3 40 46 44q45 -3 48 -42q-3 -45 -44 -44zM888 634q51 1 83 34.5t33 79.5q-2 47 -36 79.5t-84 34.5q-112 -5 -118 -114q8 -107 122 -114zM298 738l-128 18q-119 -385 -34 -778l126 12q-90 378 36 748zM578 208q0 -55 -16.5 -99.5t-51.5 -54.5
q-71 -20 -94 78q-3 61 22.5 87.5t55.5 22.5q37 -7 52 -14t32 -20zM700 132q80 -63 130 -116l74 110q-82 86 -194 140q-2 47 -3 104t-5 148q81 4 162 20v74q-88 -23 -166 -28q2 93 -2 172h-130q6 -82 6 -178q-126 -9 -248 12l10 -72q116 -16 238 -8q3 -140 4 -210
q-22 6 -46 6q-94 3 -156 -40.5t-62 -139.5q-3 -42 40 -92.5t158 -47.5q78 5 121.5 38.5t68.5 107.5z" />
    <glyph glyph-name="uni3072" unicode="&#x3072;" 
d="M780 326q39 -51 84 -96l96 94q-174 165 -218 420l-128 -46q51 -126 48 -264q0 -147 -48.5 -255t-151.5 -127q-61 -12 -101.5 27t-48.5 157q1 111 61.5 209.5t92.5 122.5q62 42 98 46l-34 104q-201 -58 -396 -68l14 -68q79 11 180 26q-79 -113 -109.5 -201.5t-28.5 -170.5
q2 -108 66.5 -178.5t167.5 -73.5q283 11 356 342z" />
    <glyph glyph-name="uni3073" unicode="&#x3073;" 
d="M804 572l94 46q-50 109 -88 152l-92 -44q64 -95 86 -154zM930 644l88 46q-51 108 -90 150l-90 -48q65 -88 92 -148zM726 326q39 -51 84 -96l96 94q-174 165 -218 420l-128 -46q51 -126 48 -264q0 -147 -48.5 -255t-151.5 -127q-61 -12 -101.5 27t-48.5 157
q1 111 61.5 209.5t92.5 122.5q62 42 98 46l-34 104q-201 -58 -396 -68l14 -68q79 11 180 26q-79 -113 -109.5 -201.5t-28.5 -170.5q2 -108 66.5 -178.5t167.5 -73.5q283 11 356 342z" />
    <glyph glyph-name="uni3074" unicode="&#x3074;" 
d="M886 646q-48 4 -50 42q-3 40 46 44q45 -3 48 -42q-3 -45 -44 -44zM886 574q51 1 83 34.5t33 79.5q-2 47 -36 79.5t-84 34.5q-112 -5 -118 -114q8 -107 122 -114zM724 326q39 -51 84 -96l96 94q-174 165 -218 420l-128 -46q51 -126 48 -264q0 -147 -48.5 -255t-151.5 -127
q-61 -12 -101.5 27t-48.5 157q1 111 61.5 209.5t92.5 122.5q62 42 98 46l-34 104q-201 -58 -396 -68l14 -68q79 11 180 26q-79 -113 -109.5 -201.5t-28.5 -170.5q2 -108 66.5 -178.5t167.5 -73.5q283 11 356 342z" />
    <glyph glyph-name="uni3075" unicode="&#x3075;" 
d="M636 544l74 98q-128 105 -286 160l-72 -98q154 -59 284 -160zM490 54q-96 2 -186 28l6 -74q103 -23 198 -22q72 0 124.5 41t55.5 125q1 10 -6 48.5t-44 91.5q-55 72 -106 130q27 24 64 52l-76 96l-178 -126q93 -100 180 -214q38 -55 33 -113.5t-65 -62.5zM856 6l118 64
q-68 197 -208 352l-114 -70q136 -148 204 -346zM280 398q-92 -178 -220 -328l112 -66q133 151 216 324z" />
    <glyph glyph-name="uni3076" unicode="&#x3076;" 
d="M820 514l84 50q-75 109 -116 144l-82 -52q34 -37 59.5 -68.5t54.5 -73.5zM932 596l84 54q-76 105 -112 138l-86 -52q34 -37 59.5 -67.5t54.5 -72.5zM250 398q-92 -178 -220 -328l112 -66q133 151 216 324zM826 6l118 64q-68 197 -208 352l-114 -70q136 -148 204 -346z
M606 544l74 98q-128 105 -286 160l-72 -98q154 -59 284 -160zM460 54q-96 2 -186 28l6 -74q103 -23 198 -22q72 0 124.5 41t55.5 125q1 10 -6 48.5t-44 91.5q-55 72 -106 130q27 24 64 52l-76 96l-178 -126q93 -100 180 -214q38 -55 33 -113.5t-65 -62.5z" />
    <glyph glyph-name="uni3077" unicode="&#x3077;" 
d="M866 546q-48 4 -50 42q-3 40 46 44q45 -3 48 -42q-3 -45 -44 -44zM866 474q51 1 83 34.5t33 79.5q-2 47 -36 79.5t-84 34.5q-112 -5 -118 -114q8 -107 122 -114zM250 398q-92 -178 -220 -328l112 -66q133 151 216 324zM826 6l118 64q-68 197 -208 352l-114 -70
q136 -148 204 -346zM606 544l74 98q-128 105 -286 160l-72 -98q154 -59 284 -160zM460 54q-96 2 -186 28l6 -74q103 -23 198 -22q72 0 124.5 41t55.5 125q1 10 -6 48.5t-44 91.5q-55 72 -106 130q27 24 64 52l-76 96l-178 -126q93 -100 180 -214q38 -55 33 -113.5t-65 -62.5
z" />
    <glyph glyph-name="uni3078" unicode="&#x3078;" 
d="M342 558q-102 -137 -272 -294l88 -96q176 164 278 296q24 22 36 6q90 -108 189 -219t225 -227l82 110q-227 207 -372 390q-65 84 -128.5 98.5t-125.5 -64.5z" />
    <glyph glyph-name="uni3079" unicode="&#x3079;" 
d="M746 456l94 54q-28 46 -51.5 77t-56.5 65l-96 -58q37 -37 60.5 -69.5t49.5 -68.5zM876 532l90 54q-54 99 -108 142l-88 -58q34 -37 57 -68t49 -70zM324 558q-102 -137 -272 -294l88 -96q176 164 278 296q24 22 36 6q90 -108 189 -219t225 -227l82 110q-227 207 -372 390
q-65 84 -128.5 98.5t-125.5 -64.5z" />
    <glyph glyph-name="uni307A" unicode="&#x307a;" 
d="M826 566q-48 4 -50 42q-3 40 46 44q45 -3 48 -42q-3 -45 -44 -44zM826 494q51 1 83 34.5t33 79.5q-2 47 -36 79.5t-84 34.5q-112 -5 -118 -114q8 -107 122 -114zM324 558q-102 -137 -272 -294l88 -96q176 164 278 296q24 22 36 6q90 -108 189 -219t225 -227l82 110
q-227 207 -372 390q-65 84 -128.5 98.5t-125.5 -64.5z" />
    <glyph glyph-name="uni307B" unicode="&#x307b;" 
d="M640 196q5 -38 -8 -84.5t-56 -51.5q-32 -4 -55.5 14t-22.5 84q4 60 44 72q61 5 98 -34zM762 266q-2 26 -3.5 63t-2.5 103q87 2 174 14v70q-87 -17 -174 -18v138q83 3 154 16v68q-240 -41 -488 -16v-66q106 -10 206 -8v-136q-106 -2 -218 6v-66q110 -7 220 -4
q-1 -58 -0.5 -87t2.5 -53q-107 10 -176.5 -26.5t-71.5 -117.5q3 -86 63 -119t141 -29q108 6 142.5 48t37.5 80q69 -46 132 -112l68 118q-97 95 -206 134zM360 742l-128 18q-119 -385 -34 -778l126 12q-90 378 36 748z" />
    <glyph glyph-name="uni307C" unicode="&#x307c;" 
d="M242 742l-128 18q-119 -385 -34 -778l126 12q-90 378 36 748zM936 686l84 50q-72 106 -110 138l-82 -52q34 -36 56.5 -65.5t51.5 -70.5zM786 676q17 -24 38 -54l84 50q-72 106 -110 138l-78 -52q15 -18 40 -44q-230 -34 -462 -10v-66q106 -10 206 -8v-136q-106 -2 -218 6
v-66q110 -7 220 -4q-1 -58 -0.5 -87t2.5 -55q-107 11 -176.5 -25t-71.5 -117q5 -86 63.5 -122.5t136.5 -35.5q103 5 141.5 52t42.5 86q69 -46 132 -112l68 118q-97 95 -206 134q-2 26 -3.5 63t-2.5 103q87 2 174 14v70q-87 -17 -174 -18v138q83 3 154 16v24zM514 196
q5 -38 -8 -84.5t-56 -51.5q-32 -4 -55.5 14t-22.5 84q4 60 44 72q61 5 98 -34z" />
    <glyph glyph-name="uni307D" unicode="&#x307d;" 
d="M236 742l-128 18q-119 -385 -34 -778l126 12q-90 378 36 748zM896 616q-48 4 -50 42q-3 40 46 44q45 -3 48 -42q-3 -45 -44 -44zM896 544q51 1 83 34.5t33 79.5q-2 47 -36 79.5t-84 34.5q-112 -5 -118 -114q8 -107 122 -114zM632 266q-2 26 -3.5 63t-2.5 103q87 2 174 14
v70q-87 -17 -174 -18v138q88 3 134 16v68q-230 -41 -468 -16v-66q106 -10 206 -8v-136q-106 -2 -218 6v-66q110 -7 220 -4q-1 -58 -0.5 -87t2.5 -53q-107 10 -176.5 -26.5t-71.5 -117.5q3 -86 63 -119t141 -29q108 6 142.5 48t37.5 80q69 -46 132 -112l68 118
q-97 95 -206 134zM520 196q5 -38 -8 -84.5t-56 -51.5q-32 -4 -55.5 14t-22.5 84q4 60 44 72q61 5 98 -34z" />
    <glyph glyph-name="uni307E" unicode="&#x307e;" 
d="M476 194v-50q0 -28 -14.5 -64.5t-43.5 -45.5q-98 -13 -114 94q-1 74 38.5 99.5t77.5 10.5q43 -22 56 -44zM616 136q96 -56 198 -144l74 112q-138 117 -278 168v150q126 5 250 28v70q-129 -27 -252 -30v128q117 2 234 22v72q-117 -26 -236 -28q2 64 -2 128h-134
q3 -58 4 -130q-132 -1 -258 22v-70q129 -21 262 -18v-128q-144 -4 -282 22v-72q149 -16 280 -14v-130l-38 8q-91 16 -162.5 -28t-77.5 -136q-3 -55 35 -110t153 -62q87 -2 151 40t79 130z" />
    <glyph glyph-name="uni307F" unicode="&#x307f;" 
d="M222 198q-6 80 40.5 129.5t121.5 58.5q-36 -81 -61 -128t-51 -82q-34 -34 -50 22zM816 210q48 -35 96 -84l58 132q-60 47 -116 80q14 95 16 194l-132 16q5 -73 -8 -146q-86 33 -180 48q72 154 144 234l-78 68q-183 -39 -368 -30l8 -72q112 -2 260 14q-54 -106 -102 -208
q-131 -12 -213.5 -81t-84.5 -185q9 -144 138 -150q84 4 129 63.5t69 126.5l64 152q42 -6 97.5 -41t88.5 -69q-31 -74 -90 -129t-172 -107l104 -92q191 77 272 266z" />
    <glyph glyph-name="uni3080" unicode="&#x3080;" 
d="M238 238q-10 101 1.5 143t28.5 49q17 11 34 -3t22 -79q5 -50 -10 -90q-22 -56 -47 -56.5t-29 36.5zM510 -18q155 -4 241.5 33t88.5 177v90l-142 52q14 -71 10 -174q2 -65 -38.5 -89.5t-155.5 -22.5h-60q-59 6 -54 52v82q84 117 30 252v186q89 8 176 32v70
q-90 -27 -176 -36v128h-130v-136q-94 -5 -182 26v-74q90 -24 186 -18v-114q-174 -14 -174 -204q-1 -73 36 -119.5t106 -46.5v-14q3 -90 73.5 -112.5t164.5 -19.5zM734 672l-64 -112q58 -28 109.5 -62t110.5 -86l66 112q-116 101 -222 148z" />
    <glyph glyph-name="uni3081" unicode="&#x3081;" 
d="M462 368q-14 26 -31.5 60.5t-36.5 99.5q59 38 148 46q-20 -75 -40.5 -122t-39.5 -84zM292 172q-53 -5 -66 80q-6 82 16.5 129t49.5 75q26 -81 48.5 -126.5t43.5 -77.5q-16 -24 -42 -51.5t-50 -28.5zM688 636l24 138q-67 9 -130 18q-9 -69 -24 -150q-105 -5 -186 -52
q-26 81 -40 154l-120 -42q22 -86 50 -178q-131 -117 -132 -282q-2 -77 31.5 -132.5t126.5 -57.5q100 5 174 92q21 -27 48 -50l96 86q-34 31 -64 74q23 32 58 106t70 208q45 -8 103 -66.5t53 -161.5q-3 -70 -61.5 -144t-248.5 -124l84 -112q353 83 352 374q0 109 -65 189.5
t-199 112.5z" />
    <glyph glyph-name="uni3082" unicode="&#x3082;" 
d="M590 -2q133 -1 228.5 53t103.5 179q-1 155 -110 244l-136 -34q67 -72 90.5 -118.5t23.5 -89.5q-3 -107 -64.5 -139.5t-129.5 -28.5q-90 -2 -121.5 32.5t-30.5 127.5v16q-1 7 -1 24.5t3 67.5q42 -2 86 1t116 11l2 70q-131 -18 -196 -14q6 91 18 174q102 0 186 6l6 68
q-97 -10 -178 -8q9 67 24 150l-132 10q-13 -65 -26 -154q-96 8 -194 40l-4 -66q79 -25 186 -38q-13 -131 -16 -174q-100 12 -194 52l-2 -76q92 -30 190 -42q-2 -65 -2.5 -90t0.5 -32q0 -219 274 -222z" />
    <glyph glyph-name="uni3083" unicode="&#x3083;" 
d="M542 540l110 54q-37 85 -100 140l-110 -52q59 -61 100 -142zM398 468q-42 81 -78 144l-120 -52q39 -61 78 -142q-79 -35 -160 -70l38 -58q72 38 150 70q57 -119 92.5 -215t63.5 -187l120 44q-49 177 -154 408q145 58 206 56q49 2 85.5 -22t38.5 -70q-1 -33 -18 -65.5
t-50 -38.5q-98 -6 -150 18l4 -76q75 -21 138 -20q91 0 146.5 46.5t57.5 135.5q-11 163 -204 162q-63 1 -141 -20.5t-143 -47.5z" />
    <glyph glyph-name="uni3084" unicode="&#x3084;" 
d="M530 616l112 54q-43 95 -106 160l-108 -50q60 -76 102 -164zM384 544q-44 94 -90 170l-122 -50q47 -78 88 -174q-95 -47 -178 -96l36 -56q78 49 172 92q65 -140 109 -258.5t75 -233.5l122 44q-31 117 -74.5 238.5t-105.5 265.5q182 82 290 72q54 -4 82 -42.5t22 -89.5
q-14 -88 -108 -106q-44 -9 -166 24l10 -72q88 -25 164 -26q95 1 158 44t66 148q-3 93 -66 141t-162 49q-160 -6 -322 -84z" />
    <glyph glyph-name="uni3085" unicode="&#x3085;" 
d="M654 510q36 -3 72 -38t30 -120q0 -61 -30 -118.5t-92 -63.5q17 104 21.5 178.5t-1.5 161.5zM868 352q-2 103 -63 164.5t-163 67.5q-3 35 -20 100l-128 -6q15 -46 18 -104q-131 -39 -190 -128q3 125 24 190l-128 16q-46 -274 -2 -548l130 18q-27 135 13.5 237.5
t164.5 144.5q5 -83 3 -148.5t-11 -147.5q-31 31 -51 70t-27 54l-80 -90q32 -67 112 -118q-60 -60 -122 -96l118 -72q84 55 136 140q119 1 191.5 63.5t74.5 192.5z" />
    <glyph glyph-name="uni3086" unicode="&#x3086;" 
d="M664 572q60 -7 99 -50.5t35 -151.5q-6 -70 -41.5 -137t-118.5 -71q26 111 30.5 204.5t-4.5 205.5zM926 370q-3 115 -79 184t-195 80q-12 78 -36 136l-130 -6q21 -54 34 -144q-157 -37 -230 -140q6 117 36 210l-126 12q-86 -313 -10 -628l128 22q-47 179 8.5 306.5
t209.5 157.5q6 -107 3.5 -189t-19.5 -179q-41 33 -67.5 84.5t-40.5 93.5l-84 -90q42 -100 150 -160q-65 -68 -144 -112l106 -78q97 57 170 162q126 -7 218.5 60.5t97.5 217.5z" />
    <glyph glyph-name="uni3087" unicode="&#x3087;" 
d="M448 202v-92q2 -48 -46 -56q-42 -2 -56 12q-22 11 -35.5 55.5t21.5 88.5q49 44 116 -8zM574 268q-4 55 -4 182q117 -1 232 22l-4 64q-116 -25 -228 -20v160h-126v-268q-1 -54 2 -120q-122 14 -182.5 -32t-59.5 -112q-4 -52 34 -100t158 -52q169 8 182 150
q90 -53 172 -132l68 110q-109 101 -244 148z" />
    <glyph glyph-name="uni3088" unicode="&#x3088;" 
d="M452 226v-58q-1 -46 -16.5 -82.5t-45.5 -43.5q-44 -10 -78 12.5t-42 89.5q-6 76 32 100t74 18q48 -8 76 -36zM578 296q-3 87 -2 232q138 -1 274 22l-4 66q-141 -24 -270 -24v190h-130v-292q-1 -82 2 -170q-135 23 -216 -28t-80 -146q-1 -56 50 -109.5t178 -58.5
q86 1 143.5 49.5t60.5 146.5q94 -49 224 -158l68 106q-151 127 -298 174z" />
    <glyph glyph-name="uni3089" unicode="&#x3089;" 
d="M340 814l-36 -124q83 -10 151 -24t165 -40l30 126q-102 24 -168.5 37t-141.5 25zM360 404q14 119 22 220l-130 14q-5 -219 -64 -428l116 -34q32 107 107.5 170.5t186.5 65.5q58 0 98.5 -31.5t39.5 -106.5q-10 -120 -95 -162t-165 -42q-96 -3 -192 10l22 -66
q261 -25 407 43.5t149 202.5q-3 101 -77 159.5t-183 60.5q-135 -1 -242 -76z" />
    <glyph glyph-name="uni308A" unicode="&#x308a;" 
d="M804 374v182q0 110 -14 218h-134q23 -139 20 -280v-112q6 -132 -28 -218t-182 -132l90 -112q171 72 212.5 183t35.5 271zM366 712l-130 16q-32 -186 -30 -378q-2 -110 31 -186.5t125 -79.5h8q80 3 126 59t64 127l-108 84q-20 -71 -30.5 -110t-33.5 -76
q-24 -34 -43.5 14.5t-16.5 167.5q8 182 38 362z" />
    <glyph glyph-name="uni308B" unicode="&#x308b;" 
d="M442 62q-46 36 -35 97.5t61 70.5q64 11 96 -154q-76 -43 -122 -14zM566 506q117 97 220 168l-82 86q-225 -33 -450 -18l4 -72q127 -3 308 6q-141 -120 -245 -213.5t-199 -178.5l92 -92q87 99 180.5 171.5t201.5 82.5q73 2 110.5 -32t43.5 -86t-15 -103.5t-63 -82.5
q-30 69 -76.5 105t-127.5 37q-82 -2 -126.5 -42t-41.5 -98q3 -86 67 -120.5t143 -33.5q141 2 245.5 68t110.5 216q-3 109 -86.5 172.5t-213.5 59.5z" />
    <glyph glyph-name="uni308C" unicode="&#x308c;" 
d="M776 4q135 3 220 118l-60 126q-36 -60 -76.5 -112t-57.5 -62q-38 -24 -36 36q24 227 40 388q4 63 -36.5 107.5t-119.5 44.5q-67 -1 -145 -52t-93 -72q7 31 22 63t50 47l-26 78l-36 -18q1 66 8 132h-128q0 -78 -6 -164q-102 -15 -192 -12l6 -74q92 9 178 18
q-2 -84 -2.5 -113t-1.5 -47q-117 -138 -218 -284l94 -98q56 84 116 166l-2 -250h92h36q-4 203 -2 388q63 77 132.5 152.5t109.5 81.5q23 -2 28.5 -30.5t5.5 -59.5q-1 -21 -6 -69.5t-11.5 -107t-11.5 -107t-5 -68.5q-4 -144 134 -146z" />
    <glyph glyph-name="uni308D" unicode="&#x308d;" 
d="M248 732l8 -72q62 -2 136.5 0t179.5 10q-275 -238 -456 -404l96 -92q76 91 177 169.5t205 92.5q77 0 117.5 -35.5t30.5 -136.5q-26 -133 -155.5 -174.5t-274.5 -33.5l12 -68q254 0 396.5 62.5t149.5 227.5q-1 102 -86.5 165t-213.5 57q100 101 206 172l-72 80
q-228 -31 -456 -20z" />
    <glyph glyph-name="uni308E" unicode="&#x308e;" 
d="M450 448q5 55 22 81.5t36 40.5l-20 68l-30 -10l6 124h-120q-1 -79 -8 -148q-82 -11 -166 -10l12 -72q73 5 152 16l-10 -162q-94 -112 -190 -248q54 -48 102 -98l76 106v-168h140v336q87 149 186 148q47 3 84 -35.5t30 -124.5q-10 -149 -266 -178l54 -124
q213 46 277.5 135.5t58.5 166.5q-2 94 -67 155.5t-173 68.5q-72 -1 -123 -24.5t-63 -43.5z" />
    <glyph glyph-name="uni308F" unicode="&#x308f;" 
d="M410 522q7 65 26 93.5t50 40.5l-42 60l-22 -10q2 49 10 110h-132l-6 -132q-96 -12 -194 -12l10 -74q92 9 176 18l-2 -178q-119 -138 -220 -278l86 -106q57 82 124 164q2 -127 -2 -254h130q-3 202 0 398q57 70 122.5 120t131.5 50q82 -8 114.5 -68.5t31.5 -119.5
q-3 -98 -81 -149.5t-239 -76.5l68 -118q182 28 280 110.5t100 241.5q-2 105 -77.5 172t-200.5 72q-89 -3 -155 -30t-87 -44z" />
    <glyph glyph-name="uni3090" unicode="&#x3090;" 
d="M556 96q-6 111 58 106q42 -10 84 -98q-40 -49 -86 -53t-56 45zM376 362q-31 -85 -68.5 -163.5t-57.5 -94.5q-31 -17 -34 14q6 149 72 232q61 88 116 114zM652 726l-80 54q-165 -40 -336 -26l2 -74q120 -3 246 12l-40 -136q-136 -50 -229.5 -156t-96.5 -232
q-1 -137 118 -144q157 -14 264 318l54 170q140 17 201.5 -60.5t56.5 -171.5q-4 -64 -34 -104q-71 102 -172 94q-57 -2 -102.5 -40t-47.5 -96q-3 -51 34 -99.5t150 -52.5q132 1 212.5 83t83.5 235q-1 110 -93 194.5t-265 83.5q35 104 74 148z" />
    <glyph glyph-name="uni3091" unicode="&#x3091;" 
d="M488 442q37 -4 33 -62t-51 -80q-49 1 -45 63t63 79zM786 710l-68 86q-241 -32 -454 -16l4 -72q44 -1 102.5 -1t173.5 5q-148 -72 -231 -123.5t-163 -108.5l80 -92q76 74 166.5 127t215.5 59q148 1 104 -150q-13 -38 -74 -64q-1 4 2 8q-1 22 -8 42q-5 24 -34 48
q-54 36 -114 34q-77 -1 -122 -36.5t-46 -93.5q-4 -41 28 -82q-121 -94 -262 -254l98 -76q89 98 122 128q50 34 70 32q25 3 49 -23t41 -117h112q19 103 56.5 144.5t69.5 43.5q41 1 72 -54t62 -132l114 34q-65 194 -240 208q-65 -2 -112.5 -33t-71.5 -111q-11 74 -30 101
t-48 31l30 28q167 -10 265 56.5t101 183.5q-3 76 -70 120t-174 40q122 64 184 80z" />
    <glyph glyph-name="uni3092" unicode="&#x3092;" 
d="M430 164q-2 24 80 88v-108h130v180q129 61 274 116l-52 122q-139 -60 -244 -110q-50 83 -138 76q-17 -1 -36 -4q14 21 56 114q102 2 288 32v68q-133 -25 -268 -32q21 63 30 112l-136 14q-8 -55 -34 -128q-113 -3 -216 12v-72q73 -7 192 -8q-118 -223 -236 -322l104 -88
q121 170 222 236q74 15 58 -68q-199 -103 -200 -248q4 -105 83 -135t181 -29q140 1 278 28v72q-136 -28 -274 -26q-90 -1 -116 22q-23 25 -26.5 43t0.5 43z" />
    <glyph glyph-name="uni3093" unicode="&#x3093;" 
d="M454 454q69 144 166 274l-114 64q-242 -363 -394 -780l120 -50q41 127 98 242q31 66 74 131t92 57q40 -3 30 -192q-9 -76 18.5 -140t145.5 -68q118 4 179.5 82.5t98.5 193.5l-108 86q-33 -102 -75 -195t-99 -99q-26 -2 -33 18t-7 76l-4 156q-13 140 -142 148
q-25 1 -46 -4z" />
    <glyph glyph-name="uni30A1" unicode="&#x30a1;" 
d="M536 430q-1 25 -4 90h-136q5 -76 4 -100q1 -93 -52 -167.5t-184 -136.5l112 -92q271 153 260 406zM660 306q77 65 126.5 137t101.5 163l-66 64h-642v-78h542q-34 -61 -73 -109.5t-99 -96.5z" />
    <glyph glyph-name="uni30A2" unicode="&#x30a2;" 
d="M538 480q-1 22 -2 74h-134q1 -66 2 -96q4 -132 -52.5 -231t-229.5 -173l116 -98q176 91 239.5 221t60.5 303zM660 310q91 65 147 135.5t101 148.5q-1 5 44 56l-74 68h-746v-78h644q-70 -142 -220 -238z" />
    <glyph glyph-name="uni30A3" unicode="&#x30a3;" 
d="M616 470q104 71 194 166l-78 62q-127 -134 -272.5 -215.5t-337.5 -128.5l46 -88q104 35 175.5 64t128.5 58v-394h144v476z" />
    <glyph glyph-name="uni30A4" unicode="&#x30a4;" 
d="M632 520q124 82 230 200l-76 64q-162 -167 -334 -259t-364 -139l44 -80q119 31 203.5 62.5t152.5 69.5v-474h144v556z" />
    <glyph glyph-name="uni30A5" unicode="&#x30a5;" 
d="M826 422q1 13 6.5 37.5t17.5 78.5l-68 40h-200v122h-142v-122h-240v-320h144v242h354q-28 -181 -124.5 -269.5t-279.5 -130.5l108 -112q188 55 292 158t132 276z" />
    <glyph glyph-name="uni30A6" unicode="&#x30a6;" 
d="M374 -38q185 43 326.5 173t173.5 399q2 14 20 70l-72 44h-244v152h-144v-152h-282v-366h142v288h448q-21 -189 -122.5 -314.5t-343.5 -179.5z" />
    <glyph glyph-name="uni30A7" unicode="&#x30a7;" 
d="M872 162h-288v384h250v78h-634v-78h240v-384h-284v-78h716v78z" />
    <glyph glyph-name="uni30A8" unicode="&#x30a8;" 
d="M586 112v476h308v78h-744v-78h292v-476h-344v-78h840v78h-352z" />
    <glyph glyph-name="uni30A9" unicode="&#x30a9;" 
d="M882 558h-196v138h-142v-138h-346v-78h292q-75 -112 -152.5 -176t-177.5 -110l88 -102q199 103 296 242v-226q-5 -32 -52.5 -32t-87.5 8l12 -66q101 -9 166 -6q95 7 104 110v358h196v78z" />
    <glyph glyph-name="uni30AA" unicode="&#x30aa;" 
d="M694 596v166h-142v-166h-420v-78h400q-87 -126 -196 -214t-246 -156l90 -106q235 124 372 282v-250q-5 -55 -61 -53.5t-103 11.5l14 -70q80 -7 146 -6q85 3 116 35t30 71v456h226v78h-226z" />
    <glyph glyph-name="uni30AB" unicode="&#x30ab;" 
d="M820 64q25 95 32 214.5t12 281.5l-70 38h-252q2 35 4 164h-136q6 -87 0 -164h-278v-78h274q-22 -177 -91.5 -286t-212.5 -198l112 -88q147 101 226.5 237.5t97.5 334.5h192q-5 -171 -19 -299t-33 -165q-12 -21 -32 -18q-37 -3 -164 12l14 -72q93 -8 186 -8
q48 -2 83.5 14.5t54.5 79.5z" />
    <glyph glyph-name="uni30AC" unicode="&#x30ac;" 
d="M874 852l-68 -48q33 -30 70 -68.5t54 -61.5l68 56q-19 22 -52 57t-72 65zM756 768l-64 -52q28 -26 65.5 -61t60.5 -61l68 56q-25 23 -60 57t-70 61zM768 46q25 95 32 214.5t12 281.5l-70 38h-252q2 40 4 164h-136q6 -87 0 -164h-278v-78h276q-24 -177 -93.5 -286
t-212.5 -198l112 -88q147 101 226.5 237.5t97.5 334.5h192q-5 -171 -19 -299t-33 -165q-12 -21 -32 -18q-37 -3 -164 12l14 -72q93 -8 186 -8q48 -2 83.5 15t54.5 79z" />
    <glyph glyph-name="uni30AD" unicode="&#x30ad;" 
d="M604 230l318 56l-14 76l-318 -56l-40 226l282 46l-18 76l-276 -46l-24 166l-146 -20l30 -170l-288 -48l18 -76l284 48l36 -226l-330 -58l20 -76l326 58l50 -278l140 26z" />
    <glyph glyph-name="uni30AE" unicode="&#x30ae;" 
d="M874 852l-68 -48q33 -30 70 -68.5t54 -61.5l68 56q-19 22 -52 57t-72 65zM756 768l-64 -52q28 -26 65.5 -61t60.5 -61l68 56q-25 23 -60 57t-70 61zM514 230l318 56l-14 76l-318 -56l-40 226l282 46l-18 76l-276 -46l-24 166l-146 -20l30 -170l-288 -48l18 -76l284 48
l36 -226l-330 -58l20 -76l326 58l50 -278l140 26z" />
    <glyph glyph-name="uni30AF" unicode="&#x30af;" 
d="M334 -78q209 93 342 251.5t192 408.5l-60 50h-282q13 17 38 98l-128 44q-45 -143 -123.5 -244.5t-212.5 -181.5l116 -84q85 54 159 132t121 158h226q-63 -203 -182 -327.5t-318 -200.5z" />
    <glyph glyph-name="uni30B0" unicode="&#x30b0;" 
d="M874 852l-68 -48q33 -30 70 -68.5t54 -61.5l68 56q-19 22 -52 57t-72 65zM756 768l-64 -52q28 -26 65.5 -61t60.5 -61l68 56q-25 23 -60 57t-70 61zM244 -78q209 93 342 251.5t192 408.5l-60 50h-282q13 26 38 98l-128 44q-45 -143 -123.5 -244.5t-212.5 -181.5l116 -84
q85 54 159 132t121 158h226q-63 -203 -182 -327.5t-318 -200.5z" />
    <glyph glyph-name="uni30B1" unicode="&#x30b1;" 
d="M420 594q18 39 36 150l-134 26q-19 -142 -80 -246.5t-182 -197.5l124 -72q60 50 111.5 111t100.5 151h180q-12 -184 -84.5 -298t-215.5 -200l122 -84q147 99 223.5 238.5t88.5 343.5h226v78h-516z" />
    <glyph glyph-name="uni30B2" unicode="&#x30b2;" 
d="M874 852l-68 -48q33 -30 70 -68.5t54 -61.5l68 56q-19 22 -52 57t-72 65zM756 768l-64 -52q28 -26 65.5 -61t60.5 -61l68 56q-25 23 -60 57t-70 61zM366 584q15 39 34 150l-134 26q-19 -142 -80 -246.5t-182 -197.5l124 -72q60 50 111 111t99 151h182
q-12 -184 -84.5 -298t-215.5 -200l122 -84q147 99 223.5 238.5t88.5 343.5h226v78h-514z" />
    <glyph glyph-name="uni30B3" unicode="&#x30b3;" 
d="M718 26v-52h146v702h-686v-78h540v-494h-552v-78h552z" />
    <glyph glyph-name="uni30B4" unicode="&#x30b4;" 
d="M874 852l-68 -48q33 -30 70 -68.5t54 -61.5l68 56q-19 22 -52 57t-72 65zM756 768l-64 -52q28 -26 65.5 -61t60.5 -61l68 56q-25 23 -60 57t-70 61zM586 0v-52h146v702h-686v-78h540v-494h-552v-78h552z" />
    <glyph glyph-name="uni30B5" unicode="&#x30b5;" 
d="M754 572v188h-142v-188h-196v182h-142v-182h-186v-78h186v-288h142v288h202q3 -178 -62 -285t-238 -167l106 -102q179 73 252.5 206t71.5 348h190v78h-184z" />
    <glyph glyph-name="uni30B6" unicode="&#x30b6;" 
d="M874 852l-68 -48q33 -30 70 -68.5t54 -61.5l68 56q-19 22 -52 57t-72 65zM756 768l-64 -52q28 -26 65.5 -61t60.5 -61l68 56q-25 23 -60 57t-70 61zM674 552v188h-142v-188h-196v182h-142v-182h-186v-78h186v-288h142v288h202q3 -178 -62 -285t-238 -167l106 -102
q179 74 252.5 206.5t71.5 347.5h190v78h-184z" />
    <glyph glyph-name="uni30B7" unicode="&#x30b7;" 
d="M578 596q-65 52 -125.5 93t-136.5 85l-74 -108q77 -43 134.5 -84t123.5 -96zM448 408q-69 50 -130.5 87.5t-137.5 74.5l-70 -112q74 -40 134.5 -77.5t129.5 -86.5zM844 586q-77 -141 -161.5 -230t-190.5 -148q-62 -36 -142.5 -63t-201.5 -47l70 -130q195 41 342 128
q89 51 186 138.5t184 223.5z" />
    <glyph glyph-name="uni30B8" unicode="&#x30b8;" 
d="M874 852l-68 -48q33 -30 70 -68.5t54 -61.5l68 56q-19 22 -52 57t-72 65zM756 768l-64 -52q28 -26 65.5 -61t60.5 -61l68 56q-25 23 -60 57t-70 61zM568 576q-65 52 -125.5 93t-136.5 85l-74 -108q77 -43 134.5 -84t123.5 -96zM438 388q-69 50 -130.5 87.5t-137.5 74.5
l-70 -112q74 -40 134.5 -77.5t129.5 -86.5zM834 566q-77 -141 -161.5 -230t-190.5 -148q-62 -36 -142.5 -63t-201.5 -47l70 -130q195 42 342 128q89 51 186 138.5t184 223.5z" />
    <glyph glyph-name="uni30B9" unicode="&#x30b9;" 
d="M650 334q88 116 140 254q-5 -2 38 56l-74 58h-564v-78h468q-95 -209 -229.5 -337.5t-330.5 -210.5l94 -106q232 106 374 264q119 -104 254 -280l106 96q-149 167 -276 284z" />
    <glyph glyph-name="uni30BA" unicode="&#x30ba;" 
d="M874 852l-68 -48q33 -30 70 -68.5t54 -61.5l68 56q-19 22 -52 57t-72 65zM756 768l-64 -52q28 -26 65.5 -61t60.5 -61l68 56q-25 23 -60 57t-70 61zM566 298q88 116 140 254q-5 -2 38 56l-74 58h-564v-78h468q-95 -209 -229.5 -337.5t-330.5 -210.5l94 -106
q232 106 374 264q119 -104 254 -280l106 96q-149 167 -276 284z" />
    <glyph glyph-name="uni30BB" unicode="&#x30bb;" 
d="M732 512q-71 -145 -198 -248l126 -68q72 71 127 151.5t111 198.5l-68 64l-382 -76v222h-144v-252l-238 -48l22 -74l216 42v-292q1 -92 63 -127.5t165 -34.5q142 -5 324 22l12 74q-101 -21 -178.5 -26t-149.5 -4q-40 -3 -66 16.5t-26 89.5v312z" />
    <glyph glyph-name="uni30BC" unicode="&#x30bc;" 
d="M874 852l-68 -48q33 -30 70 -68.5t54 -61.5l68 56q-19 22 -52 57t-72 65zM756 768l-64 -52q28 -26 65.5 -61t60.5 -61l68 56q-25 23 -60 57t-70 61zM682 482q-71 -145 -198 -248l126 -68q72 71 127 151.5t111 198.5l-68 64l-382 -76v222h-144v-252l-238 -48l22 -74
l216 42v-292q1 -92 63 -127.5t165 -34.5q142 -5 324 22l12 74q-101 -21 -178.5 -26t-149.5 -4q-40 -3 -66 16.5t-26 89.5v312z" />
    <glyph glyph-name="uni30BD" unicode="&#x30bd;" 
d="M724 732q-31 -248 -147.5 -406t-332.5 -264l108 -98q408 212 492 652q1 12 26 90zM442 404q-50 91 -95.5 167t-100.5 161l-116 -66q54 -85 99 -161t91 -167z" />
    <glyph glyph-name="uni30BE" unicode="&#x30be;" 
d="M896 860l-72 -42q30 -33 63 -73.5t47 -64.5l74 50q-18 23 -47.5 60t-64.5 70zM782 776l-70 -46q27 -28 61 -65t53 -65l74 50q-24 25 -56 60.5t-62 65.5zM322 344q-50 91 -95.5 167t-100.5 161l-116 -66q54 -85 99 -161t91 -167zM604 672q-31 -248 -147.5 -406
t-332.5 -264l108 -98q408 212 492 652q1 12 26 90z" />
    <glyph glyph-name="uni30BF" unicode="&#x30bf;" 
d="M316 -78q217 91 357 253t201 427l-64 40h-276q4 15 36 90l-132 52q-50 -152 -134 -254.5t-216 -185.5l120 -80q82 53 149 122t137 178h236q-28 -89 -54.5 -146.5t-61.5 -103.5q-42 30 -82.5 51.5t-91.5 52.5l-88 -102q102 -51 174 -102q-50 -53 -128.5 -99t-205.5 -89z
" />
    <glyph glyph-name="uni30C0" unicode="&#x30c0;" 
d="M892 856l-72 -42q30 -33 63 -73.5t47 -64.5l74 50q-18 23 -47.5 60t-64.5 70zM774 772l-70 -46q27 -28 61 -65t53 -65l74 50q-24 25 -56 60.5t-62 65.5zM236 -98q217 92 357 253.5t201 426.5l-64 40h-278q7 15 38 90l-132 52q-50 -152 -134 -254.5t-216 -185.5l120 -80
q82 53 150 122t140 178h232q-28 -89 -54.5 -146.5t-61.5 -103.5q-42 30 -82.5 51.5t-91.5 52.5l-88 -102q102 -51 174 -102q-50 -53 -128.5 -99t-205.5 -89z" />
    <glyph glyph-name="uni30C1" unicode="&#x30c1;" 
d="M910 402h-306v250q86 14 214 64l-46 56q-257 -86 -468 -82q-20 0 -47 2t-83 4l32 -70q61 -5 74 -4q94 -1 182 10v-230h-342v-80h332q-15 -197 -240 -330l114 -90q238 168 270 420h314v80z" />
    <glyph glyph-name="uni30C2" unicode="&#x30c2;" 
d="M894 752l-68 -48q33 -30 70 -68.5t54 -61.5l68 56q-19 22 -52 57t-72 65zM786 648l-64 -52q28 -26 65.5 -61t60.5 -61l68 56q-25 23 -60 57t-70 61zM810 402h-306v250q86 14 214 64l-46 56q-257 -86 -468 -82q-20 0 -47 2t-83 4l32 -70q61 -5 74 -4q94 -1 182 10v-230
h-342v-80h332q-15 -197 -240 -330l114 -90q238 168 270 420h314v80z" />
    <glyph glyph-name="uni30C3" unicode="&#x30c3;" 
d="M606 406q-21 74 -42.5 135.5t-53.5 136.5l-124 -44q34 -73 54.5 -135t39.5 -139zM706 240q100 119 156 374l-140 34q-15 -115 -44 -192.5t-80 -141.5q-52 -64 -129.5 -112.5t-208.5 -87.5l108 -112q217 77 338 238zM410 352q-28 77 -52.5 142t-57.5 144l-124 -54
q36 -76 62 -139t48 -141z" />
    <glyph glyph-name="uni30C4" unicode="&#x30c4;" 
d="M592 458q-31 142 -94 258l-128 -40q69 -120 100 -264zM356 402q-39 141 -114 270l-126 -50q81 -132 112 -264zM768 664q-27 -200 -152 -350.5t-388 -247.5l114 -108q234 102 367 254.5t179 337.5q1 13 26 68z" />
    <glyph glyph-name="uni30C5" unicode="&#x30c5;" 
d="M492 408q-31 142 -94 258l-128 -40q69 -120 100 -264zM256 352q-39 141 -114 270l-126 -50q81 -132 112 -264zM668 614q-27 -200 -152 -350.5t-388 -247.5l114 -108q234 102 367 254.5t179 337.5q1 13 26 68zM756 768l-64 -52q28 -26 65.5 -61t60.5 -61l68 56
q-25 23 -60 57t-70 61zM874 852l-68 -48q33 -30 70 -68.5t54 -61.5l68 56q-19 22 -52 57t-72 65z" />
    <glyph glyph-name="uni30C6" unicode="&#x30c6;" 
d="M218 658h616v78h-616v-78zM926 466h-812v-78h356q2 -124 -56 -213.5t-204 -154.5l120 -92q276 146 270 460h326v78z" />
    <glyph glyph-name="uni30C7" unicode="&#x30c7;" 
d="M812 660l-72 -40q24 -30 54.5 -69t49.5 -69l76 42q-45 63 -108 136zM916 742l-76 -38q30 -34 61.5 -76t44.5 -66l76 46q-16 23 -44.5 61t-61.5 73zM112 658h616v78h-616v-78zM826 466h-812v-78h356q2 -124 -56 -213.5t-204 -154.5l120 -92q276 146 270 460h326v78z" />
    <glyph glyph-name="uni30C8" unicode="&#x30c8;" 
d="M476 370q122 -78 248 -182l66 114q-138 113 -314 214v240h-144v-828h144v442z" />
    <glyph glyph-name="uni30C9" unicode="&#x30c9;" 
d="M440 370q122 -78 248 -182l66 114q-138 113 -314 214v240h-144v-828h144v442zM706 728l-64 -52q28 -26 65.5 -61t60.5 -61l68 56q-25 23 -60 57t-70 61zM824 812l-68 -48q33 -30 70 -68.5t54 -61.5l68 56q-19 22 -52 57t-72 65z" />
    <glyph glyph-name="uni30CA" unicode="&#x30ca;" 
d="M612 512v238h-144v-238h-360v-78h358q0 -144 -60 -238.5t-202 -169.5l114 -92q140 82 211 202.5t81 297.5h332v78h-330z" />
    <glyph glyph-name="uni30CB" unicode="&#x30cb;" 
d="M102 114v-78h808v78h-808zM180 558h654v78h-654v-78z" />
    <glyph glyph-name="uni30CC" unicode="&#x30cc;" 
d="M588 170q70 -56 176 -156l92 106q-110 98 -184 152q46 67 83 154.5t69 219.5l-60 46h-574v-78h486q-27 -99 -53.5 -159t-58.5 -103q-106 72 -260 156l-82 -106q85 -43 144.5 -78.5t111.5 -73.5q-63 -66 -149 -113.5t-217 -86.5l118 -108q216 78 358 228z" />
    <glyph glyph-name="uni30CD" unicode="&#x30cd;" 
d="M590 256q108 -56 262 -166l84 108q-164 113 -288 172q93 71 204 206l-68 66h-188v138h-144v-138h-288v-78h486q-125 -132 -264 -207t-308 -119l78 -128q186 72 292 130v-310h142v326z" />
    <glyph glyph-name="uni30CE" unicode="&#x30ce;" 
d="M676 720q-35 -233 -158 -392.5t-388 -261.5l106 -104q244 101 382.5 276.5t191.5 463.5z" />
    <glyph glyph-name="uni30CF" unicode="&#x30cf;" 
d="M336 678q-21 -187 -82.5 -339.5t-175.5 -302.5l128 -60q100 140 164 299t94 375zM538 646q87 -169 152 -328t116 -336l132 36q-56 183 -122.5 344t-155.5 326z" />
    <glyph glyph-name="uni30D0" unicode="&#x30d0;" 
d="M874 852l-68 -48q33 -30 70 -68.5t54 -61.5l68 56q-19 22 -52 57t-72 65zM756 768l-64 -52q28 -26 65.5 -61t60.5 -61l68 56q-25 23 -60 57t-70 61zM498 616q87 -169 152 -328t116 -336l132 36q-56 183 -122.5 344t-155.5 326zM296 648q-21 -187 -82.5 -339.5
t-175.5 -302.5l128 -60q100 140 164 299t94 375z" />
    <glyph glyph-name="uni30D1" unicode="&#x30d1;" 
d="M788 696q1 35 20 46.5t38 11.5q51 1 58 -58q5 -53 -58 -58q-49 0 -58 58zM846 814q-113 -8 -118 -118q8 -112 118 -118q113 6 118 118q-8 110 -118 118zM296 648q-21 -187 -82.5 -339.5t-175.5 -302.5l128 -60q100 140 164 299t94 375zM498 616q87 -169 152 -328
t116 -336l132 36q-56 183 -122.5 344t-155.5 326z" />
    <glyph glyph-name="uni30D2" unicode="&#x30d2;" 
d="M526 40q-91 -2 -116 6q-33 4 -30 38v302q216 50 460 172l-44 60q-229 -121 -416 -166v292h-144v-612q-4 -34 21 -82t117 -68q43 -8 150 -8q151 -1 350 22v74q-203 -33 -348 -30z" />
    <glyph glyph-name="uni30D3" unicode="&#x30d3;" 
d="M874 852l-68 -48q33 -30 70 -68.5t54 -61.5l68 56q-19 22 -52 57t-72 65zM756 768l-64 -52q28 -26 65.5 -61t60.5 -61l68 56q-25 23 -60 57t-70 61zM452 20q-91 -2 -116 6q-33 4 -30 38v302q216 50 460 172l-44 60q-229 -121 -416 -166v292h-144v-612q-4 -34 21 -81.5
t117 -68.5q43 -8 150 -8q151 -1 350 22v74q-203 -33 -348 -30z" />
    <glyph glyph-name="uni30D4" unicode="&#x30d4;" 
d="M452 20q-91 -2 -116 6q-33 4 -30 38v302q216 50 460 172l-44 60q-229 -121 -416 -166v292h-144v-612q-4 -34 21 -81.5t117 -68.5q43 -8 150 -8q151 -1 350 22v74q-203 -33 -348 -30zM788 696q1 35 20 46.5t38 11.5q51 1 58 -58q5 -53 -58 -58q-49 0 -58 58zM846 814
q-113 -8 -118 -118q8 -112 118 -118q113 6 118 118q-8 110 -118 118z" />
    <glyph glyph-name="uni30D5" unicode="&#x30d5;" 
d="M326 -38q234 77 367.5 241.5t172.5 444.5l-62 46h-652v-78h566q-37 -223 -152.5 -350t-333.5 -190z" />
    <glyph glyph-name="uni30D6" unicode="&#x30d6;" 
d="M874 852l-68 -48q33 -30 70 -68.5t54 -61.5l68 56q-19 22 -52 57t-72 65zM756 768l-64 -52q28 -26 65.5 -61t60.5 -61l68 56q-25 23 -60 57t-70 61zM216 -102q234 78 367.5 242t172.5 444l-62 46h-652v-78h566q-37 -223 -152.5 -350t-333.5 -190z" />
    <glyph glyph-name="uni30D7" unicode="&#x30d7;" 
d="M216 -102q234 78 367.5 242t172.5 444l-62 46h-652v-78h566q-37 -223 -152.5 -350t-333.5 -190zM788 696q1 35 20 46.5t38 11.5q51 1 58 -58q5 -53 -58 -58q-49 0 -58 58zM846 814q-113 -8 -118 -118q8 -112 118 -118q113 6 118 118q-8 110 -118 118z" />
    <glyph glyph-name="uni30D8" unicode="&#x30d8;" 
d="M348 566q-65 -82 -126.5 -154t-137.5 -148l92 -100q147 168 262 312q6 6 18 -6q176 -210 430 -438l84 104q-249 219 -428 432q-99 113 -194 -2z" />
    <glyph glyph-name="uni30D9" unicode="&#x30d9;" 
d="M706 728l-64 -52q28 -26 65.5 -61t60.5 -61l68 56q-25 23 -60 57t-70 61zM824 812l-68 -48q33 -30 70 -68.5t54 -61.5l68 56q-19 22 -52 57t-72 65zM328 556q-65 -82 -126.5 -154t-137.5 -148l92 -100q147 168 262 312q6 6 18 -6q176 -210 430 -438l84 104
q-249 219 -428 432q-99 113 -194 -2z" />
    <glyph glyph-name="uni30DA" unicode="&#x30da;" 
d="M796 764q-113 -8 -118 -118q8 -112 118 -118q113 6 118 118q-8 110 -118 118zM738 646q1 35 20 46.5t38 11.5q51 1 58 -58q5 -53 -58 -58q-49 0 -58 58zM328 556q-65 -82 -126.5 -154t-137.5 -148l92 -100q147 168 262 312q6 6 18 -6q176 -210 430 -438l84 104
q-249 219 -428 432q-99 113 -194 -2z" />
    <glyph glyph-name="uni30DB" unicode="&#x30db;" 
d="M176 34q143 157 220 354l-118 62q-31 -79 -79.5 -166t-132.5 -170zM604 528h318v78h-318v160h-144v-160h-338v-78h338v-486q-5 -20 -55 -15.5t-91 15.5l14 -72q85 -10 134 -8q81 0 112 25.5t30 84.5v456zM966 108q-96 194 -210 338l-110 -66q115 -151 204 -334z" />
    <glyph glyph-name="uni30DC" unicode="&#x30dc;" 
d="M756 768l-64 -52q28 -26 65.5 -61t60.5 -61l68 56q-25 23 -60 57t-70 61zM874 852l-68 -48q33 -30 70 -68.5t54 -61.5l68 56q-19 22 -52 57t-72 65zM544 498h318v78h-318v160h-144v-160h-338v-78h338v-486q-5 -19 -55 -15t-91 15l14 -72q85 -10 134 -8q81 0 112 26t30 84
v456zM906 78q-96 194 -210 338l-110 -66q115 -151 204 -334zM116 4q143 157 220 354l-118 62q-31 -79 -79.5 -166t-132.5 -170z" />
    <glyph glyph-name="uni30DD" unicode="&#x30dd;" 
d="M788 726q1 35 20 46.5t38 11.5q51 1 58 -58q5 -53 -58 -58q-49 0 -58 58zM846 844q-113 -8 -118 -118q8 -112 118 -118q113 6 118 118q-8 110 -118 118zM544 498h318v78h-318v160h-144v-160h-338v-78h338v-486q-5 -19 -55 -15t-91 15l14 -72q85 -10 134 -8q81 0 112 26
t30 84v456zM116 4q143 157 220 354l-118 62q-31 -79 -79.5 -166t-132.5 -170zM906 78q-96 194 -210 338l-110 -66q115 -151 204 -334z" />
    <glyph glyph-name="uni30DE" unicode="&#x30de;" 
d="M588 184q81 71 166 167.5t182 236.5l-70 70h-754v-78h650q-80 -116 -144.5 -187t-127.5 -121q-95 77 -150 110l-100 -82q225 -158 378 -330l96 92q-53 55 -126 122z" />
    <glyph glyph-name="uni30DF" unicode="&#x30df;" 
d="M750 352q-232 95 -472 134l-58 -122q261 -42 472 -138zM774 74q-253 108 -550 160l-52 -126q300 -44 544 -162zM792 620q-216 77 -486 112l-52 -120q289 -44 486 -120z" />
    <glyph glyph-name="uni30E0" unicode="&#x30e0;" 
d="M112 -6q346 35 662 76q22 -47 54 -114l120 52q-52 111 -108.5 212.5t-131.5 211.5l-114 -60q40 -59 72.5 -110t77.5 -130q-107 -13 -196.5 -23t-183.5 -17q54 152 100 293t96 329l-132 34q-36 -170 -87 -331t-119 -337q-29 -5 -130 -10z" />
    <glyph glyph-name="uni30E1" unicode="&#x30e1;" 
d="M656 362q42 59 82.5 140t89.5 206l-134 44q-64 -204 -142 -308q-112 76 -262 180l-76 -104q151 -101 258 -184q-129 -158 -372 -288l106 -96q228 130 370 302q95 -74 218 -214l94 106q-128 132 -232 216z" />
    <glyph glyph-name="uni30E2" unicode="&#x30e2;" 
d="M612 26q-67 1 -74 36v264h392v78h-392v220h320v78h-674v-78h210v-220h-270v-78h270v-216q3 -94 67 -122.5t143 -27.5q143 -6 284 12l8 68q-175 -18 -284 -14z" />
    <glyph glyph-name="uni30E3" unicode="&#x30e3;" 
d="M680 192q74 68 122 142.5t100 175.5l-80 56l-368 -66l-56 192l-138 -36l54 -182l-194 -34l20 -72l196 36l126 -456l138 46l-124 434l258 52q-51 -84 -88.5 -127t-83.5 -83z" />
    <glyph glyph-name="uni30E4" unicode="&#x30e4;" 
d="M670 228q85 78 145 163.5t119 192.5l-78 58l-424 -76l-58 204l-138 -36l54 -194l-222 -40l18 -72l226 42l154 -548l138 44l-150 532l308 60q-56 -90 -102.5 -147t-107.5 -105z" />
    <glyph glyph-name="uni30E5" unicode="&#x30e5;" 
d="M710 150q16 102 27 193.5t23 196.5l-70 52h-452v-78h376q-7 -107 -18 -188.5t-26 -175.5h-420v-78h732v78h-172z" />
    <glyph glyph-name="uni30E6" unicode="&#x30e6;" 
d="M946 128h-208q33 231 64 496l-68 48h-542v-78h462q-11 -129 -24.5 -235.5t-33.5 -230.5h-504v-78h854v78z" />
    <glyph glyph-name="uni30E7" unicode="&#x30e7;" 
d="M800 642h-578v-78h436v-168h-420v-78h420v-186h-446v-78h446v-36h142v624z" />
    <glyph glyph-name="uni30E8" unicode="&#x30e8;" 
d="M704 14v-46h148v734h-682v-78h534v-220h-512v-78h512v-234h-550v-78h550z" />
    <glyph glyph-name="uni30E9" unicode="&#x30e9;" 
d="M362 -56q430 102 524 538l-60 46h-680v-78h584q-56 -181 -167.5 -268.5t-302.5 -115.5zM218 684h598v78h-598v-78z" />
    <glyph glyph-name="uni30EA" unicode="&#x30ea;" 
d="M374 736h-144v-524h144v524zM796 496v266h-146v-62v-204q5 -173 -56 -282.5t-254 -167.5l88 -116q223 84 298 231.5t70 334.5z" />
    <glyph glyph-name="uni30EB" unicode="&#x30eb;" 
d="M274 534q4 -149 -32.5 -270t-167.5 -236l110 -82q137 129 186 271.5t46 314.5v192h-142v-190zM506 16l64 -64q121 60 217 137.5t181 186.5l-48 64q-87 -111 -153 -167.5t-117 -88.5v642h-144v-710z" />
    <glyph glyph-name="uni30EC" unicode="&#x30ec;" 
d="M236 22l66 -60q196 59 347 148.5t275 239.5l-54 60q-117 -141 -241 -220t-249 -120v658h-144v-706z" />
    <glyph glyph-name="uni30ED" unicode="&#x30ed;" 
d="M732 116h-428v496h428v-496zM878 690h-720v-704h146v52h428v-52h146v704z" />
    <glyph glyph-name="uni30EE" unicode="&#x30ee;" 
d="M420 6q211 68 312 217t116 373l-58 46h-580v-338h144v260h352q-22 -189 -110.5 -294.5t-273.5 -155.5z" />
    <glyph glyph-name="uni30EF" unicode="&#x30ef;" 
d="M384 -42q248 85 366.5 253t133.5 443l-54 48h-680v-390h144v312h448q-22 -232 -131 -363.5t-341 -188.5z" />
    <glyph glyph-name="uni30F0" unicode="&#x30f0;" 
d="M574 224h-192v316h192v-316zM716 224v316h200v78h-200v140h-142v-140h-440v-78h106v-316h-136v-76h470v-194h142v194h224v76h-224z" />
    <glyph glyph-name="uni30F1" unicode="&#x30f1;" 
d="M718 612q-91 -129 -164 -174h-134v-354h-334v-78h850v78h-374v284l62 -36q83 63 141 130.5t109 169.5l-66 58h-664v-78h574z" />
    <glyph glyph-name="uni30F2" unicode="&#x30f2;" 
d="M348 -50q267 97 395.5 269.5t148.5 444.5l-58 50h-664v-78h578q-9 -68 -16.5 -108t-25.5 -90h-514v-78h484q-68 -110 -172 -179t-256 -115z" />
    <glyph glyph-name="uni30F3" unicode="&#x30f3;" 
d="M544 500q-77 63 -145 116.5t-147 109.5l-94 -102q86 -59 153.5 -111t140.5 -117zM858 622q-124 -232 -298 -355.5t-422 -164.5l72 -124q489 86 726 512z" />
    <glyph glyph-name="uni30F4" unicode="&#x30f4;" 
d="M756 768l-64 -52q28 -26 65.5 -61t60.5 -61l68 56q-25 23 -60 57t-70 61zM874 852l-68 -48q33 -30 70 -68.5t54 -61.5l68 56q-19 22 -52 57t-72 65zM280 -74q185 44 326.5 173.5t173.5 398.5q2 14 20 70l-72 44h-244v152h-144v-152h-282v-366h142v288h442
q-17 -189 -117.5 -314.5t-342.5 -179.5z" />
    <glyph glyph-name="uni30F5" unicode="&#x30f5;" 
d="M790 142q29 157 28 348l-52 38h-224q6 30 6 132h-138q9 -71 4 -132h-232v-78h220q-32 -146 -94.5 -235t-175.5 -157l106 -92q125 85 196 200t98 284h154q-2 -101 -12.5 -193t-25.5 -155q-3 -34 -36 -44q-29 -3 -124 10l12 -70q48 -3 82.5 -5t73.5 -1q65 4 94 42.5
t40 107.5z" />
    <glyph glyph-name="uni30F6" unicode="&#x30f6;" 
d="M450 528q14 24 32 114l-126 32q-28 -116 -81.5 -204.5t-162.5 -171.5l120 -72q103 77 188 224h136q-12 -149 -70.5 -240t-193.5 -160l122 -94q129 81 195.5 198.5t78.5 295.5h182v78h-420z" />
    <glyph glyph-name="uni3105" unicode="&#x3105;" 
d="M242 382h456q-7 -160 -34 -248q-24 -110 -146 -106q-45 0 -120 6l42 -74q88 -5 144 -2q160 9 210 138q22 57 33.5 155t12.5 209h-444q52 66 83 128t63 144l-120 56q-92 -263 -210 -328z" />
    <glyph glyph-name="uni3106" unicode="&#x3106;" 
d="M810 48q-63 79 -138 146q119 148 164 330h-416q43 46 76 94.5t70 115.5l-120 62q-89 -181 -214 -292l22 -58h418q-58 -121 -106 -166q-69 59 -168 128l-80 -106q59 -40 146 -110q-92 -67 -276 -118l54 -126q180 53 324 154q54 -44 142 -150q46 51 102 96z" />
    <glyph glyph-name="uni3107" unicode="&#x3107;" 
d="M344 676h342v-710h142v788h-626v-794h142v716z" />
    <glyph glyph-name="uni3108" unicode="&#x3108;" 
d="M336 60v610h472v78h-612v-766h640v78h-500z" />
    <glyph glyph-name="uni3109" unicode="&#x3109;" 
d="M262 -42q94 66 173.5 175t120.5 271h168q-25 -235 -38 -262q-12 -57 -57.5 -82.5t-168.5 -19.5l40 -76q131 -4 213 26t103 112q13 53 23 133t23 247h-496q45 52 82.5 111t77.5 139l-118 58q-80 -192 -216 -308l18 -78h208q-32 -119 -95.5 -201.5t-158.5 -152.5
q53 -45 98 -92z" />
    <glyph glyph-name="uni310A" unicode="&#x310a;" 
d="M352 108q95 158 176 374h322v78h-298q24 77 40 170l-130 40q-16 -110 -46 -210h-222v-78h196q-44 -117 -99.5 -219t-108.5 -171l28 -84q214 44 464 70q48 -60 90 -120l100 90q-124 165 -256 306l-102 -86q60 -60 112 -126q-86 -9 -146.5 -16.5t-119.5 -17.5z" />
    <glyph glyph-name="uni310B" unicode="&#x310b;" 
d="M598 662q-119 -156 -204 -198l16 -76h320q-4 -88 -12 -160t-20 -104q-17 -49 -65.5 -69t-170.5 -23l26 -74q122 5 212.5 30t121.5 108q20 60 30.5 145.5t19.5 224.5h-276q118 104 212 274h-614v-78h404z" />
    <glyph glyph-name="uni310C" unicode="&#x310c;" 
d="M594 388h112q-6 -160 -30 -236q-18 -72 -57 -100.5t-153 -25.5l36 -68q106 -1 185.5 26.5t110.5 107.5q17 49 29.5 136.5t20.5 237.5h-236q23 76 37 142.5t27 143.5l-134 36q-14 -148 -66 -322h-118q32 58 51 106.5t37 111.5l-128 60q-27 -172 -120 -292l16 -64h236
q-43 -97 -104.5 -177t-165.5 -159l98 -98q113 94 183 190t133 244z" />
    <glyph glyph-name="uni310D" unicode="&#x310d;" 
d="M460 798q-106 -179 -220 -334q-65 -91 -4 -178l268 -368l80 142l-222 284q-22 27 -2 52q34 47 80.5 114.5t135.5 203.5zM690 798q-103 -178 -218 -334q-66 -89 -6 -178l268 -368l80 142l-218 284q-20 23 -6 46q37 51 83 118.5t137 205.5z" />
    <glyph glyph-name="uni310E" unicode="&#x310e;" 
d="M418 670q-53 -149 -150 -220l10 -66h402q-10 -127 -38 -238q-12 -63 -58 -87t-174 -17l36 -70q106 -4 193 16t125 104q17 42 32 127t30 243h-362q27 23 55 82.5t47 125.5h330v78h-720v-78h242z" />
    <glyph glyph-name="uni310F" unicode="&#x310f;" 
d="M426 532v134h470v78h-618v-224q-4 -203 -53 -316.5t-99 -167.5l114 -78q190 240 186 574z" />
    <glyph glyph-name="uni3110" unicode="&#x3110;" 
d="M442 292v354l-142 28v-444l44 -46l246 72v-306h142v822l-142 24v-460z" />
    <glyph glyph-name="uni3111" unicode="&#x3111;" 
d="M588 806q-136 -183 -272 -360q-31 -41 -28.5 -94.5t44.5 -95.5q176 -167 346 -328l58 130q-153 138 -300 282q-20 23 0 46q119 165 248 328z" />
    <glyph glyph-name="uni3112" unicode="&#x3112;" 
d="M586 658h270v78h-676v-78h266v-704h140v704z" />
    <glyph glyph-name="uni3113" unicode="&#x3113;" 
d="M792 636l-142 36v-386h-66v472l-140 30v-502h-64v354l-140 30v-462h204v-146h-290v-78h726v78h-296v146h208v428z" />
    <glyph glyph-name="uni3114" unicode="&#x3114;" 
d="M174 418l102 -94q279 135 450 390l-108 70q-189 -270 -444 -366zM492 194v-244h142v354q120 110 232 254l-112 72q-250 -322 -560 -452l86 -110q115 60 212 126z" />
    <glyph glyph-name="uni3115" unicode="&#x3115;" 
d="M382 392h440v362h-592v-78h448v-206h-440v-72q0 -128 -20 -217.5t-70 -162.5l114 -80q53 98 86 200t34 192v62z" />
    <glyph glyph-name="uni3116" unicode="&#x3116;" 
d="M348 24h324v-74h142v798h-608v-798h142v74zM672 670v-568h-324v568h324zM646 268q-67 156 -160 294l-106 -74q94 -139 158 -296z" />
    <glyph glyph-name="uni3117" unicode="&#x3117;" 
d="M184 740v-78h166v-710h142v710h230q1 -96 -1.5 -156t-10.5 -110q-5 -48 -35.5 -67t-128.5 -19l32 -70q92 -1 160.5 20.5t97.5 105.5q14 48 20 151.5t6 182.5v40h-678z" />
    <glyph glyph-name="uni3118" unicode="&#x3118;" 
d="M636 270q-37 -84 -74 -147t-88 -127l126 -64q141 209 220 416h-340q43 75 68 148h326v78h-304q25 87 36 184l-124 44q-14 -122 -46 -228h-220v-78h196q-42 -102 -120 -174l16 -52h328z" />
    <glyph glyph-name="uni3119" unicode="&#x3119;" 
d="M638 394l-100 -84q55 -73 104 -146q-135 -17 -258 -34q53 90 104.5 246.5t83.5 323.5l-132 38q-31 -188 -95.5 -374t-142.5 -258l32 -76q207 42 454 64q35 -54 68 -108l102 80q-98 177 -220 328z" />
    <glyph glyph-name="uni311A" unicode="&#x311a;" 
d="M196 696q138 -154 246 -326v-420h142v416q132 154 240 360l-116 64q-77 -173 -190 -304q-105 153 -216 294z" />
    <glyph glyph-name="uni311B" unicode="&#x311b;" 
d="M606 658h252v78h-646v-78h252v-166q-94 -9 -150.5 -83.5t-57.5 -184.5q7 -232 252 -236q77 -1 136 41t100 149l-120 54q-26 -99 -55.5 -137.5t-60.5 -36.5q-120 0 -122 166q2 87 37.5 141.5t80.5 56.5q39 0 102 -12v248z" />
    <glyph glyph-name="uni311C" unicode="&#x311c;" 
d="M624 666v114l-142 18v-132h-264v-78h264v-118q-100 -8 -161.5 -73t-62.5 -189q1 -109 67.5 -164t178.5 -56q149 -11 226 188l-120 56q-44 -176 -108 -174q-104 0 -114 150q2 184 134 192q46 -1 102 -14v202h244v78h-244z" />
    <glyph glyph-name="uni311D" unicode="&#x311d;" 
d="M712 564v190l-142 10v-200h-138v188l-142 10v-196h-112v-78h112v-366q5 -122 166 -120h116q93 0 186 12v72q-93 -18 -188 -18h-102q-42 1 -36 42v376h138q-9 -117 -60 -246l118 -64q27 55 46.5 141t27.5 169h148v78h-138z" />
    <glyph glyph-name="uni311E" unicode="&#x311e;" 
d="M658 676h218v78h-672v-78h316q-1 -42 -9 -115.5t-21 -112.5h-100q25 41 50 134l-118 48q-36 -146 -110 -208l8 -52h246q-63 -135 -240 -282l66 -118q228 177 316 400h108q-35 -122 -74.5 -196.5t-97.5 -137.5l90 -108q83 103 141 227t91 293h-240q13 49 21.5 122.5
t10.5 105.5z" />
    <glyph glyph-name="uni311F" unicode="&#x311f;" 
d="M708 632v100h-556v-78h424q1 -261 54.5 -413.5t153.5 -274.5l108 98q-110 109 -148.5 248t-35.5 320z" />
    <glyph glyph-name="uni3120" unicode="&#x3120;" 
d="M200 290q86 17 242 26q-125 -180 -246 -254l20 -70q198 32 492 44q21 -38 42 -80l112 70q-41 83 -82 153.5t-66 112.5l-110 -72q37 -55 66 -110q-122 -5 -232 -16q66 80 151 214t163 280l-120 68q-65 -144 -142 -270q-66 0 -110 -2q75 116 166 340l-124 48
q-50 -133 -107.5 -245.5t-136.5 -178.5z" />
    <glyph glyph-name="uni3121" unicode="&#x3121;" 
d="M668 650q-33 -111 -63.5 -169.5t-50.5 -86.5q-44 48 -100 102.5t-104 95.5l-90 -96q119 -107 208 -204q-94 -100 -274 -206l70 -120q156 95 288 226q56 -66 140 -194l110 86q-72 108 -158 208q129 168 184 436h-616v-78h456z" />
    <glyph glyph-name="uni3122" unicode="&#x3122;" 
d="M694 324q-36 -89 -76 -154t-102 -136l102 -90q168 208 246 458h-476q18 28 39 78t37 100l-126 42q-14 -61 -45.5 -130t-80.5 -106l16 -62h466zM668 668q-44 -80 -114 -166l108 -78q95 123 190 322h-662v-78h478z" />
    <glyph glyph-name="uni3123" unicode="&#x3123;" 
d="M666 336q-30 -181 -102 -320q65 -36 118 -76q101 231 134 474h-434l34 358l-140 28l-44 -464h434z" />
    <glyph glyph-name="uni3124" unicode="&#x3124;" 
d="M528 172q-3 -96 42 -142t166 -46q87 -3 156 18l-4 72q-71 -21 -150 -20q-70 -8 -68 134v236h-142v-252zM420 768q-1 -104 -8 -198h-224v-78h212q-36 -151 -94 -248.5t-156 -173.5l92 -102q122 107 188 227t100 297h338v78h-326q8 78 10 166z" />
    <glyph glyph-name="uni3125" unicode="&#x3125;" 
d="M846 14v78h-480q88 105 162.5 260.5t135.5 343.5l-114 76q-77 -235 -172.5 -419.5t-185.5 -260.5l14 -78h640z" />
    <glyph glyph-name="uni3126" unicode="&#x3126;" 
d="M458 512v200l-142 26v-242q10 -228 -172 -446l96 -100q108 129 162.5 262.5t55.5 299.5zM526 264q-2 -164 50 -225.5t182 -58.5q62 0 140 18v82q-80 -29 -148 -30q-42 -6 -62.5 48.5t-19.5 229.5v432l-142 18v-514z" />
    <glyph glyph-name="uni3127" unicode="&#x3127;" 
d="M582 768l-142 36v-854h142v818z" />
    <glyph glyph-name="uni3128" unicode="&#x3128;" 
d="M852 88q-103 145 -226 278q96 170 154 364l-134 12q-37 -151 -116 -284q-105 105 -236 214l-84 -100q132 -102 252 -224q-46 -65 -112 -130.5t-168 -151.5l116 -72q142 110 254 260q73 -84 182 -234q57 34 118 68z" />
    <glyph glyph-name="uni3129" unicode="&#x3129;" 
d="M662 90l-294 -6v652l-140 30v-766l434 10v-36h144v784l-144 18v-686z" />
    <glyph glyph-name="uni3220" unicode="&#x3220;" 
d="M858 436h-686v-78h686v78zM248 -116l-108 222v524l106 224h-134l-96 -192v-586l94 -192h138zM776 -116h138l94 192v586l-96 192h-134l106 -224v-524z" />
    <glyph glyph-name="uni3221" unicode="&#x3221;" 
d="M224 620v-72h582v72h-582zM856 204h-684v-78h684v78zM248 -116l-108 222v524l106 224h-134l-96 -192v-586l94 -192h138zM776 -116h138l94 192v586l-96 192h-134l106 -224v-524z" />
    <glyph glyph-name="uni3222" unicode="&#x3222;" 
d="M822 648h-626v-78h626v78zM238 414v-78h550v78h-550zM846 166h-680v-78h680v78zM248 -116l-108 222v524l106 224h-134l-96 -192v-586l94 -192h138zM776 -116h138l94 192v586l-96 192h-134l106 -224v-524z" />
    <glyph glyph-name="uni3223" unicode="&#x3223;" 
d="M180 48h658v628h-658v-628zM696 338h-44v260h44v-260zM322 598h46l-46 -252v252zM322 256h106l68 342h32v-338h168v-134h-374v130zM248 -116l-108 222v524l106 224h-134l-96 -192v-586l94 -192h138zM776 -116h138l94 192v586l-96 192h-134l106 -224v-524z" />
    <glyph glyph-name="uni3224" unicode="&#x3224;" 
d="M500 436l28 160h302v78h-640v-78h182l-32 -160h-134v-78h118l-42 -236h-118v-78h696v78h-84l22 314h-298zM440 122l42 236h152l-14 -236h-180zM248 -116l-108 222v524l106 224h-134l-96 -192v-586l94 -192h138zM776 -116h138l94 192v586l-96 192h-134l106 -224v-524z" />
    <glyph glyph-name="uni3225" unicode="&#x3225;" 
d="M762 352h-174l100 -316h170zM452 350h-172l-114 -314h174zM248 -116l-108 222v524l106 224h-134l-96 -192v-586l94 -192h138zM776 -116h138l94 192v586l-96 192h-134l106 -224v-524zM856 562h-250v152h-172v-152h-266v-78h688v78z" />
    <glyph glyph-name="uni3226" unicode="&#x3226;" 
d="M318 714v-228l-150 -16v-84l150 16v-358h500v78h-344v296l380 40v84l-380 -40v212h-156zM248 -116l-108 222v524l106 224h-134l-96 -192v-586l94 -192h138zM776 -116h138l94 192v586l-96 192h-134l106 -224v-524z" />
    <glyph glyph-name="uni3227" unicode="&#x3227;" 
d="M474 662h-164l-138 -626h168zM714 702h-162l130 -666h168zM248 -116l-108 222v524l106 224h-134l-96 -192v-586l94 -192h138zM776 -116h138l94 192v586l-96 192h-134l106 -224v-524z" />
    <glyph glyph-name="uni3228" unicode="&#x3228;" 
d="M860 44v78h-146l32 470h-234l32 128h-164l-36 -128h-140v-78h120l-162 -478h170l160 478h92l-36 -470h312zM248 -116l-108 222v524l106 224h-134l-96 -192v-586l94 -192h138zM776 -116h138l94 192v586l-96 192h-134l106 -224v-524z" />
    <glyph glyph-name="uni3229" unicode="&#x3229;" 
d="M860 454h-266v262h-156v-262h-274v-78h274v-354h156v354h266v78zM248 -116l-108 222v524l106 224h-134l-96 -192v-586l94 -192h138zM776 -116h138l94 192v586l-96 192h-134l106 -224v-524z" />
    <glyph glyph-name="uni4E00" unicode="&#x4e00;" 
d="M46 390h928v90h-928v-90z" />
    <glyph glyph-name="uni4E01" unicode="&#x4e01;" 
d="M452 -12h-116v-88h322v834h302v90h-888v-90h380v-746z" />
    <glyph glyph-name="uni4E03" unicode="&#x4e03;" 
d="M300 -114h662v90h-462v440l470 62v90l-470 -62v346h-200v-372l-246 -32v-88l246 30v-504z" />
    <glyph glyph-name="uni4E07" unicode="&#x4e07;" 
d="M50 830v-88h180l-6 -222l-174 -634h210l154 564h314l-18 -470h-112v-88h308l26 646h-508l6 204h544v88h-924z" />
    <glyph glyph-name="uni4E08" unicode="&#x4e08;" 
d="M610 450l-84 -82l-152 154h-246l272 -278l-366 -358h246l242 232l226 -232h248l-348 354l162 156v250h162v88h-162v118h-200v-118h-558v-88h558v-196z" />
    <glyph glyph-name="uni4E09" unicode="&#x4e09;" 
d="M92 692h840v88h-840v-88zM122 330h776v88h-776v-88zM42 -72h940v88h-940v-88z" />
    <glyph glyph-name="uni4E0A" unicode="&#x4e0a;" 
d="M574 850h-200v-872h-324v-88h924v88h-400v456h372v88h-372v328z" />
    <glyph glyph-name="uni4E0B" unicode="&#x4e0b;" 
d="M970 746v88h-916v-88h312v-856h200v856h404zM588 556l130 -408h226l-132 408h-224z" />
    <glyph glyph-name="uni4E0C" unicode="&#x4e0c;" 
d="M56 734h122v-394l-128 -448h204l122 426v416h286v-842h198v842h104v92h-908v-92z" />
    <glyph glyph-name="uni4E0D" unicode="&#x4e0d;" 
d="M618 568v104h-88l32 72h392v88h-880v-88h276l-300 -690l-4 -10h214l156 364v-504h202v508l162 -356h200l-232 512h-130z" />
    <glyph glyph-name="uni4E0E" unicode="&#x4e0e;" 
d="M62 154h636v90h-636v-90zM558 -114h362l34 592h-642l20 172h614v88h-604l10 104h-202l-52 -452h652l-26 -414h-166v-90z" />
    <glyph glyph-name="uni4E10" unicode="&#x4e10;" 
d="M102 660l-12 -416h662l-22 -262h-136v-88h330l30 438h-334v178h318v88h-318v140h352v88h-914v-88h352v-406h-118l10 328h-200z" />
    <glyph glyph-name="uni4E11" unicode="&#x4e11;" 
d="M956 4h-74l40 820h-818v-90h190l-28 -296h-156v-90h146l-36 -344h-160v-90h896v90zM702 348l-20 -344h-256l32 344h244zM722 734l-14 -296h-240l24 296h230z" />
    <glyph glyph-name="uni4E13" unicode="&#x4e13;" 
d="M942 686v90h-442l26 76h-216l-28 -76h-208v-90h178l-50 -134h-150v-88h116l-90 -228h592l-186 -200l-410 72v-88l804 -136v84l-164 30l208 228v98h-592l54 140h588v88h-558l50 134h478z" />
    <glyph glyph-name="uni4E14" unicode="&#x4e14;" 
d="M88 -20h-46v-88h936v88h-38v826h-852v-826zM288 718h452v-184h-452v184zM288 444h452v-192h-452v192zM740 -20h-452v184h452v-184z" />
    <glyph glyph-name="uni4E15" unicode="&#x4e15;" 
d="M54 -102h912v88h-912v-88zM618 734h348v90h-916v-90h350l-370 -556h218l176 264v-404h196v514h-124zM628 608l180 -454h186l-180 454h-186z" />
    <glyph glyph-name="uni4E16" unicode="&#x4e16;" 
d="M582 530h114v-324h-114v324zM38 530h56v-636h868v88h-668v548h88v-412h514v412h90v88h-90v232h-200v-232h-114v232h-200v-232h-88v190h-200v-190h-56v-88z" />
    <glyph glyph-name="uni4E18" unicode="&#x4e18;" 
d="M106 814v-836h-62v-88h936v88h-104v390h94v90h-664v274l624 34v90zM676 -22h-370v390h370v-390z" />
    <glyph glyph-name="uni4E19" unicode="&#x4e19;" 
d="M960 746v90h-896v-90h348v-132h-336v-708h200v182h152l90 200l82 -200h146v-92h-68v-90h268v706h-330v132h344v2zM746 128l-130 296v100h130v-396zM412 524v-100l-136 -308v406h136v2z" />
    <glyph glyph-name="uni4E1A" unicode="&#x4e1a;" 
d="M42 -108h936v88h-236v870h-200v-870h-60v870h-200v-870h-240v-88zM42 772l42 -686h188l-44 686h-186zM796 772l-44 -686h186l44 686h-186z" />
    <glyph glyph-name="uni4E1B" unicode="&#x4e1b;" 
d="M58 -14h910v-90h-910v90zM256 56l86 262l130 -138v216l-80 88l28 94v260h-198v-234l-166 -548h200zM630 56l82 204l74 -204h174l-168 412l36 108v262h-200v-244l-200 -538h202z" />
    <glyph glyph-name="uni4E1C" unicode="&#x4e1c;" 
d="M176 246l-120 -332h212l118 332h-210zM670 234l100 -320h210l-104 320h-206zM368 -102h264v428h298v88h-298v178h-200v-178h-130l90 276h566v88h-540l20 58h-196l-20 -58h-150v-88h122l-130 -364h368v-340h-64v-88z" />
    <glyph glyph-name="uni4E1D" unicode="&#x4e1d;" 
d="M974 -110v88h-924v-88h924zM486 542h-198l146 308h-206l-196 -432h184l-180 -326h446v88h-182zM954 542h-198l146 308h-206l-196 -432h184l-180 -326h456v88h-192z" />
    <glyph glyph-name="uni4E1E" unicode="&#x4e1e;" 
d="M412 134h-50v-88h244v260l154 -212h202l-176 246l200 244h-196l-104 -124l-80 100v16l318 194v58h-832v-88h510l-190 -84v-522zM48 -106h922v84h-922v-84zM232 500l-202 -408h190l172 354v142h-330v-88h170z" />
    <glyph glyph-name="uni4E22" unicode="&#x4e22;" 
d="M76 720l338 16v-170h-336v-88h336v-178h-372v-88h294l-238 -210v-90h658l12 -24h206l-114 258h-204l60 -146h-344l230 212h384v88h-372v178h340v88h-340v174l342 14v92l-880 -34v-92z" />
    <glyph glyph-name="uni4E24" unicode="&#x4e24;" 
d="M710 492h64v-516h-28v-90h218v696h-206v164h206v88h-908v-88h206v-164h-206v-696h190v606h56v-210l-50 -268h104l24 146l16 -134h104l-38 274v192h96v-198l-46 -280h102l24 128l22 -128h106l-56 280v198zM462 582v164h96v-164h-96z" />
    <glyph glyph-name="uni4E25" unicode="&#x4e25;" 
d="M734 742h232v88h-908v-88h232v-310h-220v-290l-48 -256h206l42 242v216h698v88h-234v310zM490 742h44v-310h-44v310zM66 716l40 -254h170l-46 254h-164zM952 716h-164l-42 -254h164z" />
    <glyph glyph-name="uni4E27" unicode="&#x4e27;" 
d="M610 408v290h332v88h-332v66h-200v-66h-324v-88h324v-290h-364v-88h94v-418h350v88h-150v330h634v88h-364zM190 440h202l-94 230h-202zM630 440h202l90 230h-202zM728 166l-106 118h-236l348 -398h238l-134 152l140 242h-180z" />
    <glyph glyph-name="uni4E28" unicode="&#x4e28;" 
d="M610 -108v940h-200v-940h200z" />
    <glyph glyph-name="uni4E2A" unicode="&#x4e2a;" 
d="M410 524v-638h200v638h-200zM510 670l244 -248h246l-426 412h-132l-418 -412h238z" />
    <glyph glyph-name="uni4E2B" unicode="&#x4e2b;" 
d="M610 -114v502h-204v-502h204zM956 818h-222l-216 -386h222zM42 818l234 -386h230l-234 386h-230z" />
    <glyph glyph-name="uni4E2C" unicode="&#x4e2c;" 
d="M230 -86l268 212v-240h200v966h-200v-524l-268 -206v-208zM212 746l102 -374h180l-98 374h-184z" />
    <glyph glyph-name="uni4E2D" unicode="&#x4e2d;" 
d="M262 114v548h152v-548h-152zM762 662v-548h-148v548h148zM414 852v-100h-352v-726h352v-140h200v140h348v726h-348v100h-200z" />
    <glyph glyph-name="uni4E30" unicode="&#x4e30;" 
d="M614 -102v108h352v90h-352v236h320v88h-320v234h338v88h-338v86h-200v-86h-346v-88h346v-234h-328v-88h328v-236h-364v-90h364v-108h200z" />
    <glyph glyph-name="uni4E32" unicode="&#x4e32;" 
d="M408 -98h200v76h346v384h-346v78h310v360h-310v46h-200v-46h-304v-362h304v-78h-338v-384h338v-74zM758 272v-206h-150v206h150zM608 528v184h106v-184h-106zM408 272v-206h-142v206h142zM306 528v184h102v-184h-102z" />
    <glyph glyph-name="uni4E34" unicode="&#x4e34;" 
d="M422 416v-524h548v524h-548zM234 856v-970h162v970h-162zM50 784v-824h158v824h-158zM970 710v90h-304l12 56h-182l-86 -360h190l46 214h324zM810 322v-338h-32v338h32zM582 -20v348h32v-348h-32zM954 454l-114 202h-184l114 -202h184z" />
    <glyph glyph-name="uni4E36" unicode="&#x4e36;" 
d="M498 178h210l-180 484h-210z" />
    <glyph glyph-name="uni4E38" unicode="&#x4e38;" 
d="M876 692h-390v164h-200v-164h-214v-88h214v-130l-18 -44l-24 32h-194l148 -196l-158 -380h212l84 198l34 -44h200l-162 210l78 186v168h186l-40 -712h334v88h-130z" />
    <glyph glyph-name="uni4E39" unicode="&#x4e39;" 
d="M114 140l-54 -230h206l50 222v126h372v-260h-74v-88h274v348h80v90h-80v480h-774v-480h-74v-90h74v-118zM690 746v-398h-370v398h370zM646 410l-70 250h-198l72 -250h196z" />
    <glyph glyph-name="uni4E3A" unicode="&#x4e3a;" 
d="M90 644v-88h228l-36 -178l-246 -492h242l206 430l36 240h232l-24 -574h-130v-88h332l28 750h-428l32 212h-198l-30 -212h-244zM514 428l38 -320h166l-46 320h-158zM106 840l44 -166h176l-46 166h-174z" />
    <glyph glyph-name="uni4E3B" unicode="&#x4e3b;" 
d="M624 744l-38 106h-230l38 -106h-326v-88h336v-274h-318v-88h318v-316h-348v-88h904v88h-336v316h300v88h-300v274h328v88h-328z" />
    <glyph glyph-name="uni4E3D" unicode="&#x4e3d;" 
d="M682 556h122v-580h-46v-90h204v758h-438v-758h158v670zM54 744h916v88h-916v-88zM710 114h86l-20 318h-88zM218 556h122v-580h-46v-90h204v758h-438v-758h158v670zM246 114h86l-20 318h-88z" />
    <glyph glyph-name="uni4E3E" unicode="&#x4e3e;" 
d="M412 492v-160h-300v-78h300v-154h-352v-80h352v-132h200v132h348v80h-348v154h298v78h-298v160h-200zM974 568v78h-114l100 204h-194l-112 -204h-600v-78h158l-188 -214h228l198 214h138l176 -214h222l-172 214h160zM266 850h-192l86 -180h196zM552 850h-192l82 -180h194
z" />
    <glyph glyph-name="uni4E3F" unicode="&#x4e3f;" 
d="M250 -108h212l150 476v466h-200v-444z" />
    <glyph glyph-name="uni4E43" unicode="&#x4e43;" 
d="M596 -112h340l24 610h-132l54 310h-810v-88h140l-18 -230l-140 -602h208l130 582l16 250h254l-56 -310h150l-18 -436h-142v-86z" />
    <glyph glyph-name="uni4E45" unicode="&#x4e45;" 
d="M32 -112h248l274 254l208 -254h226l-302 386l262 256v270h-584l12 64h-202l-112 -552h206l84 400h396v-116z" />
    <glyph glyph-name="uni4E47" unicode="&#x4e47;" 
d="M406 408l-354 -36v-110l354 38v-406h532v88h-332v332l362 38v110l-362 -40v274l330 26v108l-856 -62v-108l326 26v-278z" />
    <glyph glyph-name="uni4E48" unicode="&#x4e48;" 
d="M428 840l-420 -570h204l426 570h-210zM666 254l86 -248h-422l484 638h-210l-560 -726h736l10 -32h202l-124 368h-202z" />
    <glyph glyph-name="uni4E49" unicode="&#x4e49;" 
d="M742 818v-196l-226 -252l-234 260v186h-200v-276l290 -310l-336 -348h274l206 212l202 -212h274l-326 350l276 322v264h-200zM366 858l60 -274h208l-64 274h-204z" />
    <glyph glyph-name="uni4E4B" unicode="&#x4e4b;" 
d="M414 852v-90h-352v-88h642l-646 -582v-228l170 142l96 -114h664v88h-610l-72 88l660 606v88h-342v90h-210z" />
    <glyph glyph-name="uni4E4C" unicode="&#x4e4c;" 
d="M736 112v88h-690v-88h690zM334 854l-22 -62h-208v-474h664l-12 -340h-244v-88h444l18 516h-670v298h420l-6 -142h-136v-88h334l10 318h-380l18 62h-230z" />
    <glyph glyph-name="uni4E4D" unicode="&#x4e4d;" 
d="M602 410h332v88h-332v210h376v90h-598l16 54h-204l-158 -520h202l116 376h50v-822h200v216h332v88h-332v220z" />
    <glyph glyph-name="uni4E4E" unicode="&#x4e4e;" 
d="M946 756v94l-872 -44v-92l352 18v-384h-372v-88h372v-284h-118v-90h318v374h344v88h-344v392zM970 692h-202l-120 -300h202zM194 392h204l-114 280h-204z" />
    <glyph glyph-name="uni4E4F" unicode="&#x4e4f;" 
d="M414 548h182v154h-182v-154zM68 702l884 44v90l-884 -42v-92zM66 532v-90h604l-604 -384v-182l192 122l98 -90h616v86h-560l-66 62l602 386v90h-882z" />
    <glyph glyph-name="uni4E50" unicode="&#x4e50;" 
d="M178 236l-134 -332h208l132 332h-206zM678 236l110 -332h200l-108 332h-202zM366 -114h272v406h330v88h-330v246h-200v-246h-162l18 336l648 34v90l-840 -42l-32 -506h368v-316h-72v-90z" />
    <glyph glyph-name="uni4E52" unicode="&#x4e52;" 
d="M976 168v88h-88v210h90v90h-672v192l636 24v86l-836 -30v-572h-58v-88h928zM688 256h-382v210h382v-210zM30 -114h238l172 250h-240z" />
    <glyph glyph-name="uni4E53" unicode="&#x4e53;" 
d="M976 158v88h-88v232h90v90h-672v170l636 26v88l-836 -32v-574h-58v-88h928zM688 246h-382v232h382v-232zM758 -118h234l-236 254h-242z" />
    <glyph glyph-name="uni4E54" unicode="&#x4e54;" 
d="M490 514h106l180 -224h224l-174 224h144v88h-450l42 154l380 10v92l-860 -22v-88l280 8l-46 -154h-258v-88h190l-226 -224h252zM78 -114h216l108 234v140h-200v-116zM838 -114v374h-200v-374h200z" />
    <glyph glyph-name="uni4E56" unicode="&#x4e56;" 
d="M52 142v-88h138v-90h184v510h-184v-108h-130v-86h130v-138h-138zM416 -114h196v646h358v92h-358v126l330 8v94l-860 -22v-92l334 8v-122h-362v-92h362v-646zM970 52h-132v182l128 54v92l-128 -54v148h-184v-510h316v88z" />
    <glyph glyph-name="uni4E58" unicode="&#x4e58;" 
d="M646 556v-356h298v90h-126v122l114 36v92l-114 -36v52h-172zM74 342v-88h136v-54h174v356h-174v-52h-126v-88h126v-74h-136zM956 664h-342v74l306 8v92l-816 -24v-90l310 8v-68h-350v-88h350v-682h200v682h342v88zM70 -106h188l144 282h-186zM628 176l142 -282h190
l-146 282h-186z" />
    <glyph glyph-name="uni4E59" unicode="&#x4e59;" 
d="M954 8h-618l546 658v136h-780v-94h560l-576 -682v-106h868v88z" />
    <glyph glyph-name="uni4E5C" unicode="&#x4e5c;" 
d="M324 -10v568l412 98l-18 -342h-72v-90h264l28 570l-614 -144v174h-196v-204l-74 -20v-92l74 20v-626h814v88h-618z" />
    <glyph glyph-name="uni4E5D" unicode="&#x4e5d;" 
d="M974 -16h-140l20 720h-382v146h-198v-146h-204v-88h204l-22 -190l-206 -538h208l200 522l18 206h186l-22 -720h338v88z" />
    <glyph glyph-name="uni4E5E" unicode="&#x4e5e;" 
d="M56 570h204l44 124h634v88h-602l22 68h-204zM390 -22l552 468v76h-860v-88h548l-560 -474v-70h870v88h-550z" />
    <glyph glyph-name="uni4E5F" unicode="&#x4e5f;" 
d="M974 -18h-672v596l122 26v-482h200v516l122 26l-16 -372h-54v-88h246l28 594l-326 -74v126h-200v-162l-122 -26v148h-200v-186l-60 -12v-88l60 12v-642h872v88z" />
    <glyph glyph-name="uni4E60" unicode="&#x4e60;" 
d="M580 -106h374v936h-852v-88h652v-760h-174v-88zM412 396h268l-294 276h-268zM692 346h-270l-388 -414h270z" />
    <glyph glyph-name="uni4E61" unicode="&#x4e61;" 
d="M62 -126l718 144l208 464h-216l-86 -166h-246l508 460h-258l-178 -154h-172l220 234h-242l-230 -236v-86h326l-288 -238v-68h520l-34 -62l-550 -110v-182z" />
    <glyph glyph-name="uni4E66" unicode="&#x4e66;" 
d="M468 650h136l-10 -246h-126v246zM468 738v114h-200v-114h-180v-88h180v-246h-224v-88h224v-430h200v430h270l-20 -308h-110v-88h302l32 484h-148l14 334h-340zM992 604l-48 226h-146l48 -226h146z" />
    <glyph glyph-name="uni4E69" unicode="&#x4e69;" 
d="M256 -24v344h80v-344h-80zM530 430h-154v200h180v88h-180v124h-196v-412h-118v-544h468v544zM776 -24v866h-194v-956h370v90h-176z" />
    <glyph glyph-name="uni4E70" unicode="&#x4e70;" 
d="M728 -102h270l-304 286h280v88h-262v398h-200v-398h-458v-88h406l-434 -286h320l224 146zM764 736l-40 -252h202l52 340h-910v-88h696zM188 310h222l-156 186h-222zM290 490h214l-144 182h-216z" />
    <glyph glyph-name="uni4E71" unicode="&#x4e71;" 
d="M262 276h112v-296h-112v296zM992 -20h-160v876h-200v-964h360v88zM574 364h-156v150h184v90h-184v142l164 10v90l-520 -28v-90l156 10v-134h-180v-90h180v-150h-156v-472h512v472z" />
    <glyph glyph-name="uni4E73" unicode="&#x4e73;" 
d="M44 836v-90l538 24v90zM66 528h152l-28 182h-148zM248 528h148l-26 192h-152zM566 528l26 192h-152l-20 -192h146zM72 496v-88h246l-112 -162h-178v-88h176v-182h-72v-90h272v272h174v88h-148l122 176v74h-480zM806 -24v876h-196v-966h356v90h-160z" />
    <glyph glyph-name="uni4E7E" unicode="&#x4e7e;" 
d="M518 138v482h-124v56h132v88h-132v88h-200v-88h-140v-88h140v-56h-128v-482h128v-66h-148v-90h148v-96h200v96h142v90h-142v66h124zM246 226v110h92v-110h-92zM246 424v108h92v-108h-92zM802 852h-198l-72 -292h194l28 108h236v88h-212zM752 424l-194 -470v-68h428v90
h-206l178 434v102h-408v-88h202z" />
    <glyph glyph-name="uni4E86" unicode="&#x4e86;" 
d="M942 820h-852v-88h620l-194 -242v-508h-144v-88h350v530l220 308v88z" />
    <glyph glyph-name="uni4E88" unicode="&#x4e88;" 
d="M914 826h-794v-88h536l-110 -124l-26 48h-224l98 -198h-342v-88h358v-398h-80v-88h280v486h132l-44 -166h200l64 254h-306l258 296v66z" />
    <glyph glyph-name="uni4E89" unicode="&#x4e89;" 
d="M746 520v-120h-144v120h144zM746 312v-122h-144v122h144zM298 718h388l-32 -110h-542v-88h290v-120h-352v-88h352v-122h-290v-88h290v-126h-116v-90h316v216h340v210h44v88h-44v208h-88l56 198h-574l18 46h-204l-86 -226h196z" />
    <glyph glyph-name="uni4E8B" unicode="&#x4e8b;" 
d="M292 516v62h114v-62h-114zM732 578v-62h-126v62h126zM742 294v-44h-136v44h136zM742 162v-46h-136v46h136zM58 702h348v-36h-314v-238h314v-46h-322v-88h322v-44h-352v-88h352v-46h-322v-88h322v-52h-94v-90h294v142h336v134h36v88h-36v132h-336v46h326v238h-326v36h360
v88h-360v62h-200v-62h-348v-88z" />
    <glyph glyph-name="uni4E8C" unicode="&#x4e8c;" 
d="M920 696v88h-816v-88h816zM56 -68h912v88h-912v-88z" />
    <glyph glyph-name="uni4E8D" unicode="&#x4e8d;" 
d="M114 744h796v88h-796v-88zM410 -20h-78v-88h278v536h354v88h-908v-88h354v-448z" />
    <glyph glyph-name="uni4E8E" unicode="&#x4e8e;" 
d="M610 -110v452h362v88h-362v302h294v88h-792v-88h298v-302h-362v-88h362v-364h-110v-88h310z" />
    <glyph glyph-name="uni4E8F" unicode="&#x4e8f;" 
d="M914 -106l34 414h-608l60 168h570v88h-916v-88h128l-96 -256h648l-22 -238h-268v-88h470zM942 730v88h-856v-88h856z" />
    <glyph glyph-name="uni4E91" unicode="&#x4e91;" 
d="M90 734h844v90h-844v-90zM662 222l62 -200h-406l158 344h498v88h-912v-88h200l-200 -432h692l12 -40h190l-104 328h-190z" />
    <glyph glyph-name="uni4E92" unicode="&#x4e92;" 
d="M302 256l42 234h384l-36 -234h-390zM678 168l-32 -188h-612v-88h954v88h-140l84 598h-570l32 168h570v88h-904v-88h136l-116 -578h598z" />
    <glyph glyph-name="uni4E93" unicode="&#x4e93;" 
d="M52 402h102v-258l-78 -252h204l74 228v282h312v-510h200v510h104v88h-918v-88zM92 724h844v88h-844v-88z" />
    <glyph glyph-name="uni4E94" unicode="&#x4e94;" 
d="M700 414v-434h-270l66 434h204zM964 742v88h-894v-88h276l-38 -240h-206v-88h190l-72 -434h-182v-88h950v88h-88v522h-390l34 240h420z" />
    <glyph glyph-name="uni4E95" unicode="&#x4e95;" 
d="M656 608v-382h-276v382h276zM184 696h-102v-88h102v-382h-130v-88h114l-108 -250h206l104 250h286v-250h194v250h120v88h-120v382h94v88h-94v154h-194v-154h-276v154h-196v-154z" />
    <glyph glyph-name="uni4E98" unicode="&#x4e98;" 
d="M44 -16v-88h934v88h-934zM738 412h-452v126h452v-126zM286 196v126h452v-126h-452zM88 108h848v518h-848v-518zM52 820v-88h920v88h-920z" />
    <glyph glyph-name="uni4E9A" unicode="&#x4e9a;" 
d="M804 666l-60 -596h146l62 596h-148zM474 -18v762h76v-762h-76zM970 744v88h-910v-88h228v-762h-232v-88h912v88h-232v762h234zM216 666h-148l58 -596h152z" />
    <glyph glyph-name="uni4E9B" unicode="&#x4e9b;" 
d="M126 156v-88h780v88h-780zM58 -108h904v88h-904v-88zM460 850h-178v-518h-36v426h-168v-426h-32v-88h520v88h-106v268h92v88h-92v162zM790 850h-190v-606h370v88h-180v252l178 64v92l-178 -64v174z" />
    <glyph glyph-name="uni4E9F" unicode="&#x4e9f;" 
d="M388 602h-314v-508h314v508zM622 572l308 202v56h-834v-88h530l-200 -98v-518h-20v-88h216v534zM978 -104v88h-932v-88h932zM214 182v332h32v-332h-32zM830 514l-34 -88l-8 18h-140l80 -148l-98 -202h138l32 72l34 -68h142l-106 202l90 202v100h-294v-88h164z" />
    <glyph glyph-name="uni4EA0" unicode="&#x4ea0;" 
d="M50 660v-88h920v88h-348v158h-214v-158h-358z" />
    <glyph glyph-name="uni4EA1" unicode="&#x4ea1;" 
d="M334 660h640v90h-338v102h-218v-102h-372v-90h92v-756h796v88h-600v668z" />
    <glyph glyph-name="uni4EA2" unicode="&#x4ea2;" 
d="M54 766v-88h898v88h-334v76h-218v-76h-346zM978 -24h-102v596h-736v-416l-82 -268h206l76 242v354h340v-596h298v88z" />
    <glyph glyph-name="uni4EA4" unicode="&#x4ea4;" 
d="M22 -118h270l226 182l218 -182h270l-354 292l264 212h-274l-124 -102l-124 102h-260l250 -210zM834 646h-216l148 -224h216zM418 646h-212l-160 -224h212zM414 852v-82h-364v-88h924v88h-360v82h-200z" />
    <glyph glyph-name="uni4EA5" unicode="&#x4ea5;" 
d="M768 206l212 238h-226l-550 -558h248l178 182l118 -182h228zM440 852v-90h-378v-88h186l-164 -318h284l-336 -352h244l578 618h-234l-170 -178h-128l124 230h520v88h-324v90h-202z" />
    <glyph glyph-name="uni4EA6" unicode="&#x4ea6;" 
d="M974 678v88h-356v92h-200v-92h-368v-88h238l-20 -422l-90 -376h208l80 328l20 470h76v-710h-74v-88h274v798h212zM94 554l-56 -462h174l54 462h-172zM772 554l46 -462h174l-52 462h-168z" />
    <glyph glyph-name="uni4EA7" unicode="&#x4ea7;" 
d="M250 -104l50 232v234h676v88h-168l70 188h-198l-72 -188h-510v-322l-48 -232h200zM950 744h-296v94h-214v-94h-340v-86h850v86zM272 474h202l-90 160h-204z" />
    <glyph glyph-name="uni4EA8" unicode="&#x4ea8;" 
d="M720 444h-418v116h418v-116zM54 782v-88h912v88h-350v70h-202v-70h-360zM74 300v-88h540l-178 -76v-160h-140v-90h340v180l310 144v90h-872zM910 648h-808v-292h808v292z" />
    <glyph glyph-name="uni4EA9" unicode="&#x4ea9;" 
d="M970 668v88h-348v94h-226v-94h-342v-88h916zM934 596h-844v-706h844v706zM410 508v-218h-120v218h120zM410 -22h-120v222h120v-222zM610 200h124v-222h-124v222zM734 508v-218h-124v218h124z" />
    <glyph glyph-name="uni4EAB" unicode="&#x4eab;" 
d="M734 574v-106h-444v106h444zM54 800v-88h912v88h-350v54h-208v-54h-354zM90 666v-286h844v286h-844zM918 336h-828v-90h496l-126 -84h-410v-88h432v-96h-196v-88h396v184h292v88h-220l164 120v54z" />
    <glyph glyph-name="uni4EAC" unicode="&#x4eac;" 
d="M346 -112h268v334h328v394h-860v-394h332v-246h-68v-88zM282 528h460v-216h-460v216zM406 850v-74h-360v-88h932v88h-354v74h-218zM156 180l-128 -284h188l128 284h-188zM668 176l130 -280h190l-130 280h-190z" />
    <glyph glyph-name="uni4EAD" unicode="&#x4ead;" 
d="M920 668h-816v-242h816v242zM100 108h318v-132h-80v-90h280v222h316v88h-834v-88zM244 298h526v-66h200v156h-916v-156h190v66zM402 852v-56h-344v-88h908v88h-336v56h-228zM304 578h416v-64h-416v64z" />
    <glyph glyph-name="uni4EAE" unicode="&#x4eae;" 
d="M112 670v-278h800v278h-800zM312 582h400v-102h-400v102zM406 860v-48h-352v-88h916v88h-354v48h-210zM276 -114l124 184h226v-178h320v88h-120v178h-594l-178 -272h222zM50 344v-166h186v78h552v-78h186v166h-924z" />
    <glyph glyph-name="uni4EB2" unicode="&#x4eb2;" 
d="M418 852v-76h-336v-90h860v90h-316v76h-208zM342 658h-200l54 -124h202zM44 -102h204l120 286h-196zM780 -102h202l-126 286h-200zM412 384v-74h-350v-88h350v-246h-82v-90h282v336h350v88h-350v74h-200zM54 504v-88h916v88h-148l58 154h-186l-64 -154h-576z" />
    <glyph glyph-name="uni4EB3" unicode="&#x4eb3;" 
d="M102 686v-214h820v214h-820zM302 560v38h420v-38h-420zM762 354v-58h200v146h-900v-168h200v80h500zM568 -24v68l394 26v88l-394 -28v44l312 24v88l-772 -50v-90l260 14v-42l-312 -18v-92l312 22v-144h592v90h-392zM966 714v88h-348v50h-210v-50h-350v-88h908z" />
    <glyph glyph-name="uni4EB5" unicode="&#x4eb5;" 
d="M354 690h-194v-56h-78v-88h78v-78l-82 -18v-84l82 18v-54h-44v-88h238v172l80 22v80l-80 -22v52h88v88h-88v56zM524 560l-6 -52l-44 20v-150l22 -10l-38 -120h188l12 56l54 -28v156l-22 10l10 118h50l-12 -324h238v88h-42l10 324h-240v44h-176v-44h-52v-88h48zM966 714
v88h-346v50h-210v-50h-352v-88h908zM382 212h-200l-134 -296h210l52 122v-152h234v82h-38v204h-140zM856 12l106 180h-172l-26 -46l-42 70h-212l198 -330h230z" />
    <glyph glyph-name="uni4EBA" unicode="&#x4eba;" 
d="M610 852h-200v-384l-384 -582h222l260 396l268 -396h226l-392 578v388z" />
    <glyph glyph-name="uni4EBB" unicode="&#x4ebb;" 
d="M150 848l-126 -492h68v-470h200v600h-40l86 362h-188z" />
    <glyph glyph-name="uni4EBF" unicode="&#x4ebf;" 
d="M962 -110v88h-400l384 744v96h-576v-88h346l-390 -750v-90h636zM150 858l-134 -468h72v-510h208v618h-30l96 360h-212z" />
    <glyph glyph-name="uni4EC0" unicode="&#x4ec0;" 
d="M562 852v-390h-246v-90h246v-486h200v486h236v90h-236v390h-200zM16 386h70v-500h200v608h-30l96 358h-206z" />
    <glyph glyph-name="uni4EC1" unicode="&#x4ec1;" 
d="M138 854l-126 -466h68v-502h200v608h-52l98 360h-188zM342 762v-88h624v88h-624zM310 2v-88h684v88h-684z" />
    <glyph glyph-name="uni4EC2" unicode="&#x4ec2;" 
d="M468 852l-8 -130h-164v-88h166l-14 -128l-150 -620h190l138 594l16 154h118l-20 -658h-66v-90h268l16 836h-308l8 130h-190zM138 852l-122 -464h58v-502h200v608h-52l92 358h-176z" />
    <glyph glyph-name="uni4EC3" unicode="&#x4ec3;" 
d="M618 -24h-86v-90h286v848h168v90h-676v-90h308v-758zM120 852l-108 -464h74v-502h200v608h-66l78 358h-178z" />
    <glyph glyph-name="uni4EC4" unicode="&#x4ec4;" 
d="M966 740v88h-900v-648l-42 -286h196l46 272v574h700zM672 642h-200v-264l-232 -488h202l134 302l174 -302h212l-290 480v272z" />
    <glyph glyph-name="uni4EC5" unicode="&#x4ec5;" 
d="M120 848l-102 -464h60v-496h200v604h-40l80 356h-198zM966 566v260h-640v-88h440v-130l-106 -162l-128 214h-216l230 -392l-248 -380h226l130 198l116 -198h228l-228 378z" />
    <glyph glyph-name="uni4EC6" unicode="&#x4ec6;" 
d="M246 852l-216 -462h112v-504h190v590h-62l168 376h-192zM694 852h-190v-966h190v966zM706 608l102 -476h172l-102 476h-172z" />
    <glyph glyph-name="uni4EC7" unicode="&#x4ec7;" 
d="M306 -102h210l114 636l2 78h50l-36 -702h310v88h-110l32 702h-240l2 138h-200l-4 -138h-112v-88h108l-4 -74zM92 -102h200v594h-60l94 346h-168l-122 -454h56v-486z" />
    <glyph glyph-name="uni4EC9" unicode="&#x4ec9;" 
d="M976 -24h-94v856h-538v-684l-58 -262h198l50 234v624h148v-858h294v90zM136 852l-120 -464h60v-502h190v608h-40l90 358h-180z" />
    <glyph glyph-name="uni4ECA" unicode="&#x4eca;" 
d="M86 266h614l-336 -374h240l336 372v96h-854v-94zM396 570l58 -172h210l-58 172h-210zM510 680l230 -198h262l-418 366h-144l-426 -366h256z" />
    <glyph glyph-name="uni4ECB" unicode="&#x4ecb;" 
d="M302 -114l68 242v312h-200v-290l-76 -264h208zM854 -114v554h-200v-554h200zM510 676l228 -194h260l-414 366h-144l-420 -366h258z" />
    <glyph glyph-name="uni4ECD" unicode="&#x4ecd;" 
d="M690 -114h270l26 634h-132l72 314h-600v-88h98l-12 -206l-128 -654h180l124 638l14 222h120l-76 -314h150l-20 -456h-86v-90zM138 854l-126 -466h68v-502h190v608h-48l98 360h-182z" />
    <glyph glyph-name="uni4ECE" unicode="&#x4ece;" 
d="M836 514v326h-200v-310l-210 -636h196l90 262l98 -262h176l-192 482zM338 226l140 -156v236l-88 108l26 112v314h-198v-310l-176 -636h198z" />
    <glyph glyph-name="uni4ED1" unicode="&#x4ed1;" 
d="M328 446h-200v-554h824v88h-624v174l590 142v98l-590 -138v190zM408 852l-388 -372h262l224 216l226 -216h272l-396 372h-200z" />
    <glyph glyph-name="uni4ED3" unicode="&#x4ed3;" 
d="M932 -12h-590v380h322l-2 -172h-96v-86h296l6 346h-726v-556h790v88zM412 832l-364 -354h262l198 190l220 -188l4 -2h252l-384 354h-188z" />
    <glyph glyph-name="uni4ED4" unicode="&#x4ed4;" 
d="M288 354h280v-378h-114v-90h320v468h218v88h-210l186 326v66h-620v-88h384l-172 -304h-272v-88zM134 852l-124 -466h52v-500h200v608h-30l98 358h-196z" />
    <glyph glyph-name="uni4ED5" unicode="&#x4ed5;" 
d="M320 -24v-90h632v90h-218v500h252v88h-252v288h-200v-288h-246v-88h246v-500h-214zM130 852l-110 -466h52v-500h200v608h-28l80 358h-194z" />
    <glyph glyph-name="uni4ED6" unicode="&#x4ed6;" 
d="M730 584l56 14l-12 -406h-22v-90h196l16 626l-234 -58v182h-180v-216l-52 -12v168h-180v-204l-50 -12v-86l50 12v-616h652v90h-472v562l52 12v-478h180v512zM132 852l-120 -462h56v-504h180v612h-14l86 354h-188z" />
    <glyph glyph-name="uni4ED7" unicode="&#x4ed7;" 
d="M18 386h48v-500h200v608h-28l88 358h-190zM696 470l-46 -66l-82 122h-224l190 -284l-250 -356h220l138 194l130 -194h224l-238 356l138 192v164h92v88h-92v166h-200v-166h-378v-88h378v-128z" />
    <glyph glyph-name="uni4ED8" unicode="&#x4ed8;" 
d="M730 606v-634h-116v-86h316v720h60v88h-60v158h-200v-158h-388v-88h388zM366 468l100 -360h202l-102 360h-200zM158 852l-134 -466h82v-500h200v608h-46l104 358h-206z" />
    <glyph glyph-name="uni4ED9" unicode="&#x4ed9;" 
d="M176 856l-172 -456h82v-514h190v622h-62l130 348h-168zM510 -24v698h-180v-788h636v788h-176v-698h-48v880h-184v-880h-48z" />
    <glyph glyph-name="uni4EDD" unicode="&#x4edd;" 
d="M956 370v90h-878v-90h330v-388h-354v-88h912v88h-358v388h348zM642 842h-260l-338 -346h262l204 228l226 -228h252z" />
    <glyph glyph-name="uni4EDE" unicode="&#x4ede;" 
d="M522 734l-14 -166l-184 -682h190l174 656l14 192h74l-24 -758h-70v-90h262l16 938h-648v-90h210zM272 270h144l64 342h-138zM124 852l-108 -464h48v-502h190v608h-38l80 358h-172z" />
    <glyph glyph-name="uni4EDF" unicode="&#x4edf;" 
d="M104 852l-94 -462h42v-504h200v612h-26l74 354h-196zM526 726v-364h-248v-90h248v-386h200v386h256v90h-256v386l210 24v80l-632 -62v-84z" />
    <glyph glyph-name="uni4EE1" unicode="&#x4ee1;" 
d="M700 412l-340 -450v-66h604v88h-362l340 452v64h-594v-88h352zM550 852h-172l-100 -296h178l40 122h490v88h-462zM128 852l-114 -464h60v-502h200v608h-52l82 358h-176z" />
    <glyph glyph-name="uni4EE3" unicode="&#x4ee3;" 
d="M100 382v-488h202v598h-34l116 348h-180l-156 -458h52zM720 826l68 -192h166l-68 192h-166zM978 588l-284 -56l-36 306h-182l40 -338l-174 -34v-90l190 36l196 -518h252v90h-86l-180 464l264 50v90z" />
    <glyph glyph-name="uni4EE4" unicode="&#x4ee4;" 
d="M84 376v-88h626l-244 -264l-346 48v-88l756 -102v82l-184 28l258 286v98h-866zM416 568l66 -152h182l-70 152h-178zM610 842h-194l-380 -366h260l216 204l216 -204h270z" />
    <glyph glyph-name="uni4EE5" unicode="&#x4ee5;" 
d="M90 -96h336v88h-136v802h-200v-890zM332 850l94 -372h216l-100 372h-210zM674 -120l56 122l58 -122h226l-170 352l36 100l24 500h-202l-22 -436l-238 -516h232z" />
    <glyph glyph-name="uni4EE8" unicode="&#x4ee8;" 
d="M366 332h564v88h-564v-88zM330 696h632v88h-632v-88zM304 -64h682v90h-682v-90zM140 852l-126 -464h60v-502h200v608h-48l92 358h-178z" />
    <glyph glyph-name="uni4EEA" unicode="&#x4eea;" 
d="M122 852l-106 -464h64v-508h200v616h-30l70 356h-198zM772 790v-176l-126 -214l-124 202v188h-200v-250l198 -306l-228 -354h236l118 184l122 -184h240l-232 348l196 334v228h-200zM540 852l22 -262h184l-22 262h-184z" />
    <glyph glyph-name="uni4EEB" unicode="&#x4eeb;" 
d="M570 852l-244 -512h190l240 512h-186zM774 202l26 -176h-184l294 592h-190l-356 -680h456l8 -40h164l-56 304h-162zM166 852l-134 -464h60v-502h200v608h-52l102 358h-176z" />
    <glyph glyph-name="uni4EEC" unicode="&#x4eec;" 
d="M558 824v-90h216v-758h-88v-90h284v938h-412zM118 852l-104 -458h48v-508h188v598h-32l80 368h-180zM514 840h-196v-196h196v196zM514 592h-196v-706h196v706z" />
    <glyph glyph-name="uni4EF0" unicode="&#x4ef0;" 
d="M120 842l-106 -458h44v-496h204v604h-44l84 350h-182zM486 20v720l94 26v88l-276 -50v-872h268v88h-86zM770 732h38v-706h-22v-88h184v884h-368v-934h168v844z" />
    <glyph glyph-name="uni4EF2" unicode="&#x4ef2;" 
d="M810 654v-528h-68v528h68zM474 126v528h68v-528h-68zM542 852v-110h-228v-704h228v-152h200v152h228v704h-228v110h-200zM12 386h52v-500h200v608h-36l84 358h-190z" />
    <glyph glyph-name="uni4EF3" unicode="&#x4ef3;" 
d="M964 -20h-120v514l124 88v90l-124 -86v264h-200v-958h320v88zM524 -20v508h88v88h-88v274h-200v-958h300v88h-100zM128 852l-100 -464h54v-502h200v608h-56l70 358h-168z" />
    <glyph glyph-name="uni4EF5" unicode="&#x4ef5;" 
d="M466 452l28 248h62v-402h-260v-88h260v-324h200v324h236v88h-236v402h208v88h-460l6 64h-158l-56 -400h170zM132 852l-112 -464h46v-502h200v608h-40l80 358h-174z" />
    <glyph glyph-name="uni4EF6" unicode="&#x4ef6;" 
d="M452 362l50 266h56v-358h-272v-94h272v-286h200v286h220v94h-220v358h202v92h-202v132h-200v-132h-40l18 100h-176l-94 -458h186zM140 852l-128 -466h40v-500h200v608h-26l94 358h-180z" />
    <glyph glyph-name="uni4EF7" unicode="&#x4ef7;" 
d="M352 850h-198l-140 -458h60v-502h200v594h-38zM500 -114l86 238v362h-190v-340l-98 -260h202zM912 -114v600h-190v-600h190zM576 846l-282 -336h206l148 176l158 -176h204l-286 336h-148z" />
    <glyph glyph-name="uni4EFB" unicode="&#x4efb;" 
d="M946 742v88l-586 -18v-86l192 6v-302h-236v-88h236v-358h-206v-88h616v88h-210v358h234v88h-234v306zM138 854l-126 -466h68v-502h200v608h-52l98 360h-188z" />
    <glyph glyph-name="uni4EFD" unicode="&#x4efd;" 
d="M434 344l-142 -458h200l142 458h108l-16 -368h-72v-90h270l16 546h-606v-88h100zM126 852l-114 -452h66v-510h200v598h-50l94 364h-196zM654 852l138 -378h206l-142 378h-202zM626 852h-198l-138 -374h196z" />
    <glyph glyph-name="uni4EFF" unicode="&#x4eff;" 
d="M552 852v-110h-250v-88h82l-10 -230l-70 -538h198l64 478h192l-8 -388h-74v-90h274l12 566h-386l8 202h398v88h-230v110h-200zM126 852l-114 -452h66v-510h200v598h-54l88 364h-186z" />
    <glyph glyph-name="uni4F01" unicode="&#x4f01;" 
d="M134 -24h-80v-86h916v86h-332v280h288v88h-288v242h-200v-610h-114v472h-190v-472zM722 532h268l-374 306h-200l-386 -304h262l220 164z" />
    <glyph glyph-name="uni4F09" unicode="&#x4f09;" 
d="M988 -24h-86v600h-558v-470l-56 -220h206l46 188v414h172v-602h276v90zM960 706v88h-228v62h-220v-62h-210v-88h658zM112 852l-96 -464h46v-502h200v608h-40l64 358h-174z" />
    <glyph glyph-name="uni4F0A" unicode="&#x4f0a;" 
d="M480 734v-186h-178v-88h178v-192h-150v-90h120l-140 -292h228l134 292h274v282h48v88h-48v276h-604v-90h138zM746 460v-192h-66v192h66zM746 734v-186h-66v186h66zM126 852l-114 -466h60v-500h200v608h-26l78 358h-198z" />
    <glyph glyph-name="uni4F0D" unicode="&#x4f0d;" 
d="M146 852l-138 -466h62v-500h200v608h-40l102 358h-186zM980 742v88h-648v-88h142l-36 -240h-100v-88h84l-70 -434h-62v-88h710v88h-80v522h-284l32 240h312zM720 414v-434h-164l68 434h96z" />
    <glyph glyph-name="uni4F0E" unicode="&#x4f0e;" 
d="M780 462v-46l-140 -156l-110 120h-238l226 -248l-242 -242h238l120 126l122 -126h236l-232 244l200 224v192h-234v148h244v88h-244v66h-198v-66h-228v-88h228v-148h-234v-88h486zM2 386h60v-500h200v588h-50l94 378h-184z" />
    <glyph glyph-name="uni4F0F" unicode="&#x4f0f;" 
d="M488 -114l132 284l162 -284h216l-280 534v92h258v88h-258v252h-200v-252h-236v-88h236v-92l-244 -534h214zM128 852l-114 -464h58v-502h200v608h-32l86 358h-198zM952 646l-44 196h-182l40 -196h186z" />
    <glyph glyph-name="uni4F10" unicode="&#x4f10;" 
d="M992 470h-166l-126 -146l-32 62l-12 166l296 32v94l-300 -34l-14 208h-198l14 -230l-162 -16v-96l166 20l16 -204l94 -158l-230 -256h166l138 152l112 -178h222v88h-52l-156 244zM916 690l-54 158h-190l52 -158h192zM118 852l-106 -452h66v-510h200v598h-52l88 364h-196z
" />
    <glyph glyph-name="uni4F11" unicode="&#x4f11;" 
d="M522 632v-742h196v742h268v94h-268v126h-196v-126h-256v-94h256zM270 -72h170l66 644h-170zM792 -68h176l-60 640h-176zM20 386h40v-500h188v604h-28l58 362h-184z" />
    <glyph glyph-name="uni4F17" unicode="&#x4f17;" 
d="M680 -114l52 140l60 -140h202l-170 430v176h-200v-182l-154 -424h210zM362 366v126h-200v-230l-130 -376h194l62 186l24 -70h178zM510 690l212 -168h268l-386 326h-184l-382 -326h268z" />
    <glyph glyph-name="uni4F18" unicode="&#x4f18;" 
d="M700 830l46 -172h186l-56 172h-176zM972 -24h-112v540h106v90h-312v246h-198v-246h-180v-90h162l-148 -630h208l144 630h18v-630h312v90zM138 850l-114 -466h54v-498h200v606h-44l82 358h-178z" />
    <glyph glyph-name="uni4F19" unicode="&#x4f19;" 
d="M14 386h72v-500h190v608h-36l84 358h-196zM514 -114l128 226l132 -226h218l-248 440v526h-200v-522l-252 -444h222zM310 760l44 -452h162l-44 452h-162zM818 768l-50 -460h160l50 460h-160z" />
    <glyph glyph-name="uni4F1A" unicode="&#x4f1a;" 
d="M114 430h796v88h-796v-88zM656 150l52 -152h-380l106 244h528v90h-900v-90h156l-140 -332h660l10 -28h200l-90 268h-202zM510 694l212 -132h284l-422 286h-144l-430 -286h286z" />
    <glyph glyph-name="uni4F1B" unicode="&#x4f1b;" 
d="M502 -24v774h470v88h-670v-952h676v90h-476zM730 178l40 -146h166l-116 332l108 338h-160l-36 -142l-36 138h-160l104 -330l-116 -336h162zM112 852l-96 -464h50v-502h200v608h-58l72 358h-168z" />
    <glyph glyph-name="uni4F1E" unicode="&#x4f1e;" 
d="M184 194h198l-132 276h-196zM612 156v386h-200v-386h-358v-88h358v-182h200v182h358v88h-358zM970 470h-194l-132 -276h192zM510 698l230 -174h268l-424 326h-144l-422 -326h266z" />
    <glyph glyph-name="uni4F1F" unicode="&#x4f1f;" 
d="M132 856l-114 -470h54v-500h198v608h-44l86 362h-180zM512 694v-124h-184v-88h184v-142h-228v-90h228v-364h200v364h72l-6 -224h-28v-90h218l10 404h-266v142h228v88h-228v124h252v88h-252v74h-200v-74h-210v-88h210z" />
    <glyph glyph-name="uni4F20" unicode="&#x4f20;" 
d="M82 -98h190v594h-32l94 350h-170l-130 -458h48v-486zM702 674h262v86h-240l20 86h-198l-22 -86h-184v-86h164l-40 -148h-160v-90h136l-66 -206h372l-118 -194l-232 48v-88l520 -110v90l-92 22l134 240l2 2v82h-356l34 114h352v90h-328z" />
    <glyph glyph-name="uni4F22" unicode="&#x4f22;" 
d="M464 332l-160 -446h200l156 446h74v-356h-70v-90h270v446h54v88h-54v326h40v88h-646v-88h406v-326h-220l50 262h-182l-78 -350h160zM126 852l-104 -464h54v-502h200v608h-50l74 358h-174z" />
    <glyph glyph-name="uni4F24" unicode="&#x4f24;" 
d="M596 852h-194l-108 -314h196l54 156h422v88h-392zM536 630l-30 -158h-192v-88h160l-180 -498h206l180 498h90l-6 -408h-82v-90h280l8 586h-266l26 158h-194zM120 852l-112 -466h54v-500h200v608h-36l92 358h-198z" />
    <glyph glyph-name="uni4F25" unicode="&#x4f25;" 
d="M550 456v398h-200v-398h-62v-88h62v-482h324v88h-124v394h36l212 -466h194l-208 466h192v88h-426zM768 832l-194 -332h202l188 332h-196zM132 852l-112 -464h46v-502h200v608h-40l80 358h-174z" />
    <glyph glyph-name="uni4F26" unicode="&#x4f26;" 
d="M154 854l-138 -464h64v-504h200v612h-28l102 356h-200zM542 852l-254 -382h224l136 204l130 -204h234l-258 382h-212zM572 438h-200v-546h588v88h-388v168l350 148v106l-350 -146v182z" />
    <glyph glyph-name="uni4F27" unicode="&#x4f27;" 
d="M534 -20v456h220l-6 -194h-66v-90h252l8 372h-608v-632h632v88h-432zM548 848l-278 -300h226l152 160l138 -160h224l-266 300h-196zM132 852l-112 -464h46v-502h200v608h-40l80 358h-174z" />
    <glyph glyph-name="uni4F2A" unicode="&#x4f2a;" 
d="M278 646v-88h190l-20 -134l-160 -538h200l114 408l16 -166h154l-32 292h-112l22 138h146l-18 -578h-84v-88h264l22 754h-312l20 202h-186l-20 -202h-204zM316 842l26 -162h136l-28 162h-134zM14 386h50v-500h200v608h-36l82 358h-182z" />
    <glyph glyph-name="uni4F2B" unicode="&#x4f2b;" 
d="M318 -6v-88h648v88h-648zM316 464h200v214h262v-214h200v302h-212v78h-232v-78h-218v-302zM136 852l-108 -464h56v-502h200v608h-48l78 358h-178z" />
    <glyph glyph-name="uni4F2F" unicode="&#x4f2f;" 
d="M532 840l-20 -64h-172v-882h624v882h-238l20 64h-214zM544 392v296h220v-296h-220zM544 -18v320h220v-320h-220zM142 840l-86 -432h48v-510h200v622h-36l60 320h-186z" />
    <glyph glyph-name="uni4F30" unicode="&#x4f30;" 
d="M544 674v-200h-212v-588h624v588h-212v200h228v88h-228v90h-200v-90h-228v-88h228zM528 386h232v-410h-232v410zM24 386h66v-500h192v608h-34l82 358h-184z" />
    <glyph glyph-name="uni4F32" unicode="&#x4f32;" 
d="M506 102v358h464v372h-664v-716l-26 -230h208zM542 398v-512h438v90h-242v114l222 138v122l-222 -136v184h-196zM770 744v-196h-264v196h264zM104 852l-94 -466h46v-500h200v608h-20l60 358h-192z" />
    <glyph glyph-name="uni4F34" unicode="&#x4f34;" 
d="M122 840l-86 -456h56v-486h202v584h-50l64 358h-186zM818 796l-48 -292h172l44 292h-168zM552 -100h200v192h232v90h-232v188h222v94h-222v376h-200v-376h-224v-94h224v-188h-236v-90h236v-192zM316 796l52 -292h168l-52 292h-168z" />
    <glyph glyph-name="uni4F36" unicode="&#x4f36;" 
d="M16 386h72v-500h200v608h-48l92 362h-194zM546 850l-242 -366h208l136 206l134 -206h210l-246 366h-200zM560 530l38 -136h168l-40 136h-166zM950 276v96h-604v-88h400l-116 -272l-248 38v-92l532 -72v90l-84 12z" />
    <glyph glyph-name="uni4F38" unicode="&#x4f38;" 
d="M532 4v-118h200v118h244v752h-244v96h-200v-96h-240v-752h240zM532 92h-74v246h74v-246zM810 92h-78v246h78v-246zM458 668h74v-242h-74v242zM732 668h78v-242h-78v242zM18 386h44v-500h200v608h-38l70 358h-184z" />
    <glyph glyph-name="uni4F3A" unicode="&#x4f3a;" 
d="M134 852l-126 -466h64v-500h180v608h-30l88 358h-176zM734 -114h244v948h-648v-88h468v-770h-64v-90zM282 554h486v88h-486v-88zM314 -2h432v452h-432v-452zM576 362v-276h-92v276h92z" />
    <glyph glyph-name="uni4F3C" unicode="&#x4f3c;" 
d="M324 -104h254v88h-74v820h-180v-908zM756 -114l56 200l32 -200h168l-98 468l26 498h-172l-24 -476l-158 -490h170zM510 852l62 -402h158l-68 402h-152zM148 852l-134 -466h72v-500h170v608h-36l104 358h-176z" />
    <glyph glyph-name="uni4F3D" unicode="&#x4f3d;" 
d="M468 658h26v-682h-46v-90h186v860h-160l4 106h-140l-4 -106h-46v-88h40l-54 -772h142zM802 710h32v-710h-32v710zM968 -90v890h-304v-890h304zM128 852l-110 -466h78v-500h156v608h-32l78 358h-170z" />
    <glyph glyph-name="uni4F43" unicode="&#x4f43;" 
d="M360 842h-172l-136 -456h66v-490h198v596h-60zM358 -92h612v894h-612v-894zM810 318v-320h-62v320h62zM810 714v-308h-62v308h62zM574 318v-320h-58v320h58zM574 714v-308h-58v308h58z" />
    <glyph glyph-name="uni4F46" unicode="&#x4f46;" 
d="M70 -102h200v590h-50l84 350h-164l-110 -450h40v-490zM298 -10h694v-90h-694v90zM958 824h-636v-706h636v706zM522 518v216h232v-216h-232zM522 206v226h232v-226h-232z" />
    <glyph glyph-name="uni4F4D" unicode="&#x4f4d;" 
d="M312 -18v-88h672v88h-132l124 624h-190l-130 -624h-344zM150 852l-138 -466h74v-500h200v608h-46l106 358h-196zM552 844v-76h-218v-88h636v88h-198v76h-220zM332 598l112 -544h200l-114 544h-198z" />
    <glyph glyph-name="uni4F4E" unicode="&#x4f4e;" 
d="M86 -104h182v596h-44l104 348h-172l-134 -454h64v-490zM576 182l38 -282h126l-42 282h-122zM340 -96h242v118h-62v358h182l6 -84l70 -396h204v90h-42l-58 362l-2 28h98v90h-102l-12 272l90 6h6v94l-618 -34v-904h-2zM684 728l14 -264h-178v252z" />
    <glyph glyph-name="uni4F4F" unicode="&#x4f4f;" 
d="M512 852l36 -114h-200v-88h210v-266h-196v-88h196v-316h-232v-88h662v88h-230v316h198v88h-198v266h218v88h-200l-48 114h-216zM158 852l-142 -466h70v-500h200v608h-26l102 358h-204z" />
    <glyph glyph-name="uni4F50" unicode="&#x4f50;" 
d="M586 322v-342h-292v-88h696v88h-204v342h176v90h-416l84 230h348v88h-310l44 122h-210l-44 -122h-152v-88h118l-158 -422h212l38 102h70zM146 852l-134 -466h44v-500h200v608h-26l102 358h-186z" />
    <glyph glyph-name="uni4F51" unicode="&#x4f51;" 
d="M422 666l-142 -326h62v-446h624v566h-408l80 206h344v88h-310l32 88h-212l-36 -88h-142v-88h108zM542 370h224v-388h-224v388zM130 848l-114 -466h52v-494h200v602h-34l82 358h-186z" />
    <glyph glyph-name="uni4F53" unicode="&#x4f53;" 
d="M728 166v482h242v88h-242v120h-196v-120h-234v-88h234v-482h-78v-88h98v-192h156v192h92v88h-72zM138 856l-122 -462h50v-508h178v616h-20l84 354h-170zM252 -40h162l104 632h-156zM840 -40h158l-102 632h-158z" />
    <glyph glyph-name="uni4F55" unicode="&#x4f55;" 
d="M492 530h48v-402h-48v402zM330 746h436v-770h-76v-90h266v860h34v88h-660v-88zM720 40v578h-408v-578h408zM136 852l-128 -466h54v-500h190v608h-20l88 358h-184z" />
    <glyph glyph-name="uni4F57" unicode="&#x4f57;" 
d="M966 -24h-434v144l424 282v120l-424 -276v288h-198v-648h632v90zM746 788v62h-198v-62h-234v-210h196v122h270v-114h186v202h-220zM120 852l-110 -466h64v-500h198v608h-32l76 358h-196z" />
    <glyph glyph-name="uni4F58" unicode="&#x4f58;" 
d="M360 -116h260v394h342v88h-904v-88h362v-306h-60v-88zM898 454v90h-788v-90h788zM64 -92h202l90 312h-198zM756 -92h200l-72 312h-200zM632 842h-240l-352 -266h248l222 154l216 -154h256z" />
    <glyph glyph-name="uni4F59" unicode="&#x4f59;" 
d="M356 -116h256v332h356v88h-356v144h282v90h-772v-90h290v-144h-360v-88h360v-244h-56v-88zM260 -78l118 254h-206l-128 -254h216zM646 176l104 -254h210l-106 254h-208zM590 842h-166l-388 -276h292l184 130l206 -130h278z" />
    <glyph glyph-name="uni4F5A" unicode="&#x4f5a;" 
d="M434 482l34 170h74v-260h-246v-88h226l-238 -418h216l142 258l142 -258h208l-234 418h218v88h-234v260h214v88h-214v108h-200v-108h-56l16 88h-156l-76 -346h164zM144 852l-118 -464h72v-502h160v608h-40l94 358h-168z" />
    <glyph glyph-name="uni4F5B" unicode="&#x4f5b;" 
d="M460 852v-66h-162v-88h162v-160h-176l-16 -360h156l-158 -292h168l150 292h62v-292h146v292h48l-4 -148h-18v-88h164l8 326h-198v182h178v336h-178v66h-146v-66h-40v66h-146zM422 268l10 182h28v-182h-38zM646 450v-182h-40v182h40zM646 698v-160h-40v160h40zM824 698
v-160h-32v160h32zM118 852l-102 -452h48v-510h180v598h-18l82 364h-190z" />
    <glyph glyph-name="uni4F5C" unicode="&#x4f5c;" 
d="M150 852l-128 -480h42v-486h200v594h-32l100 372h-182zM554 768l18 84h-172l-116 -492h182l68 320h12v-794h202v188h210v88h-210v242h210v86h-210v190h234v88h-428z" />
    <glyph glyph-name="uni4F5D" unicode="&#x4f5d;" 
d="M494 716h284l-14 -740h-98v-90h284l20 918h-460l10 48h-170l-66 -268h178zM732 84v466h-412v-466h412zM500 172v290h52v-290h-52zM118 852l-92 -464h42v-502h210v608h-52l68 358h-176z" />
    <glyph glyph-name="uni4F5E" unicode="&#x4f5e;" 
d="M294 -110h274l58 36l60 -36h302l-214 136l162 100v162h38v88h-396l26 92h-184l-30 -92h-84v-88h62l-58 -164l166 -106zM626 114l-106 72l32 102h204v-80zM338 730h608v88h-608v-88zM302 514h672v88h-672v-88zM132 852l-110 -464h54v-502h200v608h-46l78 358h-176z" />
    <glyph glyph-name="uni4F5F" unicode="&#x4f5f;" 
d="M510 734h286v-38l-114 -86l-60 60h-126zM478 582l64 -68l-266 -196h252l136 88l90 -88h232l-172 176l162 114v216h-446l6 34h-182l-80 -350h188zM318 4l654 -116v126l-654 126v-136zM484 166l414 -90v122l-414 92v-124zM120 852l-104 -466h50v-500h200v608h-28l78 358
h-196z" />
    <glyph glyph-name="uni4F60" unicode="&#x4f60;" 
d="M122 852l-104 -466h58v-500h190v608h-42l78 358h-180zM524 792l10 60h-174l-72 -362h178l42 214h272l-22 -176h182l36 264h-452zM496 -114h236v746h-200v-656h-36v-90zM348 426l-60 -484h162l60 484h-162zM750 426l54 -484h160l-48 484h-166z" />
    <glyph glyph-name="uni4F63" unicode="&#x4f63;" 
d="M272 -114h184l38 198v84h44v-266h198v266h48v-196h-26v-86h204v946h-646v-728zM784 256h-48v202h48v-202zM784 546h-48v200h48v-200zM538 546h-44v200h44v-200zM538 256h-44v202h44v-202zM126 850l-106 -488h38v-476h200v584h-28l80 380h-184z" />
    <glyph glyph-name="uni4F64" unicode="&#x4f64;" 
d="M982 -22h-78l22 630h-406l8 132h432v88h-668v-88h46l-38 -854h272v88h-74l22 546h208l-24 -630h278v88zM550 150h138l-22 280h-132zM114 852l-102 -464h64v-502h190v608h-62l78 358h-168z" />
    <glyph glyph-name="uni4F65" unicode="&#x4f65;" 
d="M56 -106h908v88h-80l72 374h-208l-76 -374h-616v-88zM930 404v88h-844v-88h844zM360 354l82 -320h206l-82 320h-206zM64 348l80 -314h208l-86 314h-202zM622 842h-220l-360 -316h250l216 188l228 -188h254z" />
    <glyph glyph-name="uni4F67" unicode="&#x4f67;" 
d="M662 852h-200v-362h-168v-88h188v-516h200v516h278v88h-298v192h266v88h-266v82zM154 852l-126 -464h48v-502h190v608h-28l94 358h-178zM702 300l88 -292h170l-92 292h-166z" />
    <glyph glyph-name="uni4F69" unicode="&#x4f69;" 
d="M262 -114h140l32 230v628h400v-858h168v90h-36v856h-666v-714zM690 -96v514h24v-386h-14v-88h116v564h-116v86h116v88h-364v-88h116v-86h-116v-564h102v474h24v-514h112zM148 852l-120 -452h72v-514h152v604h-40l82 362h-146z" />
    <glyph glyph-name="uni4F6C" unicode="&#x4f6c;" 
d="M144 852l-134 -462h62v-504h200v612h-34l92 354h-186zM600 440h372v88h-54l78 272h-192l-88 -272h-46v170h90v88h-90v66h-190v-66h-144v-88h144v-170h-186v-88h96l-114 -168h216zM986 -108v88h-454v94l422 152v110l-422 -148v60h-196v-356h650z" />
    <glyph glyph-name="uni4F6F" unicode="&#x4f6f;" 
d="M342 850l58 -120h-96v-88h238v-218h-220v-88h220v-228h-254v-88h254v-132h198v132h252v88h-252v228h208v88h-208v218h232v88h-86l66 120h-198l-70 -120h-80l-62 120h-200zM124 850l-116 -466h52v-496h198v604h-28l84 358h-190z" />
    <glyph glyph-name="uni4F70" unicode="&#x4f70;" 
d="M316 728h212l-24 -120h-178v-710h642v710h-256l24 120h258v90h-676v-90h-2zM530 308v212h262v-212h-262zM530 -12v230h262v-230h-262zM84 -104h202v572h-68l80 372h-166l-104 -458h56v-486z" />
    <glyph glyph-name="uni4F73" unicode="&#x4f73;" 
d="M322 270v-88h220v-200h-258v-88h714v88h-256v200h210v88h-210v104h-200v-104h-220zM542 686v-194h-254v-88h698v88h-244v194h206v90h-206v76h-200v-76h-208v-90h208zM14 386h40v-500h202v592h-26l92 374h-190z" />
    <glyph glyph-name="uni4F74" unicode="&#x4f74;" 
d="M542 738h194v-166h-194v166zM736 56h-194v174h194v-174zM542 484h194v-166h-194v166zM300 -32h436v-78h194v78h38v88h-38v682h38v88h-648v-88h26v-682h-46v-88zM108 852l-94 -466h60v-500h194v608h-20l58 358h-198z" />
    <glyph glyph-name="uni4F76" unicode="&#x4f76;" 
d="M316 -114h652v456h-652v-456zM540 684v-170h-218v-88h638v88h-220v170h236v90h-236v78h-200v-78h-228v-90h228zM516 254h252v-278h-252v278zM118 852l-102 -466h50v-500h200v608h-20l68 358h-196z" />
    <glyph glyph-name="uni4F7B" unicode="&#x4f7b;" 
d="M112 852l-102 -466h56v-500h200v608h-18l64 358h-200zM432 170l-104 -284h206l80 240v730h-182v-686zM840 856h-182v-970h328v90h-146v880zM946 462l22 312h-98l-16 -312h92zM944 434h-92l22 -332h94zM322 462h94l-14 312h-98zM320 434l-24 -332h94l24 332h-94z" />
    <glyph glyph-name="uni4F7C" unicode="&#x4f7c;" 
d="M322 398l192 -234l-228 -278h228l114 136l112 -136h238l-232 278l196 234h-238l-76 -94l-78 94h-228zM974 690v102h-232v52h-204v-52h-218v-102h654zM124 852l-114 -466h56v-500h200v608h-22l78 358h-198zM788 432h194l-86 226h-198zM590 658h-200l-104 -226h202z" />
    <glyph glyph-name="uni4F7E" unicode="&#x4f7e;" 
d="M310 582v-698h200v206h254v-118h-46v-88h246v698h-654zM510 492h254v-110h-254v110zM510 294h254v-116h-254v116zM134 852l-124 -466h46v-500h200v608h-16l94 358h-200zM286 616h214l112 236h-206zM978 616l-128 236h-206l120 -236h214z" />
    <glyph glyph-name="uni4F7F" unicode="&#x4f7f;" 
d="M538 678v-72h-224v-368h224v-10l-46 -56l-196 54v-162l90 -24l-124 -154h240l82 100l402 -110v158l-294 82l46 56v66h220v368h-220v72h238v88h-238v86h-200v-86h-238v-88h238zM494 326v190h44v-190h-44zM778 516v-190h-40v190h40zM8 386h44v-500h190v608h-24l82 358h-186
z" />
    <glyph glyph-name="uni4F83" unicode="&#x4f83;" 
d="M940 426v406h-622v-406h622zM750 744v-230h-242v230h242zM982 -24h-54v406h-172v-496h226v90zM458 -114l42 208v288h-176v-268l-50 -228h184zM540 382v-496h176v496h-176zM106 852l-96 -466h66v-500h180v608h-16l66 358h-200z" />
    <glyph glyph-name="uni4F84" unicode="&#x4f84;" 
d="M764 420l12 -30h198l-96 270h-200l56 -152h-178l98 238h316v88h-644v-88h120l-128 -326h446zM536 242h-206v-90h206v-172h-250v-88h688v88h-238v172h208v90h-208v134h-200v-134zM114 852l-96 -466h46v-500h200v608h-26l70 358h-194z" />
    <glyph glyph-name="uni4F88" unicode="&#x4f88;" 
d="M966 808h-434l14 34h-162l-86 -208h170l36 86h274v-86l-138 -42l-20 34h-168l40 -82l-168 -56v-142l646 200v262h-4zM528 274h260v-102l-90 -24l-26 50h-164l42 -94l-224 -64v-150l654 182v290h-584l-80 -194h168zM100 -104h202v594h-64l88 358h-166l-112 -466h52v-486z
" />
    <glyph glyph-name="uni4F89" unicode="&#x4f89;" 
d="M936 -108l34 296h-402l18 108h388v88h-672v-88h86l-40 -196h416l-18 -120h-126v-88h316zM710 700l64 -150h-234l84 150h86zM528 532v-70h250v80l30 -76h204l-106 234h72v88h-316l34 64h-206l-40 -64h-130v-88h94l-138 -234h214zM116 852l-100 -466h50v-500h200v608h-24
l70 358h-196z" />
    <glyph glyph-name="uni4F8B" unicode="&#x4f8b;" 
d="M414 378l46 152h26v-132l-54 -134l-24 74h-158l78 -230h42l-100 -222h196l172 440v292h-160l34 124h134v88h-368v-88h76l-106 -364h166zM106 852l-96 -458h48v-508h182v608h-42l70 358h-162zM970 -114v966h-148v-876h-76v-90h224zM798 74v686h-136v-686h136z" />
    <glyph glyph-name="uni4F8D" unicode="&#x4f8d;" 
d="M126 852l-106 -466h52v-500h200v608h-24l76 358h-198zM980 444v90h-242v146h196v88h-196v84h-200v-84h-190v-88h190v-146h-234v-90h676zM726 242v-266h-80v-90h280v356h48v88h-48v88h-200v-88h-422v-88h422zM344 188l64 -240h204l-64 240h-204z" />
    <glyph glyph-name="uni4F8F" unicode="&#x4f8f;" 
d="M468 500l18 180h52v-252h-252v-88h252v-454h200v454h244v88h-244v252h222v88h-222v84h-200v-84h-44l6 56h-164l-42 -324h174zM284 -98h180l58 378h-170zM812 -98h172l-48 378h-174zM122 852l-112 -466h56v-500h190v608h-14l74 358h-194z" />
    </font>
</defs>
</svg>
